<svg xmlns="http://www.w3.org/2000/svg" xmlns:xlink="http://www.w3.org/1999/xlink" viewBox="0 0 1920 1597.49"><defs><clipPath id="clip-path"><rect class="cls-1" x="1123.06" y="-2299.59" width="325.28" height="400.49" rx="18.41"></rect></clipPath><clipPath id="clip-path-2"><rect class="cls-1" x="3129.99" y="-2299.57" width="325.28" height="400.49" rx="18.41"></rect></clipPath><image id="image" width="6702" height="2084"></image><image id="image-2" width="1264" height="1058"></image></defs><title>Tradveller_Merch Landing Page</title><g id="Layer_2" data-name="Layer 2"><g class="cls-2"><use transform="translate(-1406.26 -2719.24) scale(3.2)" xlink:href="#image-2"></use></g><rect width="1920" height="65.68"></rect><rect class="cls-3" y="60.69" width="1920" height="1205.11"></rect><rect class="cls-4" x="853.92" y="1029.17" width="200.03" height="50.82" rx="6.98"></rect><text class="cls-5" transform="translate(891.21 1064)">Shop n<tspan class="cls-6" x="89.1" y="0">o</tspan><tspan x="105.77" y="0">w</tspan></text><text class="cls-7" transform="translate(881.6 287.12)">OUR <tspan class="cls-8" x="67.29" y="0">S</tspan><tspan class="cls-9" x="84.78" y="0">T</tspan><tspan x="99.69" y="0">O</tspan><tspan class="cls-10" x="122.23" y="0">R</tspan><tspan x="139.8" y="0">Y</tspan></text><text class="cls-7" transform="translate(737.58 433.49)"><tspan class="cls-11">W</tspan><tspan x="26.56" y="0">e </tspan><tspan class="cls-12" x="48.45" y="0">T</tspan><tspan class="cls-13" x="63.15" y="0">r</tspan><tspan x="73.78" y="0">ade &amp; </tspan><tspan class="cls-14" x="152.49" y="0">W</tspan><tspan x="179.05" y="0">e </tspan><tspan class="cls-15" x="200.94" y="0">T</tspan><tspan class="cls-16" x="215.64" y="0">ra</tspan><tspan class="cls-17" x="241.21" y="0">v</tspan><tspan class="cls-18" x="255.51" y="0">el — with Style</tspan></text><path class="cls-4" d="M708.39,380.1V332.44H692v-9.86h43.88v9.86H719V380.1Z"></path><path class="cls-4" d="M746.35,380.1V322.58h25.07a18.7,18.7,0,0,1,16.14,9,17.72,17.72,0,0,1,2.51,9.33,17,17,0,0,1-2.51,9,18.87,18.87,0,0,1-6.74,6.57,18.26,18.26,0,0,1-9.4,2.47H756.79V380.1Zm10.44-30.49H771.5a7.72,7.72,0,0,0,4.11-1.11,7.52,7.52,0,0,0,2.79-3,9.3,9.3,0,0,0,1-4.31,8.35,8.35,0,0,0-4.69-7.81,10.88,10.88,0,0,0-5.09-1.15H756.79Zm23,30.49-14.63-26,10.93-2.05,16.27,28.1Z"></path><path class="cls-4" d="M797.38,380.1l22.43-57.52h10L852,380.1H841l-12.4-32.87c-.22-.61-.57-1.62-1-3s-1-3-1.52-4.69-1.06-3.25-1.52-4.68-.78-2.49-.95-3.2l2.06-.09c-.33,1.1-.71,2.34-1.15,3.74s-.91,2.84-1.4,4.32-1,2.9-1.48,4.27-.93,2.6-1.31,3.7L808,380.1Zm10.19-13.23,3.62-9.21H837.4l4,9.21Z"></path><path class="cls-4" d="M861.15,380.1V322.58h23.09a29.77,29.77,0,0,1,11.3,2.05,24.18,24.18,0,0,1,8.66,5.92,27,27,0,0,1,5.59,9.12,32.85,32.85,0,0,1,2,11.67,33.27,33.27,0,0,1-2,11.71,26.92,26.92,0,0,1-5.54,9.12,24.18,24.18,0,0,1-8.67,5.87,30.09,30.09,0,0,1-11.34,2.06Zm10.6-8.3-.74-1.56h12.82a18.86,18.86,0,0,0,7.23-1.32,14.44,14.44,0,0,0,5.38-3.74,16.87,16.87,0,0,0,3.37-6,24.65,24.65,0,0,0,1.19-7.88,24.33,24.33,0,0,0-1.19-7.85,17,17,0,0,0-3.41-6,14.91,14.91,0,0,0-5.38-3.78,18.73,18.73,0,0,0-7.19-1.31H870.76l1-1.4Z"></path><path class="cls-4" d="M937.57,380.1l-23-57.52h11.58L939,355.53q1,2.55,1.73,4.56c.49,1.34.93,2.57,1.31,3.7s.74,2.2,1.07,3.24.66,2.14,1,3.29h-2.22c.38-1.48.79-2.95,1.23-4.4s.95-3,1.52-4.68,1.28-3.58,2.1-5.71l12-32.95h11.67L947.26,380.1Z"></path><path class="cls-4" d="M979.56,380.1V322.58h37.55v9.69h-27V370.4h27.37v9.7Zm4.93-24.65v-9.54h28.43v9.54Z"></path><path class="cls-4" d="M1030.83,380.1V322.58h10.6v47.66H1068v9.86Z"></path><path class="cls-4" d="M1080.38,380.1V322.58H1091v47.66h26.54v9.86Z"></path><path class="cls-4" d="M1129.93,380.1V322.58h37.55v9.69h-27V370.4h27.36v9.7Zm4.93-24.65v-9.54h28.43v9.54Z"></path><path class="cls-4" d="M1181.21,380.1V322.58h25.06a18.7,18.7,0,0,1,16.15,9,17.71,17.71,0,0,1,2.5,9.33,17,17,0,0,1-2.5,9,19,19,0,0,1-6.74,6.57,18.29,18.29,0,0,1-9.41,2.47h-14.63V380.1Zm10.43-30.49h14.71a7.72,7.72,0,0,0,4.11-1.11,7.45,7.45,0,0,0,2.79-3,9.3,9.3,0,0,0,1-4.31,8.32,8.32,0,0,0-4.68-7.81,10.89,10.89,0,0,0-5.1-1.15h-12.82Zm23,30.49-14.63-26,10.93-2.05,16.27,28.1Z"></path><use transform="translate(60.7 70.67) scale(0.04)" xlink:href="#image"></use><path class="cls-4" d="M1697.19,122.84,1690,115.6a9.68,9.68,0,0,0,2.25-3.65,9.84,9.84,0,1,0-5,5.65l7.6,7.59Zm-16.35-7.91a6.47,6.47,0,0,1-4-8.22,6.49,6.49,0,0,1,6.14-4.39,6.56,6.56,0,0,1,2.08.34,6.48,6.48,0,0,1-4.17,12.27Z"></path><path class="cls-4" d="M1746.23,104.47,1745,99.19h-7.14v3.33h4.52l3.89,16h18.24v-14Zm14.9,10.69h-12.29l-1.8-7.36h14.09Z"></path><circle class="cls-4" cx="1749.35" cy="122.62" r="3.33"></circle><circle class="cls-4" cx="1761.01" cy="122.62" r="3.33"></circle><text class="cls-19" transform="translate(380.44 116.09)"><tspan class="cls-20">T</tspan><tspan class="cls-21" x="9.47" y="0">-</tspan><tspan class="cls-22" x="18.2" y="0">SHI</tspan><tspan class="cls-23" x="50.12" y="0">R</tspan><tspan x="62.2" y="0">T</tspan></text><text class="cls-19" transform="translate(508.15 116.09)"><tspan class="cls-24">J</tspan><tspan class="cls-25" x="10.71" y="0">A</tspan><tspan x="23.66" y="0">CKET</tspan></text><text class="cls-26" transform="translate(642.17 116.09)">C<tspan class="cls-27" x="13.94" y="0">AP</tspan></text><text class="cls-19" transform="translate(744.84 116.09)"><tspan class="cls-25">A</tspan><tspan x="12.95" y="0">CC</tspan><tspan class="cls-28" x="41.04" y="0">E</tspan><tspan class="cls-22" x="51.5" y="0">SSORI</tspan><tspan class="cls-29" x="109.04" y="0">E</tspan><tspan x="119.5" y="0">S</tspan></text><text class="cls-19" transform="translate(932.36 116.09)">OUR <tspan class="cls-30" x="45.62" y="0">S</tspan><tspan class="cls-31" x="57.47" y="0">T</tspan><tspan x="67.58" y="0">O</tspan><tspan class="cls-32" x="82.86" y="0">R</tspan><tspan x="94.76" y="0">Y</tspan></text><text class="cls-33" transform="translate(796.84 36.7)">FREE SHIPPIN WHEN <tspan class="cls-34" x="192.42" y="0">Y</tspan><tspan x="203.72" y="0">OUR ORDER IS A</tspan><tspan class="cls-35" x="355.88" y="0">B</tspan><tspan class="cls-36" x="368.04" y="0">O</tspan><tspan x="383.47" y="0">VE RM150 AND A</tspan><tspan class="cls-35" x="537.37" y="0">B</tspan><tspan class="cls-36" x="549.54" y="0">O</tspan><tspan x="564.96" y="0">VE</tspan></text><rect class="cls-4" x="701.77" y="13.17" width="79.66" height="33.7" rx="5"></rect><text class="cls-37" transform="translate(710.87 35.34)">P<tspan class="cls-38" x="9.93" y="0">R</tspan><tspan x="20.63" y="0">OMO</tspan></text><path class="cls-4" d="M1806.58,107.21h21.09a1.09,1.09,0,0,0,1.09-1.09h0a1.09,1.09,0,0,0-1.09-1.1h-21.09a1.1,1.1,0,0,0-1.1,1.1h0A1.09,1.09,0,0,0,1806.58,107.21Z"></path><path class="cls-4" d="M1806.58,115.4h21.09a1.09,1.09,0,0,0,1.09-1.09h0a1.09,1.09,0,0,0-1.09-1.1h-21.09a1.1,1.1,0,0,0-1.1,1.1h0A1.09,1.09,0,0,0,1806.58,115.4Z"></path><path class="cls-4" d="M1806.58,123.59h21.09a1.09,1.09,0,0,0,1.09-1.1h0a1.09,1.09,0,0,0-1.09-1.09h-21.09a1.09,1.09,0,0,0-1.1,1.09h0A1.1,1.1,0,0,0,1806.58,123.59Z"></path><rect y="1268.39" width="1921" height="329.1"></rect><text class="cls-39" transform="translate(1627.57 1364.62)"><tspan class="cls-40">F</tspan><tspan x="14.43" y="0">oll</tspan><tspan class="cls-41" x="48.37" y="0">o</tspan><tspan x="65.93" y="0">w us</tspan></text><text class="cls-39" transform="translate(1316.63 1364.62)">N<tspan class="cls-42" x="22.83" y="0">a</tspan><tspan x="38.12" y="0">viga</tspan><tspan class="cls-43" x="95.52" y="0">t</tspan><tspan class="cls-44" x="106.79" y="0">e </tspan><tspan class="cls-42" x="128.8" y="0">P</tspan><tspan x="145.94" y="0">ages</tspan></text><use transform="translate(107.64 1293.06) scale(0.06)" xlink:href="#image"></use><path class="cls-4" d="M1637.67,1417.62v-10.53h-1.79V1404h1.79v-.53a6.25,6.25,0,0,1,1.73-4.59,5.6,5.6,0,0,1,3.78-1.37,8.45,8.45,0,0,1,2.26.28l-.17,3.27a4.65,4.65,0,0,0-1.37-.19c-1.39,0-2,1.09-2,2.43v.7h2.74v3.13H1642v10.53Z"></path><path class="cls-4" d="M1645.93,1450a1.19,1.19,0,1,0,1.19,1.19A1.18,1.18,0,0,0,1645.93,1450Z"></path><path class="cls-4" d="M1640.66,1451.41a5.07,5.07,0,1,0,5.07,5.07A5.07,5.07,0,0,0,1640.66,1451.41Zm0,8.36a3.29,3.29,0,1,1,3.29-3.29A3.29,3.29,0,0,1,1640.66,1459.77Z"></path><path class="cls-4" d="M1650.48,1452.41a7.44,7.44,0,0,0-.46-2.4,5.06,5.06,0,0,0-2.89-2.89,7.44,7.44,0,0,0-2.4-.46c-1,0-1.39-.06-4.07-.06s-3,0-4.07.06a7.44,7.44,0,0,0-2.4.46,5,5,0,0,0-2.88,2.89,6.94,6.94,0,0,0-.46,2.4c0,1-.06,1.39-.06,4.07s0,3,.06,4.07a6.94,6.94,0,0,0,.46,2.4,5,5,0,0,0,2.88,2.89,7.21,7.21,0,0,0,2.4.45c1.05,0,1.39.06,4.07.06s3,0,4.07-.06a7.21,7.21,0,0,0,2.4-.45A5.06,5.06,0,0,0,1650,1463a7.44,7.44,0,0,0,.46-2.4c0-1,.06-1.39.06-4.07S1650.52,1453.46,1650.48,1452.41Zm-1.78,8.06a5.44,5.44,0,0,1-.34,1.83,3.08,3.08,0,0,1-.74,1.14,3.17,3.17,0,0,1-1.13.74,5.86,5.86,0,0,1-1.84.34c-1,0-1.35,0-4,0s-3,0-4,0a5.78,5.78,0,0,1-1.83-.34,3.27,3.27,0,0,1-1.88-1.88,5.71,5.71,0,0,1-.34-1.83c0-1,0-1.35,0-4s0-3,0-4a5.71,5.71,0,0,1,.34-1.83,3.12,3.12,0,0,1,.74-1.14,3.08,3.08,0,0,1,1.14-.74,5.78,5.78,0,0,1,1.83-.34c1,0,1.36-.06,4-.06s2.95,0,4,.06a5.86,5.86,0,0,1,1.84.34,3,3,0,0,1,1.13.74,3,3,0,0,1,.74,1.14,5.44,5.44,0,0,1,.34,1.83c0,1,.06,1.35.06,4S1648.75,1459.43,1648.7,1460.47Z"></path><text class="cls-45" transform="translate(141.24 1465.79)">@2022</text><text class="cls-45" transform="translate(141.24 1488.82)"><tspan class="cls-46">A</tspan><tspan x="10.5" y="0">ll righ</tspan><tspan class="cls-47" x="50.16" y="0">t</tspan><tspan x="56.07" y="0">s </tspan><tspan class="cls-48" x="66.77" y="0">r</tspan><tspan x="72.42" y="0">ese</tspan><tspan class="cls-49" x="97.06" y="0">r</tspan><tspan class="cls-50" x="103.05" y="0">v</tspan><tspan class="cls-51" x="110.74" y="0">ed</tspan></text><text class="cls-52" transform="translate(1668.98 1415.74)"><tspan class="cls-53">T</tspan><tspan class="cls-54" x="8.39" y="0">r</tspan><tspan x="14.4" y="0">ad</tspan><tspan class="cls-55" x="33.2" y="0">v</tspan><tspan x="41.27" y="0">eller </tspan><tspan class="cls-53" x="77.29" y="0">T</tspan><tspan class="cls-56" x="85.68" y="0">r</tspan><tspan x="91.62" y="0">end</tspan></text><text class="cls-52" transform="translate(1668.98 1462.72)"><tspan class="cls-53">T</tspan><tspan class="cls-54" x="8.39" y="0">r</tspan><tspan x="14.4" y="0">ad</tspan><tspan class="cls-55" x="33.2" y="0">v</tspan><tspan x="41.27" y="0">eller </tspan><tspan class="cls-53" x="77.29" y="0">T</tspan><tspan class="cls-56" x="85.68" y="0">r</tspan><tspan x="91.62" y="0">end</tspan></text><text class="cls-52" transform="translate(1320.21 1415.74)">HOME</text><text class="cls-52" transform="translate(1320.21 1462.72)">OUR <tspan class="cls-57" x="38.73" y="0">S</tspan><tspan class="cls-58" x="48.92" y="0">T</tspan><tspan x="57.39" y="0">O</tspan><tspan class="cls-59" x="70.39" y="0">R</tspan><tspan x="80.35" y="0">Y</tspan></text><text class="cls-52" transform="translate(1320.21 1509.87)">OUR P<tspan class="cls-60" x="48.18" y="0">R</tspan><tspan x="58.29" y="0">ODU</tspan><tspan class="cls-61" x="95.14" y="0">C</tspan><tspan class="cls-58" x="107.01" y="0">T</tspan><tspan x="115.48" y="0">S</tspan></text><polygon class="cls-4" points="985.47 127.2 979.62 135.34 991.31 135.34 985.47 127.2"></polygon><text class="cls-62" transform="translate(729.31 546.5)"><tspan class="cls-63">T</tspan><tspan class="cls-61" x="8.77" y="0">r</tspan><tspan x="15.04" y="0">ad</tspan><tspan class="cls-60" x="34.5" y="0">v</tspan><tspan x="43.26" y="0">eller — Designed </tspan><tspan class="cls-54" x="175.3" y="0">f</tspan><tspan x="181" y="0">or M</tspan><tspan class="cls-60" x="215.25" y="0">ov</tspan><tspan x="234.03" y="0">ement. Inspi</tspan><tspan class="cls-61" x="329.68" y="0">r</tspan><tspan x="335.95" y="0">ed </tspan><tspan class="cls-60" x="359" y="0">b</tspan><tspan x="369.35" y="0">y Mindset.</tspan><tspan class="cls-64"><tspan class="cls-65" x="-173.32" y="36">A</tspan><tspan x="-162.07" y="36">t </tspan><tspan class="cls-66" x="-152.26" y="36">T</tspan><tspan class="cls-54" x="-143.8" y="36">r</tspan><tspan x="-137.68" y="36">ad</tspan><tspan class="cls-67" x="-118.72" y="36">v</tspan><tspan x="-110.48" y="36">elle</tspan><tspan class="cls-68" x="-83.54" y="36">r</tspan><tspan x="-78.32" y="36">, </tspan><tspan class="cls-69" x="-70.97" y="36">w</tspan><tspan x="-58.41" y="36">e beli</tspan><tspan class="cls-70" x="-17.38" y="36">e</tspan><tspan class="cls-69" x="-8.26" y="36">v</tspan><tspan x="-0.03" y="36">e li</tspan><tspan class="cls-70" x="21.48" y="36">f</tspan><tspan x="27.11" y="36">e is a journ</tspan><tspan class="cls-71" x="107.9" y="36">e</tspan><tspan x="117.02" y="36">y bet</tspan><tspan class="cls-67" x="154.54" y="36">w</tspan><tspan x="167.12" y="36">een t</tspan><tspan class="cls-69" x="204.88" y="36">w</tspan><tspan x="217.45" y="36">o </tspan><tspan class="cls-67" x="231.01" y="36">w</tspan><tspan x="243.58" y="36">orlds — the one </tspan><tspan class="cls-69" x="363.8" y="36">y</tspan><tspan x="371.86" y="36">ou build and the one </tspan><tspan class="cls-67" x="530.17" y="36">y</tspan><tspan x="538.22" y="36">ou </tspan><tspan class="cls-54" x="561.2" y="36">e</tspan><tspan x="570.35" y="36">xplo</tspan><tspan class="cls-65" x="603.52" y="36">r</tspan><tspan class="cls-72" x="609.58" y="36">e</tspan><tspan x="618.63" y="36">.</tspan><tspan class="cls-70" x="-402.49" y="72">B</tspan><tspan x="-392.35" y="72">orn </tspan><tspan class="cls-54" x="-363.04" y="72">f</tspan><tspan class="cls-65" x="-357.39" y="72">r</tspan><tspan x="-351.33" y="72">om the spirit of t</tspan><tspan class="cls-54" x="-225.45" y="72">r</tspan><tspan x="-219.33" y="72">ade and t</tspan><tspan class="cls-54" x="-149.41" y="72">ra</tspan><tspan class="cls-69" x="-134.69" y="72">v</tspan><tspan x="-126.46" y="72">el, our b</tspan><tspan class="cls-54" x="-66.17" y="72">r</tspan><tspan x="-60.05" y="72">and </tspan><tspan class="cls-65" x="-28.07" y="72">r</tspan><tspan x="-22.01" y="72">ep</tspan><tspan class="cls-65" x="-2.5" y="72">r</tspan><tspan x="3.56" y="72">esen</tspan><tspan class="cls-71" x="39.56" y="72">t</tspan><tspan x="45.89" y="72">s those who pursue </tspan><tspan class="cls-73" x="195.96" y="72">f</tspan><tspan class="cls-65" x="201.61" y="72">r</tspan><tspan x="207.67" y="72">eedom with purpose — the thin</tspan><tspan class="cls-74" x="443.93" y="72">k</tspan><tspan x="452.35" y="72">er</tspan><tspan class="cls-69" x="467.68" y="72">s</tspan><tspan x="475.57" y="72">, the doer</tspan><tspan class="cls-67" x="547.31" y="72">s</tspan><tspan x="555.2" y="72">, the c</tspan><tspan class="cls-65" x="600.23" y="72">r</tspan><tspan x="606.29" y="72">ea</tspan><tspan class="cls-71" x="624.09" y="72">t</tspan><tspan x="630.42" y="72">ors who t</tspan><tspan class="cls-73" x="700.44" y="72">r</tspan><tspan x="706.56" y="72">ade not just asse</tspan><tspan class="cls-71" x="833.58" y="72">t</tspan><tspan class="cls-67" x="839.91" y="72">s</tspan><tspan x="847.8" y="72">, </tspan><tspan x="0.45" y="90">but idea</tspan><tspan class="cls-69" x="62.77" y="90">s</tspan><tspan x="70.66" y="90">, tim</tspan><tspan class="cls-75" x="103.54" y="90">e</tspan><tspan x="112.6" y="90">, and ene</tspan><tspan class="cls-65" x="179.89" y="90">r</tspan><tspan x="185.95" y="90">gy </tspan><tspan class="cls-71" x="207.7" y="90">t</tspan><tspan x="214.03" y="90">o design a li</tspan><tspan class="cls-70" x="303.86" y="90">f</tspan><tspan x="309.49" y="90">e without bo</tspan><tspan class="cls-65" x="405.26" y="90">r</tspan><tspan x="411.32" y="90">der</tspan><tspan class="cls-69" x="436.98" y="90">s</tspan><tspan x="444.87" y="90">.</tspan><tspan x="-394.85" y="126">Our clothing is made </tspan><tspan class="cls-70" x="-233.45" y="126">f</tspan><tspan x="-227.83" y="126">or modern mobility: minimalist, functional, and timeles</tspan><tspan class="cls-69" x="185.89" y="126">s</tspan><tspan x="193.78" y="126">. Each piece blends pe</tspan><tspan class="cls-76" x="361.4" y="126">r</tspan><tspan class="cls-71" x="367.58" y="126">f</tspan><tspan x="373.21" y="126">ormance and simplicity — adap</tspan><tspan class="cls-73" x="608.9" y="126">t</tspan><tspan x="615.26" y="126">able enough </tspan><tspan class="cls-71" x="712.59" y="126">f</tspan><tspan x="718.22" y="126">or a long flight, a </tspan><tspan x="51.55" y="144">spon</tspan><tspan class="cls-54" x="89.66" y="144">t</tspan><tspan x="96.02" y="144">aneous tri</tspan><tspan class="cls-77" x="171.6" y="144">p</tspan><tspan x="181.73" y="144">, or a quiet morning of </tspan><tspan class="cls-70" x="351.61" y="144">f</tspan><tspan x="357.24" y="144">ocu</tspan><tspan class="cls-69" x="385.89" y="144">s</tspan><tspan x="393.78" y="144">.</tspan><tspan class="cls-78" x="130.62" y="180">W</tspan><tspan x="145.9" y="180">e </tspan><tspan class="cls-71" x="158.5" y="180">v</tspan><tspan x="166.83" y="180">alue les</tspan><tspan class="cls-67" x="223.27" y="180">s</tspan><tspan x="231.16" y="180">, but bet</tspan><tspan class="cls-71" x="293.98" y="180">t</tspan><tspan x="300.31" y="180">e</tspan><tspan class="cls-68" x="309.49" y="180">r</tspan><tspan x="314.71" y="180">.</tspan><tspan class="cls-70" x="-201.71" y="198">E</tspan><tspan class="cls-69" x="-192.77" y="198">v</tspan><tspan x="-184.54" y="198">e</tspan><tspan class="cls-79" x="-175.36" y="198">r</tspan><tspan x="-168.94" y="198">y ma</tspan><tspan class="cls-70" x="-134.17" y="198">t</tspan><tspan x="-127.84" y="198">erial, </tspan><tspan class="cls-70" x="-87.63" y="198">e</tspan><tspan class="cls-69" x="-78.5" y="198">v</tspan><tspan x="-70.27" y="198">e</tspan><tspan class="cls-79" x="-61.09" y="198">r</tspan><tspan x="-54.67" y="198">y seam, </tspan><tspan class="cls-70" x="4.67" y="198">e</tspan><tspan class="cls-69" x="13.79" y="198">v</tspan><tspan x="22.02" y="198">e</tspan><tspan class="cls-80" x="31.2" y="198">r</tspan><tspan x="37.62" y="198">y de</tspan><tspan class="cls-54" x="68.76" y="198">t</tspan><tspan x="75.12" y="198">ail se</tspan><tspan class="cls-79" x="113.29" y="198">r</tspan><tspan class="cls-67" x="119.71" y="198">v</tspan><tspan x="127.95" y="198">es a </tspan><tspan class="cls-65" x="160.63" y="198">r</tspan><tspan x="166.69" y="198">eason — </tspan><tspan class="cls-71" x="232.62" y="198">t</tspan><tspan x="238.95" y="198">o </tspan><tspan class="cls-74" x="252.51" y="198">k</tspan><tspan x="260.92" y="198">eep </tspan><tspan class="cls-67" x="293.04" y="198">y</tspan><tspan x="301.09" y="198">ou com</tspan><tspan class="cls-71" x="357.82" y="198">f</tspan><tspan x="363.44" y="198">o</tspan><tspan class="cls-81" x="373.58" y="198">r</tspan><tspan class="cls-54" x="379.88" y="198">t</tspan><tspan x="386.24" y="198">abl</tspan><tspan class="cls-72" x="409.49" y="198">e</tspan><tspan x="418.55" y="198">, confident, and </tspan><tspan class="cls-65" x="539.51" y="198">r</tspan><tspan x="545.57" y="198">eady </tspan><tspan class="cls-70" x="585.33" y="198">t</tspan><tspan x="591.66" y="198">o m</tspan><tspan class="cls-69" x="619.74" y="198">ov</tspan><tspan class="cls-72" x="637.97" y="198">e</tspan><tspan x="647.03" y="198">.</tspan><tspan class="cls-66" x="-338.31" y="234">T</tspan><tspan class="cls-73" x="-329.85" y="234">r</tspan><tspan x="-323.73" y="234">ad</tspan><tspan class="cls-69" x="-304.77" y="234">v</tspan><tspan x="-296.53" y="234">eller is not about lu</tspan><tspan class="cls-74" x="-152.36" y="234">x</tspan><tspan x="-144.14" y="234">u</tspan><tspan class="cls-79" x="-134.72" y="234">r</tspan><tspan x="-128.3" y="234">y; it</tspan><tspan class="cls-82" x="-101.73" y="234">’</tspan><tspan x="-98.64" y="234">s about </tspan><tspan class="cls-54" x="-38.85" y="234">f</tspan><tspan class="cls-65" x="-33.2" y="234">r</tspan><tspan x="-27.14" y="234">eedom — the </tspan><tspan class="cls-54" x="75.14" y="234">f</tspan><tspan class="cls-65" x="80.8" y="234">r</tspan><tspan x="86.86" y="234">eedom </tspan><tspan class="cls-70" x="143.63" y="234">t</tspan><tspan x="149.96" y="234">o </tspan><tspan class="cls-69" x="163.52" y="234">w</tspan><tspan x="176.09" y="234">ork a</tspan><tspan class="cls-70" x="213.02" y="234">n</tspan><tspan x="222.56" y="234">ywhe</tspan><tspan class="cls-65" x="262.26" y="234">r</tspan><tspan class="cls-72" x="268.32" y="234">e</tspan><tspan x="277.38" y="234">, li</tspan><tspan class="cls-69" x="293.64" y="234">v</tspan><tspan x="301.88" y="234">e </tspan><tspan class="cls-70" x="314.47" y="234">e</tspan><tspan class="cls-67" x="323.59" y="234">v</tspan><tspan x="331.83" y="234">e</tspan><tspan class="cls-79" x="341.01" y="234">r</tspan><tspan x="347.43" y="234">ywhe</tspan><tspan class="cls-65" x="387.13" y="234">r</tspan><tspan class="cls-72" x="393.19" y="234">e</tspan><tspan x="402.25" y="234">, and s</tspan><tspan class="cls-54" x="449.62" y="234">ta</tspan><tspan x="464.58" y="234">y g</tspan><tspan class="cls-83" x="486.33" y="234">r</tspan><tspan x="492.38" y="234">ounded while chasing the </tspan><tspan class="cls-67" x="690.35" y="234">w</tspan><tspan x="702.92" y="234">orld ahead.</tspan><tspan class="cls-66" x="1.48" y="270">T</tspan><tspan class="cls-73" x="9.94" y="270">r</tspan><tspan x="16.06" y="270">ade with purpos</tspan><tspan class="cls-72" x="138.78" y="270">e</tspan><tspan x="147.84" y="270">. </tspan><tspan class="cls-66" x="155.19" y="270">T</tspan><tspan class="cls-54" x="163.65" y="270">ra</tspan><tspan class="cls-69" x="178.37" y="270">v</tspan><tspan x="186.6" y="270">el with meaning. Li</tspan><tspan class="cls-69" x="326.64" y="270">v</tspan><tspan x="334.87" y="270">e with balanc</tspan><tspan class="cls-75" x="434.79" y="270">e</tspan><tspan x="443.85" y="270">.</tspan><tspan x="-110.24" y="306">This is the uni</tspan><tspan class="cls-70" x="-7.34" y="306">f</tspan><tspan x="-1.72" y="306">orm of the n</tspan><tspan class="cls-71" x="89.94" y="306">e</tspan><tspan x="99.06" y="306">w gene</tspan><tspan class="cls-54" x="153.28" y="306">r</tspan><tspan x="159.4" y="306">ation — the ones </tspan><tspan class="cls-65" x="288.08" y="306">r</tspan><tspan x="294.14" y="306">edefining success b</tspan><tspan class="cls-70" x="444.8" y="306">e</tspan><tspan class="cls-69" x="453.92" y="306">y</tspan><tspan x="461.98" y="306">ond bo</tspan><tspan class="cls-65" x="515.95" y="306">r</tspan><tspan x="522.01" y="306">der</tspan><tspan class="cls-67" x="547.67" y="306">s</tspan><tspan x="555.56" y="306">.</tspan><tspan x="224.63" y="324"></tspan><tspan x="224.63" y="342"></tspan></tspan><tspan class="cls-84" x="136.03" y="360">W</tspan><tspan x="151.72" y="360">elcome </tspan><tspan class="cls-54" x="212.44" y="360">t</tspan><tspan x="218.92" y="360">o </tspan><tspan class="cls-85" x="232.28" y="360">T</tspan><tspan class="cls-61" x="241.05" y="360">r</tspan><tspan x="247.32" y="360">ad</tspan><tspan class="cls-86" x="266.78" y="360">v</tspan><tspan x="275.54" y="360">elle</tspan><tspan class="cls-87" x="303.71" y="360">r</tspan><tspan x="309.14" y="360">.</tspan><tspan class="cls-64"><tspan x="224.63" y="378"></tspan><tspan class="cls-88" x="132.72" y="396">Y</tspan><tspan x="141.66" y="396">our journ</tspan><tspan class="cls-71" x="210.85" y="396">e</tspan><tspan x="219.97" y="396">y s</tspan><tspan class="cls-73" x="239.63" y="396">t</tspan><tspan x="246" y="396">a</tspan><tspan class="cls-89" x="254.62" y="396">r</tspan><tspan class="cls-70" x="260.92" y="396">t</tspan><tspan x="267.25" y="396">s he</tspan><tspan class="cls-65" x="297.49" y="396">r</tspan><tspan class="cls-72" x="303.55" y="396">e</tspan><tspan x="312.61" y="396">.</tspan></tspan></text></g><g id="Layer_4" data-name="Layer 4"><g class="cls-90"><use transform="translate(600.67 -2719.22) scale(3.2)" xlink:href="#image-2"></use></g></g></svg>