<svg xmlns="http://www.w3.org/2000/svg" xmlns:xlink="http://www.w3.org/1999/xlink" viewBox="0 0 1920 2331.08"><defs><clipPath id="clip-path"><rect class="cls-1" x="109.3" y="171.9" width="875.28" height="505.59" rx="27.63"></rect></clipPath><clipPath id="clip-path-2"><rect class="cls-1" x="1123.06" y="171.9" width="325.28" height="400.49" rx="18.41"></rect></clipPath><clipPath id="clip-path-3"><rect class="cls-1" x="1481.98" y="171.9" width="325.02" height="400.49" rx="18.41"></rect></clipPath><clipPath id="clip-path-4"><rect class="cls-1" x="117.39" y="1199.68" width="232.65" height="267.79" rx="6.63"></rect></clipPath><clipPath id="clip-path-5"><rect class="cls-1" x="361.99" y="1199.68" width="232.65" height="267.79" rx="6.63"></rect></clipPath><clipPath id="clip-path-6"><rect class="cls-1" x="606.6" y="1199.68" width="232.65" height="267.79" rx="6.63"></rect></clipPath><clipPath id="clip-path-7"><rect class="cls-1" x="851.2" y="1199.68" width="232.65" height="267.79" rx="6.63"></rect></clipPath><clipPath id="clip-path-8"><rect class="cls-1" x="2116.23" y="171.92" width="875.28" height="505.59" rx="27.63"></rect></clipPath><clipPath id="clip-path-9"><rect class="cls-1" x="3129.99" y="171.92" width="325.28" height="400.49" rx="18.41"></rect></clipPath><clipPath id="clip-path-10"><rect class="cls-2" x="3488.91" y="171.92" width="325.02" height="400.49" rx="18.41"></rect></clipPath><image id="image" width="1264" height="1058"></image><image id="image-2" width="6702" height="2084"></image></defs><title>Tradveller_Merch Landing Page</title><g id="Layer_2" data-name="Layer 2"><rect class="cls-3" x="-0.04" y="-0.02" width="1920.04" height="2331.1"></rect><rect x="-0.04" y="-0.02" width="1920" height="65.68"></rect><text class="cls-4" transform="translate(796.8 36.68)">WE TRADE &amp; WE TR<tspan class="cls-5" x="173.18" y="0">A</tspan><tspan class="cls-6" x="186.03" y="0">VEL</tspan></text><g class="cls-7"><use transform="translate(-849.24 28.01) scale(1.46)" xlink:href="#image"></use></g><text class="cls-8" transform="translate(107.6 742.31)">TRA<tspan class="cls-9" x="85.2" y="0">D</tspan><tspan x="115.96" y="0">VELLER</tspan><tspan x="0" y="48">GRAPHIC </tspan><tspan class="cls-9" x="206.16" y="48">O</tspan><tspan x="240.24" y="48">VE</tspan><tspan class="cls-10" x="293.6" y="48">R</tspan><tspan x="322.56" y="48">SIZE T</tspan></text><g class="cls-11"><use transform="translate(-1406.26 -247.75) scale(3.2)" xlink:href="#image"></use></g><g class="cls-12"><use transform="translate(-444.37 -109.59) scale(1.87)" xlink:href="#image"></use></g><line class="cls-13" x1="115.12" y1="839.12" x2="960.46" y2="839.12"></line><text class="cls-14" transform="translate(115.12 898.4)">Specification</text><text class="cls-14" transform="translate(115.12 947.93)">Ma<tspan class="cls-15" x="26.53" y="0">t</tspan><tspan x="34.02" y="0">erials</tspan></text><text class="cls-14" transform="translate(115.12 998.55)">Shipping In<tspan class="cls-15" x="104.04" y="0">f</tspan><tspan x="110.7" y="0">o</tspan></text><text class="cls-16" transform="translate(115.12 1175.14)"><tspan class="cls-17">Y</tspan><tspan class="cls-18" x="11.96" y="0">ou M</tspan><tspan class="cls-19" x="61.38" y="0">a</tspan><tspan class="cls-20" x="72.92" y="0">y </tspan><tspan class="cls-21" x="88.46" y="0">A</tspan><tspan x="103.64" y="0">lso Li</tspan><tspan class="cls-22" x="155.74" y="0">k</tspan><tspan class="cls-23" x="167.34" y="0">e</tspan><tspan x="179.5" y="0">.</tspan></text><polyline class="cls-24" points="905.22 888.65 911.59 895.02 918.04 888.57"></polyline><polyline class="cls-24" points="905.22 938.35 911.59 944.72 918.04 938.26"></polyline><polyline class="cls-24" points="905.22 988.04 911.59 994.41 918.04 987.96"></polyline><g class="cls-25"><image width="4512" height="3010" transform="translate(28.29 1196.53) scale(0.09)"></image></g><g class="cls-26"><image width="5182" height="3455" transform="translate(207.21 1198.63) scale(0.08)"></image></g><g class="cls-27"><image width="4160" height="6240" transform="translate(552.7 1094.78) scale(0.08)"></image></g><g class="cls-28"><image width="736" height="1104" transform="translate(837.34 1124.84) scale(0.34)"></image></g><text class="cls-29" transform="translate(120.74 1494.43)"><tspan class="cls-30">T</tspan><tspan class="cls-31" x="8.38" y="0">r</tspan><tspan x="14.43" y="0">ad</tspan><tspan class="cls-32" x="33.15" y="0">v</tspan><tspan x="41.39" y="0">eller </tspan><tspan class="cls-33" x="77.5" y="0">T</tspan><tspan class="cls-34" x="85.47" y="0">-</tspan><tspan x="92.77" y="0">Shi</tspan><tspan class="cls-35" x="116.89" y="0">r</tspan><tspan class="cls-36" x="123.13" y="0">t</tspan></text><text class="cls-37" transform="translate(121.7 1515.09)">RM 60</text><circle cx="332.06" cy="1501.16" r="17.74"></circle><path class="cls-38" d="M328,1496.59l-.72-3h-4v1.88h2.56l2.19,9h10.3v-7.91Zm8.41,6h-6.94l-1-4.15h8Z"></path><circle class="cls-38" cx="329.76" cy="1506.84" r="1.88"></circle><circle class="cls-38" cx="336.34" cy="1506.84" r="1.88"></circle><text class="cls-29" transform="translate(365.79 1494.43)"><tspan class="cls-30">T</tspan><tspan class="cls-31" x="8.38" y="0">r</tspan><tspan x="14.43" y="0">ad</tspan><tspan class="cls-32" x="33.15" y="0">v</tspan><tspan x="41.39" y="0">eller Jac</tspan><tspan class="cls-39" x="104.37" y="0">k</tspan><tspan x="112.88" y="0">e</tspan><tspan class="cls-40" x="121.93" y="0">t</tspan><tspan x="128.17" y="0">s</tspan></text><text class="cls-37" transform="translate(367.12 1515.09)">RM 120</text><circle cx="576.9" cy="1501.16" r="17.74"></circle><path class="cls-38" d="M572.84,1496.59l-.73-3h-4v1.88h2.56l2.19,9h10.3v-7.91Zm8.41,6h-6.94l-1-4.15h8Z"></path><circle class="cls-38" cx="574.6" cy="1506.84" r="1.88"></circle><circle class="cls-38" cx="581.18" cy="1506.84" r="1.88"></circle><text class="cls-29" transform="translate(610.01 1494.43)"><tspan class="cls-30">T</tspan><tspan class="cls-31" x="8.38" y="0">r</tspan><tspan x="14.43" y="0">ad</tspan><tspan class="cls-32" x="33.15" y="0">v</tspan><tspan x="41.39" y="0">eller Cap</tspan></text><text class="cls-37" transform="translate(610.98 1515.09)">RM 50</text><text class="cls-29" transform="translate(854.7 1494.43)"><tspan class="cls-30">T</tspan><tspan class="cls-31" x="8.38" y="0">r</tspan><tspan x="14.43" y="0">ad</tspan><tspan class="cls-32" x="33.15" y="0">v</tspan><tspan x="41.39" y="0">eller </tspan><tspan class="cls-41" x="77.5" y="0">A</tspan><tspan x="88.63" y="0">ccessories</tspan></text><text class="cls-37" transform="translate(855.67 1515.09)">RM 30</text><circle cx="1066.11" cy="1501.16" r="17.74"></circle><path class="cls-38" d="M1062,1496.59l-.72-3h-4v1.88h2.55l2.2,9h10.29v-7.91Zm8.41,6h-6.94l-1-4.15h8Z"></path><circle class="cls-38" cx="1063.8" cy="1506.84" r="1.88"></circle><circle class="cls-38" cx="1070.39" cy="1506.84" r="1.88"></circle><path class="cls-42" d="M128.46,1526.14l1.32,4.07a.53.53,0,0,0,.5.37h4.28a.53.53,0,0,1,.31,1l-3.46,2.51a.52.52,0,0,0-.19.59l1.32,4.07a.53.53,0,0,1-.82.59l-3.46-2.51a.51.51,0,0,0-.62,0l-3.46,2.51a.53.53,0,0,1-.81-.59l1.32-4.07a.53.53,0,0,0-.2-.59l-3.46-2.51a.53.53,0,0,1,.32-1h4.27a.54.54,0,0,0,.51-.37l1.32-4.07A.53.53,0,0,1,128.46,1526.14Z"></path><path class="cls-42" d="M148,1525.77l1.47,4.53a.41.41,0,0,0,.39.28h4.76a.4.4,0,0,1,.24.72l-3.86,2.81a.38.38,0,0,0-.14.44l1.47,4.54a.4.4,0,0,1-.62.44l-3.85-2.8a.41.41,0,0,0-.47,0l-3.86,2.8a.4.4,0,0,1-.62-.44l1.48-4.54a.4.4,0,0,0-.15-.44l-3.86-2.81a.4.4,0,0,1,.24-.72h4.77a.41.41,0,0,0,.38-.28l1.47-4.53A.4.4,0,0,1,148,1525.77Z"></path><path class="cls-42" d="M167.71,1525.77l1.47,4.53a.41.41,0,0,0,.39.28h4.76a.4.4,0,0,1,.24.72l-3.86,2.81a.38.38,0,0,0-.14.44l1.47,4.54a.4.4,0,0,1-.62.44l-3.85-2.8a.42.42,0,0,0-.48,0l-3.85,2.8a.4.4,0,0,1-.62-.44l1.47-4.54a.38.38,0,0,0-.14-.44l-3.86-2.81a.4.4,0,0,1,.24-.72h4.76a.41.41,0,0,0,.39-.28l1.47-4.53A.4.4,0,0,1,167.71,1525.77Z"></path><path class="cls-42" d="M187.4,1525.77l1.47,4.53a.41.41,0,0,0,.38.28H194a.4.4,0,0,1,.24.72l-3.86,2.81a.38.38,0,0,0-.14.44l1.47,4.54a.4.4,0,0,1-.62.44l-3.85-2.8a.42.42,0,0,0-.48,0l-3.85,2.8a.4.4,0,0,1-.62-.44l1.47-4.54a.38.38,0,0,0-.14-.44l-3.86-2.81a.4.4,0,0,1,.24-.72h4.76a.41.41,0,0,0,.39-.28l1.47-4.53A.4.4,0,0,1,187.4,1525.77Z"></path><path class="cls-42" d="M207.09,1525.77l1.47,4.53a.41.41,0,0,0,.38.28h4.77a.4.4,0,0,1,.24.72l-3.86,2.81a.4.4,0,0,0-.15.44l1.48,4.54a.4.4,0,0,1-.62.44l-3.86-2.8a.41.41,0,0,0-.47,0l-3.85,2.8a.4.4,0,0,1-.62-.44l1.47-4.54a.38.38,0,0,0-.14-.44l-3.86-2.81a.4.4,0,0,1,.24-.72h4.76a.39.39,0,0,0,.38-.28l1.48-4.53A.4.4,0,0,1,207.09,1525.77Z"></path><path class="cls-42" d="M370.61,1525.77l1.47,4.53a.41.41,0,0,0,.39.28h4.76a.4.4,0,0,1,.24.72l-3.86,2.81a.38.38,0,0,0-.14.44l1.47,4.54a.4.4,0,0,1-.62.45l-3.85-2.81a.41.41,0,0,0-.47,0l-3.86,2.81a.4.4,0,0,1-.62-.45l1.47-4.54a.38.38,0,0,0-.14-.44L363,1531.3a.4.4,0,0,1,.24-.72H368a.41.41,0,0,0,.38-.28l1.47-4.53A.4.4,0,0,1,370.61,1525.77Z"></path><path class="cls-42" d="M390.3,1525.77l1.47,4.53a.41.41,0,0,0,.38.28h4.77a.4.4,0,0,1,.24.72l-3.86,2.81a.38.38,0,0,0-.14.44l1.47,4.54a.4.4,0,0,1-.62.45l-3.86-2.81a.41.41,0,0,0-.47,0l-3.85,2.81a.4.4,0,0,1-.62-.45l1.47-4.54a.38.38,0,0,0-.14-.44l-3.86-2.81a.4.4,0,0,1,.24-.72h4.76a.41.41,0,0,0,.39-.28l1.47-4.53A.4.4,0,0,1,390.3,1525.77Z"></path><path class="cls-42" d="M410,1525.77l1.47,4.53a.41.41,0,0,0,.38.28h4.77a.4.4,0,0,1,.24.72l-3.86,2.81a.4.4,0,0,0-.15.44l1.48,4.54a.4.4,0,0,1-.62.45l-3.86-2.81a.41.41,0,0,0-.47,0l-3.85,2.81a.4.4,0,0,1-.62-.45l1.47-4.54a.38.38,0,0,0-.14-.44l-3.86-2.81a.4.4,0,0,1,.23-.72h4.77a.39.39,0,0,0,.38-.28l1.48-4.53A.4.4,0,0,1,410,1525.77Z"></path><path class="cls-42" d="M429.68,1525.77l1.47,4.53a.41.41,0,0,0,.38.28h4.77a.4.4,0,0,1,.24.72l-3.86,2.81a.4.4,0,0,0-.15.44l1.48,4.54a.4.4,0,0,1-.62.45l-3.86-2.81a.41.41,0,0,0-.47,0l-3.86,2.81a.4.4,0,0,1-.61-.45l1.47-4.54a.38.38,0,0,0-.14-.44l-3.86-2.81a.4.4,0,0,1,.23-.72h4.77a.39.39,0,0,0,.38-.28l1.48-4.53A.4.4,0,0,1,429.68,1525.77Z"></path><path class="cls-42" d="M449.37,1525.77l1.47,4.53a.41.41,0,0,0,.38.28H456a.4.4,0,0,1,.24.72l-3.86,2.81a.4.4,0,0,0-.15.44l1.48,4.54a.4.4,0,0,1-.62.45l-3.86-2.81a.41.41,0,0,0-.47,0l-3.86,2.81a.4.4,0,0,1-.61-.45l1.47-4.54a.38.38,0,0,0-.14-.44l-3.86-2.81a.4.4,0,0,1,.23-.72h4.77a.39.39,0,0,0,.38-.28l1.48-4.53A.4.4,0,0,1,449.37,1525.77Z"></path><path class="cls-42" d="M617.77,1525.77l1.48,4.53a.4.4,0,0,0,.38.28h4.77a.4.4,0,0,1,.23.72l-3.86,2.81a.39.39,0,0,0-.14.44l1.47,4.54a.4.4,0,0,1-.61.45l-3.86-2.81a.41.41,0,0,0-.47,0l-3.86,2.81a.4.4,0,0,1-.62-.45l1.48-4.54a.4.4,0,0,0-.15-.44l-3.86-2.81a.4.4,0,0,1,.24-.72h4.77a.4.4,0,0,0,.38-.28l1.47-4.53A.4.4,0,0,1,617.77,1525.77Z"></path><path class="cls-42" d="M637.46,1525.77l1.48,4.53a.39.39,0,0,0,.38.28h4.77a.4.4,0,0,1,.23.72l-3.86,2.81a.39.39,0,0,0-.14.44l1.47,4.54a.4.4,0,0,1-.61.45l-3.86-2.81a.41.41,0,0,0-.47,0l-3.86,2.81a.4.4,0,0,1-.62-.45l1.48-4.54a.4.4,0,0,0-.15-.44l-3.86-2.81a.4.4,0,0,1,.24-.72h4.77a.4.4,0,0,0,.38-.28l1.47-4.53A.4.4,0,0,1,637.46,1525.77Z"></path><path class="cls-42" d="M657.15,1525.77l1.48,4.53a.39.39,0,0,0,.38.28h4.77a.4.4,0,0,1,.23.72l-3.86,2.81a.38.38,0,0,0-.14.44l1.47,4.54a.4.4,0,0,1-.61.45l-3.86-2.81a.41.41,0,0,0-.47,0l-3.86,2.81a.4.4,0,0,1-.62-.45l1.48-4.54a.4.4,0,0,0-.15-.44l-3.86-2.81a.4.4,0,0,1,.24-.72h4.77a.41.41,0,0,0,.38-.28l1.47-4.53A.4.4,0,0,1,657.15,1525.77Z"></path><path class="cls-42" d="M676.84,1525.77l1.48,4.53a.39.39,0,0,0,.38.28h4.77a.4.4,0,0,1,.23.72l-3.86,2.81a.38.38,0,0,0-.14.44l1.47,4.54a.4.4,0,0,1-.61.45l-3.86-2.81a.41.41,0,0,0-.47,0l-3.86,2.81a.4.4,0,0,1-.62-.45l1.48-4.54a.4.4,0,0,0-.15-.44l-3.86-2.81a.4.4,0,0,1,.24-.72h4.77a.41.41,0,0,0,.38-.28l1.47-4.53A.4.4,0,0,1,676.84,1525.77Z"></path><path class="cls-42" d="M696.53,1525.77l1.48,4.53a.39.39,0,0,0,.38.28h4.77a.4.4,0,0,1,.23.72l-3.86,2.81a.38.38,0,0,0-.14.44l1.47,4.54a.4.4,0,0,1-.62.45l-3.85-2.81a.41.41,0,0,0-.47,0l-3.86,2.81a.4.4,0,0,1-.62-.45l1.48-4.54a.4.4,0,0,0-.15-.44l-3.86-2.81a.4.4,0,0,1,.24-.72h4.77a.41.41,0,0,0,.38-.28l1.47-4.53A.4.4,0,0,1,696.53,1525.77Z"></path><path class="cls-42" d="M862.38,1525.77l1.47,4.53a.4.4,0,0,0,.38.28H869a.4.4,0,0,1,.24.72l-3.86,2.81a.4.4,0,0,0-.15.44l1.48,4.54a.4.4,0,0,1-.62.45l-3.86-2.81a.41.41,0,0,0-.47,0l-3.86,2.81a.4.4,0,0,1-.61-.45l1.47-4.54a.38.38,0,0,0-.14-.44l-3.86-2.81a.4.4,0,0,1,.23-.72h4.77a.39.39,0,0,0,.38-.28l1.48-4.53A.4.4,0,0,1,862.38,1525.77Z"></path><path class="cls-42" d="M882.07,1525.77l1.47,4.53a.4.4,0,0,0,.38.28h4.77a.4.4,0,0,1,.24.72l-3.86,2.81a.4.4,0,0,0-.15.44l1.48,4.54a.4.4,0,0,1-.62.45l-3.86-2.81a.41.41,0,0,0-.47,0l-3.86,2.81a.4.4,0,0,1-.61-.45l1.47-4.54a.39.39,0,0,0-.14-.44l-3.86-2.81a.4.4,0,0,1,.23-.72h4.77a.4.4,0,0,0,.38-.28l1.48-4.53A.4.4,0,0,1,882.07,1525.77Z"></path><path class="cls-42" d="M901.76,1525.77l1.47,4.53a.4.4,0,0,0,.38.28h4.77a.4.4,0,0,1,.23.72l-3.85,2.81a.4.4,0,0,0-.15.44l1.47,4.54a.4.4,0,0,1-.61.45l-3.86-2.81a.41.41,0,0,0-.47,0l-3.86,2.81a.4.4,0,0,1-.61-.45l1.47-4.54a.4.4,0,0,0-.15-.44l-3.85-2.81a.4.4,0,0,1,.23-.72h4.77a.4.4,0,0,0,.38-.28l1.48-4.53A.4.4,0,0,1,901.76,1525.77Z"></path><path class="cls-42" d="M921.45,1525.77l1.47,4.53a.4.4,0,0,0,.38.28h4.77a.4.4,0,0,1,.23.72l-3.85,2.81a.4.4,0,0,0-.15.44l1.47,4.54a.4.4,0,0,1-.61.45l-3.86-2.81a.41.41,0,0,0-.47,0l-3.86,2.81a.4.4,0,0,1-.61-.45l1.47-4.54a.4.4,0,0,0-.15-.44l-3.85-2.81a.4.4,0,0,1,.23-.72h4.77a.4.4,0,0,0,.38-.28l1.47-4.53A.41.41,0,0,1,921.45,1525.77Z"></path><path class="cls-42" d="M941.13,1525.77l1.48,4.53a.4.4,0,0,0,.38.28h4.77a.4.4,0,0,1,.23.72l-3.86,2.81a.39.39,0,0,0-.14.44l1.47,4.54a.4.4,0,0,1-.61.45l-3.86-2.81a.41.41,0,0,0-.47,0l-3.86,2.81a.4.4,0,0,1-.62-.45l1.48-4.54a.4.4,0,0,0-.15-.44l-3.86-2.81a.4.4,0,0,1,.24-.72h4.77a.4.4,0,0,0,.38-.28l1.47-4.53A.4.4,0,0,1,941.13,1525.77Z"></path><circle cx="821.5" cy="1501.16" r="17.74"></circle><path class="cls-38" d="M817.44,1496.59l-.72-3h-4v1.88h2.55l2.19,9h10.3v-7.91Zm8.41,6h-6.94l-1-4.15h8Z"></path><circle class="cls-38" cx="819.2" cy="1506.84" r="1.88"></circle><circle class="cls-38" cx="825.78" cy="1506.84" r="1.88"></circle><rect x="-0.04" y="2001.98" width="1921" height="329.1"></rect><text class="cls-43" transform="translate(1627.54 2098.21)"><tspan class="cls-44">F</tspan><tspan x="14.43" y="0">oll</tspan><tspan class="cls-45" x="48.37" y="0">o</tspan><tspan x="65.93" y="0">w us</tspan></text><text class="cls-43" transform="translate(1316.6 2098.21)">N<tspan class="cls-46" x="22.83" y="0">a</tspan><tspan x="38.12" y="0">viga</tspan><tspan class="cls-47" x="95.52" y="0">t</tspan><tspan class="cls-48" x="106.79" y="0">e </tspan><tspan class="cls-46" x="128.8" y="0">P</tspan><tspan x="145.94" y="0">ages</tspan></text><use transform="translate(107.6 2026.65) scale(0.06)" xlink:href="#image-2"></use><path class="cls-38" d="M1637.64,2151.21v-10.53h-1.79v-3.13h1.79V2137a6.25,6.25,0,0,1,1.73-4.59,5.56,5.56,0,0,1,3.77-1.37,8.39,8.39,0,0,1,2.26.28l-.16,3.27a4.71,4.71,0,0,0-1.37-.19c-1.4,0-2,1.09-2,2.43v.7h2.74v3.13h-2.71v10.53Z"></path><path class="cls-38" d="M1645.9,2183.61a1.19,1.19,0,1,0,1.18,1.19A1.19,1.19,0,0,0,1645.9,2183.61Z"></path><path class="cls-38" d="M1640.63,2185a5.07,5.07,0,1,0,5.07,5.07A5.07,5.07,0,0,0,1640.63,2185Zm0,8.36a3.29,3.29,0,1,1,3.29-3.29A3.29,3.29,0,0,1,1640.63,2193.36Z"></path><path class="cls-38" d="M1650.44,2186a7.18,7.18,0,0,0-.46-2.4,5.06,5.06,0,0,0-2.89-2.89,7.32,7.32,0,0,0-2.39-.46c-1.06-.05-1.39-.06-4.07-.06s-3,0-4.08.06a7.38,7.38,0,0,0-2.39.46,5.06,5.06,0,0,0-2.89,2.89,7.44,7.44,0,0,0-.46,2.4c0,1.05-.06,1.39-.06,4.07s0,3,.06,4.07a7.44,7.44,0,0,0,.46,2.4,5.08,5.08,0,0,0,2.89,2.88,7.12,7.12,0,0,0,2.39.46c1.06,0,1.39.06,4.08.06s3,0,4.07-.06a7.07,7.07,0,0,0,2.39-.46,5.08,5.08,0,0,0,2.89-2.88,7.18,7.18,0,0,0,.46-2.4c0-1,.06-1.39.06-4.07S1650.49,2187.05,1650.44,2186Zm-1.78,8.06a5.25,5.25,0,0,1-.34,1.83,3.08,3.08,0,0,1-.74,1.14,2.94,2.94,0,0,1-1.13.73,5.43,5.43,0,0,1-1.83.35c-1,0-1.36,0-4,0s-3,0-4,0a5.45,5.45,0,0,1-1.84-.35,2.94,2.94,0,0,1-1.13-.73,3.08,3.08,0,0,1-.74-1.14,5.25,5.25,0,0,1-.34-1.83c0-1-.06-1.36-.06-4s0-3,.06-4a5.26,5.26,0,0,1,.34-1.84,3.31,3.31,0,0,1,1.87-1.87,5.26,5.26,0,0,1,1.84-.34c1-.05,1.35-.06,4-.06s2.94,0,4,.06a5.25,5.25,0,0,1,1.83.34,3.31,3.31,0,0,1,1.87,1.87,5.26,5.26,0,0,1,.34,1.84c0,1,.06,1.35.06,4S1648.71,2193,1648.66,2194.06Z"></path><text class="cls-49" transform="translate(141.2 2199.38)">@2022</text><text class="cls-49" transform="translate(141.2 2222.4)"><tspan class="cls-50">A</tspan><tspan x="10.5" y="0">ll righ</tspan><tspan class="cls-51" x="50.16" y="0">t</tspan><tspan x="56.07" y="0">s </tspan><tspan class="cls-52" x="66.77" y="0">r</tspan><tspan x="72.42" y="0">ese</tspan><tspan class="cls-53" x="97.06" y="0">r</tspan><tspan class="cls-54" x="103.05" y="0">v</tspan><tspan class="cls-55" x="110.74" y="0">ed</tspan></text><text class="cls-56" transform="translate(1668.94 2149.33)"><tspan class="cls-57">T</tspan><tspan class="cls-58" x="8.39" y="0">r</tspan><tspan x="14.4" y="0">ad</tspan><tspan class="cls-59" x="33.2" y="0">v</tspan><tspan x="41.27" y="0">eller </tspan><tspan class="cls-57" x="77.29" y="0">T</tspan><tspan class="cls-60" x="85.68" y="0">r</tspan><tspan x="91.62" y="0">end</tspan></text><text class="cls-56" transform="translate(1668.94 2196.31)"><tspan class="cls-57">T</tspan><tspan class="cls-58" x="8.39" y="0">r</tspan><tspan x="14.4" y="0">ad</tspan><tspan class="cls-59" x="33.2" y="0">v</tspan><tspan x="41.27" y="0">eller </tspan><tspan class="cls-57" x="77.29" y="0">T</tspan><tspan class="cls-60" x="85.68" y="0">r</tspan><tspan x="91.62" y="0">end</tspan></text><text class="cls-56" transform="translate(1320.18 2149.33)">HOME</text><text class="cls-56" transform="translate(1320.18 2196.31)">OUR <tspan class="cls-61" x="38.73" y="0">S</tspan><tspan class="cls-62" x="48.92" y="0">T</tspan><tspan x="57.39" y="0">O</tspan><tspan class="cls-63" x="70.39" y="0">R</tspan><tspan x="80.35" y="0">Y</tspan></text><text class="cls-56" transform="translate(1320.18 2243.46)">OUR P<tspan class="cls-64" x="48.18" y="0">R</tspan><tspan x="58.29" y="0">ODU</tspan><tspan class="cls-65" x="95.14" y="0">C</tspan><tspan class="cls-62" x="107.01" y="0">T</tspan><tspan x="115.48" y="0">S</tspan></text><line class="cls-13" x1="0.96" y1="2001.98" x2="1920.96" y2="2001.98"></line><use transform="translate(60.67 70.65) scale(0.04)" xlink:href="#image-2"></use><text class="cls-66" transform="translate(380.4 116.07)"><tspan class="cls-67">T</tspan><tspan class="cls-68" x="9.47" y="0">-</tspan><tspan class="cls-69" x="18.2" y="0">SHI</tspan><tspan class="cls-70" x="50.12" y="0">R</tspan><tspan x="62.2" y="0">T</tspan></text><text class="cls-66" transform="translate(508.12 116.07)"><tspan class="cls-71">J</tspan><tspan class="cls-72" x="10.71" y="0">A</tspan><tspan x="23.66" y="0">CKET</tspan></text><text class="cls-73" transform="translate(642.14 116.07)">C<tspan class="cls-74" x="13.94" y="0">AP</tspan></text><text class="cls-66" transform="translate(744.8 116.07)"><tspan class="cls-72">A</tspan><tspan x="12.95" y="0">CC</tspan><tspan class="cls-75" x="41.04" y="0">E</tspan><tspan class="cls-69" x="51.5" y="0">SSORI</tspan><tspan class="cls-76" x="109.04" y="0">E</tspan><tspan x="119.5" y="0">S</tspan></text><text class="cls-66" transform="translate(932.33 116.07)">OUR <tspan class="cls-77" x="45.62" y="0">S</tspan><tspan class="cls-78" x="57.47" y="0">T</tspan><tspan x="67.58" y="0">O</tspan><tspan class="cls-79" x="82.86" y="0">R</tspan><tspan x="94.76" y="0">Y</tspan></text><path class="cls-42" d="M446.54,1638.93l.73,2.25a.39.39,0,0,0,.38.28H450a.4.4,0,0,1,.24.72l-1.91,1.39a.4.4,0,0,0-.15.45l.73,2.25a.4.4,0,0,1-.61.45l-1.92-1.39a.41.41,0,0,0-.47,0l-1.91,1.39a.4.4,0,0,1-.62-.45l.73-2.25a.4.4,0,0,0-.14-.45l-1.92-1.39a.4.4,0,0,1,.24-.72h2.36a.39.39,0,0,0,.38-.28l.74-2.25A.4.4,0,0,1,446.54,1638.93Z"></path><path class="cls-42" d="M458.7,1638.93l.74,2.25a.39.39,0,0,0,.38.28h2.36a.4.4,0,0,1,.24.72l-1.92,1.39a.4.4,0,0,0-.14.45l.73,2.25a.4.4,0,0,1-.62.45l-1.91-1.39a.41.41,0,0,0-.47,0l-1.92,1.39a.4.4,0,0,1-.61-.45l.73-2.25a.41.41,0,0,0-.14-.45l-1.92-1.39a.4.4,0,0,1,.24-.72h2.36a.39.39,0,0,0,.38-.28l.73-2.25A.4.4,0,0,1,458.7,1638.93Z"></path><path class="cls-42" d="M470.87,1638.93l.73,2.25a.41.41,0,0,0,.39.28h2.36a.4.4,0,0,1,.24.72l-1.92,1.39a.4.4,0,0,0-.14.45l.73,2.25a.4.4,0,0,1-.62.45l-1.91-1.39a.41.41,0,0,0-.47,0l-1.92,1.39a.4.4,0,0,1-.61-.45l.73-2.25a.42.42,0,0,0-.15-.45l-1.91-1.39a.4.4,0,0,1,.23-.72H469a.4.4,0,0,0,.38-.28l.73-2.25A.4.4,0,0,1,470.87,1638.93Z"></path><path class="cls-42" d="M483,1638.93l.73,2.25a.41.41,0,0,0,.38.28h2.37a.4.4,0,0,1,.24.72l-1.92,1.39a.4.4,0,0,0-.14.45l.73,2.25a.4.4,0,0,1-.62.45l-1.91-1.39a.41.41,0,0,0-.47,0l-1.92,1.39a.4.4,0,0,1-.61-.45l.73-2.25a.42.42,0,0,0-.15-.45l-1.91-1.39a.4.4,0,0,1,.23-.72h2.37a.4.4,0,0,0,.38-.28l.73-2.25A.4.4,0,0,1,483,1638.93Z"></path><path class="cls-42" d="M495.21,1638.93l.73,2.25a.41.41,0,0,0,.38.28h2.37a.4.4,0,0,1,.23.72l-1.91,1.39a.42.42,0,0,0-.15.45l.74,2.25a.4.4,0,0,1-.62.45l-1.91-1.39a.41.41,0,0,0-.47,0l-1.92,1.39a.4.4,0,0,1-.62-.45l.74-2.25a.42.42,0,0,0-.15-.45l-1.91-1.39a.4.4,0,0,1,.23-.72h2.37a.41.41,0,0,0,.38-.28l.73-2.25A.4.4,0,0,1,495.21,1638.93Z"></path><path class="cls-42" d="M130.89,1791.29l.73,2.25a.41.41,0,0,0,.39.27h2.36a.41.41,0,0,1,.24.73l-1.92,1.39a.38.38,0,0,0-.14.44l.73,2.26a.4.4,0,0,1-.62.44l-1.91-1.39a.41.41,0,0,0-.47,0l-1.92,1.39a.4.4,0,0,1-.61-.44l.73-2.26a.4.4,0,0,0-.15-.44l-1.91-1.39a.4.4,0,0,1,.23-.73H129a.4.4,0,0,0,.38-.27l.73-2.25A.4.4,0,0,1,130.89,1791.29Z"></path><path class="cls-42" d="M143.06,1791.29l.73,2.25a.41.41,0,0,0,.38.27h2.37a.41.41,0,0,1,.24.73l-1.92,1.39a.38.38,0,0,0-.14.44l.73,2.26a.4.4,0,0,1-.62.44l-1.91-1.39a.41.41,0,0,0-.47,0l-1.92,1.39a.4.4,0,0,1-.61-.44l.73-2.26a.4.4,0,0,0-.15-.44l-1.91-1.39a.4.4,0,0,1,.23-.73h2.37a.4.4,0,0,0,.38-.27l.73-2.25A.4.4,0,0,1,143.06,1791.29Z"></path><path class="cls-42" d="M155.23,1791.29l.73,2.25a.41.41,0,0,0,.38.27h2.37a.4.4,0,0,1,.23.73l-1.91,1.39a.4.4,0,0,0-.15.44l.74,2.26a.4.4,0,0,1-.62.44l-1.91-1.39a.41.41,0,0,0-.47,0l-1.92,1.39a.4.4,0,0,1-.62-.44l.74-2.26a.4.4,0,0,0-.15-.44l-1.91-1.39a.4.4,0,0,1,.23-.73h2.37a.41.41,0,0,0,.38-.27l.73-2.25A.4.4,0,0,1,155.23,1791.29Z"></path><path class="cls-42" d="M167.4,1791.29l.73,2.25a.4.4,0,0,0,.38.27h2.37a.4.4,0,0,1,.23.73l-1.91,1.39a.4.4,0,0,0-.15.44l.73,2.26a.4.4,0,0,1-.61.44l-1.92-1.39a.41.41,0,0,0-.47,0l-1.91,1.39a.4.4,0,0,1-.62-.44l.73-2.26a.38.38,0,0,0-.14-.44l-1.92-1.39a.41.41,0,0,1,.24-.73h2.37a.41.41,0,0,0,.38-.27l.73-2.25A.4.4,0,0,1,167.4,1791.29Z"></path><path class="cls-42" d="M179.19,1791.73l.63,2a.9.9,0,0,0,.86.62h2.06l-1.67,1.21a.9.9,0,0,0-.32,1l.63,2-1.66-1.21a.86.86,0,0,0-.53-.17.84.84,0,0,0-.53.17l-1.67,1.21.64-2a.9.9,0,0,0-.33-1l-1.66-1.21h2.06a.89.89,0,0,0,.85-.62l.64-2m0-.72a.39.39,0,0,0-.38.28l-.73,2.25a.41.41,0,0,1-.38.27h-2.37a.41.41,0,0,0-.24.73l1.92,1.39a.38.38,0,0,1,.14.44l-.73,2.26a.4.4,0,0,0,.38.52.38.38,0,0,0,.24-.08l1.91-1.39a.4.4,0,0,1,.24-.07.39.39,0,0,1,.23.07l1.92,1.39a.34.34,0,0,0,.23.08.4.4,0,0,0,.38-.52l-.73-2.26a.4.4,0,0,1,.15-.44l1.91-1.39a.4.4,0,0,0-.23-.73h-2.37a.4.4,0,0,1-.38-.27l-.73-2.25a.39.39,0,0,0-.38-.28Z"></path><path class="cls-42" d="M446.54,1656.52l.73,2.25a.39.39,0,0,0,.38.28H450a.4.4,0,0,1,.24.72l-1.91,1.4a.38.38,0,0,0-.15.44l.73,2.25a.4.4,0,0,1-.61.45l-1.92-1.39a.41.41,0,0,0-.47,0l-1.91,1.39a.4.4,0,0,1-.62-.45l.73-2.25a.38.38,0,0,0-.14-.44l-1.92-1.4a.4.4,0,0,1,.24-.72h2.36a.39.39,0,0,0,.38-.28l.74-2.25A.4.4,0,0,1,446.54,1656.52Z"></path><path class="cls-42" d="M458.7,1656.52l.74,2.25a.39.39,0,0,0,.38.28h2.36a.4.4,0,0,1,.24.72l-1.92,1.4a.38.38,0,0,0-.14.44l.73,2.25a.4.4,0,0,1-.62.45l-1.91-1.39a.41.41,0,0,0-.47,0l-1.92,1.39a.4.4,0,0,1-.61-.45l.73-2.25a.39.39,0,0,0-.14-.44l-1.92-1.4a.4.4,0,0,1,.24-.72h2.36a.39.39,0,0,0,.38-.28l.73-2.25A.4.4,0,0,1,458.7,1656.52Z"></path><path class="cls-42" d="M470.87,1656.52l.73,2.25a.41.41,0,0,0,.39.28h2.36a.4.4,0,0,1,.24.72l-1.92,1.4a.38.38,0,0,0-.14.44l.73,2.25a.4.4,0,0,1-.62.45l-1.91-1.39a.41.41,0,0,0-.47,0l-1.92,1.39a.4.4,0,0,1-.61-.45l.73-2.25a.4.4,0,0,0-.15-.44l-1.91-1.4a.4.4,0,0,1,.23-.72H469a.4.4,0,0,0,.38-.28l.73-2.25A.4.4,0,0,1,470.87,1656.52Z"></path><path class="cls-42" d="M483,1656.52l.73,2.25a.41.41,0,0,0,.38.28h2.37a.4.4,0,0,1,.24.72l-1.92,1.4a.38.38,0,0,0-.14.44l.73,2.25a.4.4,0,0,1-.62.45l-1.91-1.39a.41.41,0,0,0-.47,0l-1.92,1.39a.4.4,0,0,1-.61-.45l.73-2.25a.4.4,0,0,0-.15-.44l-1.91-1.4a.4.4,0,0,1,.23-.72h2.37a.4.4,0,0,0,.38-.28l.73-2.25A.4.4,0,0,1,483,1656.52Z"></path><path class="cls-42" d="M494.83,1657l.64,2a.89.89,0,0,0,.85.62h2.06l-1.66,1.21a.9.9,0,0,0-.33,1l.63,2-1.66-1.21a.87.87,0,0,0-1.06,0l-1.66,1.21.63-2a.9.9,0,0,0-.33-1l-1.66-1.21h2.06a.89.89,0,0,0,.85-.62l.64-2m0-.72a.39.39,0,0,0-.38.27l-.73,2.25a.41.41,0,0,1-.38.28H491a.4.4,0,0,0-.23.72l1.91,1.4a.4.4,0,0,1,.15.44l-.74,2.25a.41.41,0,0,0,.39.53.43.43,0,0,0,.23-.08l1.91-1.39a.46.46,0,0,1,.24-.08.43.43,0,0,1,.24.08l1.91,1.39a.43.43,0,0,0,.23.08.41.41,0,0,0,.39-.53l-.74-2.25a.4.4,0,0,1,.15-.44l1.91-1.4a.4.4,0,0,0-.23-.72h-2.37a.41.41,0,0,1-.38-.28l-.73-2.25a.39.39,0,0,0-.38-.27Z"></path><path class="cls-42" d="M180,1665.72l1,3.12a.39.39,0,0,0,.38.27h3.27a.41.41,0,0,1,.24.73l-2.65,1.92a.42.42,0,0,0-.15.45l1,3.12a.4.4,0,0,1-.61.44l-2.65-1.92a.41.41,0,0,0-.47,0l-2.65,1.92a.4.4,0,0,1-.62-.44l1-3.12a.42.42,0,0,0-.15-.45l-2.65-1.92a.41.41,0,0,1,.24-.73h3.27a.4.4,0,0,0,.38-.27l1-3.12A.4.4,0,0,1,180,1665.72Z"></path><path class="cls-42" d="M195,1665.72l1,3.12a.4.4,0,0,0,.38.27h3.27a.41.41,0,0,1,.24.73l-2.65,1.92a.42.42,0,0,0-.15.45l1,3.12a.4.4,0,0,1-.62.44l-2.65-1.92a.41.41,0,0,0-.47,0l-2.65,1.92a.4.4,0,0,1-.61-.44l1-3.12a.42.42,0,0,0-.15-.45l-2.65-1.92a.41.41,0,0,1,.24-.73h3.27a.39.39,0,0,0,.38-.27l1-3.12A.4.4,0,0,1,195,1665.72Z"></path><path class="cls-42" d="M210,1665.72l1,3.12a.4.4,0,0,0,.38.27h3.28a.4.4,0,0,1,.23.73l-2.65,1.92a.4.4,0,0,0-.14.45l1,3.12a.4.4,0,0,1-.62.44l-2.65-1.92a.41.41,0,0,0-.47,0l-2.65,1.92a.4.4,0,0,1-.61-.44l1-3.12a.42.42,0,0,0-.15-.45l-2.65-1.92a.41.41,0,0,1,.24-.73h3.27a.39.39,0,0,0,.38-.27l1-3.12A.4.4,0,0,1,210,1665.72Z"></path><path class="cls-42" d="M225,1665.72l1,3.12a.41.41,0,0,0,.38.27h3.28a.4.4,0,0,1,.23.73l-2.65,1.92a.4.4,0,0,0-.14.45l1,3.12a.4.4,0,0,1-.62.44l-2.65-1.92a.41.41,0,0,0-.47,0l-2.65,1.92a.4.4,0,0,1-.61-.44l1-3.12a.41.41,0,0,0-.14-.45l-2.65-1.92a.4.4,0,0,1,.23-.73h3.28a.41.41,0,0,0,.38-.27l1-3.12A.4.4,0,0,1,225,1665.72Z"></path><path class="cls-42" d="M239.64,1666.17l.92,2.82a.89.89,0,0,0,.85.62h3l-2.4,1.75a.9.9,0,0,0-.33,1l.92,2.82-2.4-1.75a.9.9,0,0,0-.53-.17.93.93,0,0,0-.53.17l-2.4,1.75.92-2.82a.9.9,0,0,0-.33-1l-2.4-1.75h3a.88.88,0,0,0,.85-.62l.92-2.82m0-.72a.39.39,0,0,0-.38.27l-1,3.12a.41.41,0,0,1-.38.27h-3.28a.4.4,0,0,0-.23.73l2.65,1.92a.4.4,0,0,1,.14.45l-1,3.12a.4.4,0,0,0,.38.52.38.38,0,0,0,.24-.08l2.65-1.92a.4.4,0,0,1,.23-.08.43.43,0,0,1,.24.08l2.65,1.92a.34.34,0,0,0,.23.08.4.4,0,0,0,.38-.52l-1-3.12a.41.41,0,0,1,.14-.45l2.65-1.92a.4.4,0,0,0-.23-.73h-3.28a.41.41,0,0,1-.38-.27l-1-3.12a.39.39,0,0,0-.38-.27Z"></path><path class="cls-42" d="M446.54,1674.12l.73,2.25a.39.39,0,0,0,.38.27H450a.41.41,0,0,1,.24.73l-1.91,1.39a.38.38,0,0,0-.15.44l.73,2.26a.4.4,0,0,1-.61.44l-1.92-1.39a.41.41,0,0,0-.47,0L444,1681.9a.4.4,0,0,1-.62-.44l.73-2.26a.38.38,0,0,0-.14-.44l-1.92-1.39a.41.41,0,0,1,.24-.73h2.36a.39.39,0,0,0,.38-.27l.74-2.25A.4.4,0,0,1,446.54,1674.12Z"></path><path class="cls-42" d="M458.7,1674.12l.74,2.25a.39.39,0,0,0,.38.27h2.36a.41.41,0,0,1,.24.73l-1.92,1.39a.38.38,0,0,0-.14.44l.73,2.26a.4.4,0,0,1-.62.44l-1.91-1.39a.41.41,0,0,0-.47,0l-1.92,1.39a.4.4,0,0,1-.61-.44l.73-2.26a.39.39,0,0,0-.14-.44l-1.92-1.39a.41.41,0,0,1,.24-.73h2.36a.39.39,0,0,0,.38-.27l.73-2.25A.4.4,0,0,1,458.7,1674.12Z"></path><path class="cls-42" d="M470.87,1674.12l.73,2.25a.41.41,0,0,0,.39.27h2.36a.41.41,0,0,1,.24.73l-1.92,1.39a.38.38,0,0,0-.14.44l.73,2.26a.4.4,0,0,1-.62.44l-1.91-1.39a.41.41,0,0,0-.47,0l-1.92,1.39a.4.4,0,0,1-.61-.44l.73-2.26a.4.4,0,0,0-.15-.44l-1.91-1.39a.4.4,0,0,1,.23-.73H469a.4.4,0,0,0,.38-.27l.73-2.25A.4.4,0,0,1,470.87,1674.12Z"></path><path class="cls-42" d="M482.66,1674.56l.64,2a.89.89,0,0,0,.85.62h2.06l-1.66,1.21a.9.9,0,0,0-.33,1l.64,2-1.67-1.21a.85.85,0,0,0-.53-.18.87.87,0,0,0-.53.18l-1.66,1.21.63-2a.91.91,0,0,0-.32-1l-1.67-1.21h2.06a.91.91,0,0,0,.86-.62l.63-2m0-.72a.39.39,0,0,0-.38.28l-.73,2.25a.4.4,0,0,1-.38.27H478.8a.4.4,0,0,0-.23.73l1.91,1.39a.4.4,0,0,1,.15.44l-.73,2.25a.4.4,0,0,0,.38.53.34.34,0,0,0,.23-.08l1.92-1.39a.4.4,0,0,1,.23-.08.43.43,0,0,1,.24.08l1.91,1.39a.38.38,0,0,0,.23.08.41.41,0,0,0,.39-.53l-.73-2.25a.38.38,0,0,1,.14-.44l1.92-1.39a.41.41,0,0,0-.24-.73h-2.37a.41.41,0,0,1-.38-.27l-.73-2.25a.39.39,0,0,0-.38-.28Z"></path><path class="cls-42" d="M494.83,1674.56l.64,2a.89.89,0,0,0,.85.62h2.06l-1.66,1.21a.9.9,0,0,0-.33,1l.63,2-1.66-1.21a.87.87,0,0,0-1.06,0l-1.66,1.21.63-2a.9.9,0,0,0-.33-1l-1.66-1.21h2.06a.89.89,0,0,0,.85-.62l.64-2m0-.72a.39.39,0,0,0-.38.28l-.73,2.25a.41.41,0,0,1-.38.27H491a.4.4,0,0,0-.23.73l1.91,1.39a.4.4,0,0,1,.15.44l-.74,2.25a.41.41,0,0,0,.39.53.36.36,0,0,0,.23-.08l1.91-1.39a.46.46,0,0,1,.24-.08.43.43,0,0,1,.24.08l1.91,1.39a.36.36,0,0,0,.23.08.41.41,0,0,0,.39-.53l-.74-2.25a.4.4,0,0,1,.15-.44l1.91-1.39a.4.4,0,0,0-.23-.73h-2.37a.41.41,0,0,1-.38-.27l-.73-2.25a.39.39,0,0,0-.38-.28Z"></path><path class="cls-42" d="M446.54,1691.71l.73,2.25a.39.39,0,0,0,.38.27H450a.41.41,0,0,1,.24.73l-1.91,1.39a.39.39,0,0,0-.15.45l.73,2.25a.39.39,0,0,1-.61.44l-1.92-1.39a.41.41,0,0,0-.47,0l-1.91,1.39a.4.4,0,0,1-.62-.44l.73-2.25a.39.39,0,0,0-.14-.45l-1.92-1.39a.41.41,0,0,1,.24-.73h2.36a.39.39,0,0,0,.38-.27l.74-2.25A.4.4,0,0,1,446.54,1691.71Z"></path><path class="cls-42" d="M458.7,1691.71l.74,2.25a.39.39,0,0,0,.38.27h2.36a.41.41,0,0,1,.24.73l-1.92,1.39a.39.39,0,0,0-.14.45l.73,2.25a.4.4,0,0,1-.62.44l-1.91-1.39a.41.41,0,0,0-.47,0l-1.92,1.39a.39.39,0,0,1-.61-.44l.73-2.25a.4.4,0,0,0-.14-.45l-1.92-1.39a.41.41,0,0,1,.24-.73h2.36a.39.39,0,0,0,.38-.27l.73-2.25A.4.4,0,0,1,458.7,1691.71Z"></path><path class="cls-42" d="M470.49,1692.15l.64,2a.89.89,0,0,0,.86.62H474l-1.66,1.21a.9.9,0,0,0-.33,1l.64,2L471,1697.7a.9.9,0,0,0-.53-.17.93.93,0,0,0-.53.17l-1.66,1.21.63-2a.9.9,0,0,0-.32-1l-1.67-1.21H469a.9.9,0,0,0,.86-.62l.63-2m0-.72a.39.39,0,0,0-.38.28l-.73,2.25a.4.4,0,0,1-.38.27h-2.37a.4.4,0,0,0-.23.73l1.91,1.39a.41.41,0,0,1,.15.45l-.73,2.25a.4.4,0,0,0,.38.52.34.34,0,0,0,.23-.08l1.92-1.39a.39.39,0,0,1,.23-.07.4.4,0,0,1,.24.07l1.91,1.39a.38.38,0,0,0,.24.08.4.4,0,0,0,.38-.52l-.73-2.25a.39.39,0,0,1,.14-.45l1.92-1.39a.41.41,0,0,0-.24-.73H472a.41.41,0,0,1-.39-.27l-.73-2.25a.39.39,0,0,0-.38-.28Z"></path><path class="cls-42" d="M482.66,1692.15l.64,2a.89.89,0,0,0,.85.62h2.06l-1.66,1.21a.9.9,0,0,0-.33,1l.64,2-1.67-1.21a.9.9,0,0,0-.53-.17.93.93,0,0,0-.53.17l-1.66,1.21.63-2a.91.91,0,0,0-.32-1l-1.67-1.21h2.06a.91.91,0,0,0,.86-.62l.63-2m0-.72a.39.39,0,0,0-.38.28l-.73,2.25a.4.4,0,0,1-.38.27H478.8a.4.4,0,0,0-.23.73l1.91,1.39a.41.41,0,0,1,.15.45l-.73,2.25a.4.4,0,0,0,.38.52.34.34,0,0,0,.23-.08l1.92-1.39a.39.39,0,0,1,.23-.07.42.42,0,0,1,.24.07l1.91,1.39a.38.38,0,0,0,.24.08.4.4,0,0,0,.38-.52l-.73-2.25a.39.39,0,0,1,.14-.45l1.92-1.39a.41.41,0,0,0-.24-.73h-2.37a.41.41,0,0,1-.38-.27l-.73-2.25a.39.39,0,0,0-.38-.28Z"></path><path class="cls-42" d="M494.83,1692.15l.64,2a.89.89,0,0,0,.85.62h2.06l-1.66,1.21a.9.9,0,0,0-.33,1l.63,2-1.66-1.21a.91.91,0,0,0-1.06,0l-1.66,1.21.63-2a.9.9,0,0,0-.33-1l-1.66-1.21h2.06a.89.89,0,0,0,.85-.62l.64-2m0-.72a.39.39,0,0,0-.38.28l-.73,2.25a.41.41,0,0,1-.38.27H491a.4.4,0,0,0-.23.73l1.91,1.39a.41.41,0,0,1,.15.45l-.74,2.25a.4.4,0,0,0,.39.52.36.36,0,0,0,.23-.08l1.91-1.39a.44.44,0,0,1,.24-.07.42.42,0,0,1,.24.07l1.91,1.39a.36.36,0,0,0,.23.08.4.4,0,0,0,.39-.52l-.74-2.25a.41.41,0,0,1,.15-.45l1.91-1.39a.4.4,0,0,0-.23-.73h-2.37a.41.41,0,0,1-.38-.27l-.73-2.25a.39.39,0,0,0-.38-.28Z"></path><path class="cls-42" d="M446.54,1709.3l.73,2.25a.4.4,0,0,0,.38.28H450a.4.4,0,0,1,.24.72l-1.91,1.39a.39.39,0,0,0-.15.45l.73,2.25a.4.4,0,0,1-.61.45l-1.92-1.4a.41.41,0,0,0-.47,0l-1.91,1.4a.4.4,0,0,1-.62-.45l.73-2.25a.39.39,0,0,0-.14-.45l-1.92-1.39a.4.4,0,0,1,.24-.72h2.36a.4.4,0,0,0,.38-.28l.74-2.25A.4.4,0,0,1,446.54,1709.3Z"></path><path class="cls-42" d="M458.32,1709.75l.64,2a.9.9,0,0,0,.86.63h2.06l-1.67,1.21a.89.89,0,0,0-.33,1l.64,2-1.67-1.21a.9.9,0,0,0-1.05,0l-1.67,1.21.64-2a.89.89,0,0,0-.33-1l-1.67-1.21h2.06a.9.9,0,0,0,.86-.63l.63-2m0-.73a.39.39,0,0,0-.38.28l-.73,2.25a.4.4,0,0,1-.38.28h-2.36a.4.4,0,0,0-.24.72l1.92,1.39a.4.4,0,0,1,.14.45l-.73,2.25a.4.4,0,0,0,.38.52.39.39,0,0,0,.23-.07l1.92-1.4a.39.39,0,0,1,.23-.07.4.4,0,0,1,.24.07l1.91,1.4a.44.44,0,0,0,.24.07.4.4,0,0,0,.38-.52l-.73-2.25a.39.39,0,0,1,.14-.45l1.92-1.39a.4.4,0,0,0-.24-.72h-2.36a.4.4,0,0,1-.38-.28l-.74-2.25a.38.38,0,0,0-.38-.28Z"></path><path class="cls-42" d="M470.49,1709.75l.64,2a.89.89,0,0,0,.86.63H474l-1.66,1.21a.89.89,0,0,0-.33,1l.64,2-1.67-1.21a.9.9,0,0,0-.53-.17.93.93,0,0,0-.53.17l-1.66,1.21.63-2a.88.88,0,0,0-.32-1l-1.67-1.21H469a.9.9,0,0,0,.86-.63l.63-2m0-.73a.39.39,0,0,0-.38.28l-.73,2.25a.41.41,0,0,1-.38.28h-2.37a.4.4,0,0,0-.23.72l1.91,1.39a.41.41,0,0,1,.15.45l-.73,2.25a.4.4,0,0,0,.38.52.39.39,0,0,0,.23-.07l1.92-1.4a.39.39,0,0,1,.23-.07.4.4,0,0,1,.24.07l1.91,1.4a.44.44,0,0,0,.24.07.4.4,0,0,0,.38-.52l-.73-2.25a.39.39,0,0,1,.14-.45l1.92-1.39a.4.4,0,0,0-.24-.72H472a.42.42,0,0,1-.39-.28l-.73-2.25a.39.39,0,0,0-.38-.28Z"></path><path class="cls-42" d="M482.66,1709.75l.64,2a.89.89,0,0,0,.85.63h2.06l-1.66,1.21a.89.89,0,0,0-.33,1l.64,2-1.67-1.21a.9.9,0,0,0-.53-.17.93.93,0,0,0-.53.17l-1.66,1.21.63-2a.9.9,0,0,0-.32-1l-1.67-1.21h2.06a.91.91,0,0,0,.86-.63l.63-2m0-.73a.39.39,0,0,0-.38.28l-.73,2.25a.41.41,0,0,1-.38.28H478.8a.4.4,0,0,0-.23.72l1.91,1.39a.41.41,0,0,1,.15.45l-.73,2.25a.4.4,0,0,0,.38.52.39.39,0,0,0,.23-.07l1.92-1.4a.39.39,0,0,1,.23-.07.42.42,0,0,1,.24.07l1.91,1.4a.43.43,0,0,0,.23.07.4.4,0,0,0,.39-.52l-.73-2.25a.39.39,0,0,1,.14-.45l1.92-1.39a.4.4,0,0,0-.24-.72h-2.37a.42.42,0,0,1-.38-.28l-.73-2.25a.39.39,0,0,0-.38-.28Z"></path><path class="cls-42" d="M494.83,1709.75l.64,2a.89.89,0,0,0,.85.63h2.06l-1.66,1.21a.89.89,0,0,0-.33,1l.63,2-1.66-1.21a.91.91,0,0,0-1.06,0l-1.66,1.21.63-2a.89.89,0,0,0-.33-1l-1.66-1.21h2.06a.89.89,0,0,0,.85-.63l.64-2m0-.73a.39.39,0,0,0-.38.28l-.73,2.25a.42.42,0,0,1-.38.28H491a.4.4,0,0,0-.23.72l1.91,1.39a.41.41,0,0,1,.15.45l-.74,2.25a.4.4,0,0,0,.39.52.41.41,0,0,0,.23-.07l1.91-1.4a.44.44,0,0,1,.24-.07.42.42,0,0,1,.24.07l1.91,1.4a.41.41,0,0,0,.23.07.4.4,0,0,0,.39-.52l-.74-2.25a.41.41,0,0,1,.15-.45l1.91-1.39a.4.4,0,0,0-.23-.72h-2.37a.42.42,0,0,1-.38-.28l-.73-2.25a.39.39,0,0,0-.38-.28Z"></path><rect class="cls-80" x="520" y="1638.64" width="100.98" height="9.99"></rect><rect class="cls-80" x="520" y="1673.79" width="100.98" height="9.99"></rect><rect class="cls-80" x="520" y="1690.38" width="100.98" height="9.99"></rect><rect class="cls-80" x="520" y="1708.74" width="100.98" height="9.99"></rect><rect class="cls-38" x="520" y="1656.21" width="100.98" height="9.99"></rect><rect class="cls-38" x="220.34" y="1811.21" width="47.11" height="9.99"></rect><text class="cls-81" transform="translate(640.78 1646.24)">0</text><text class="cls-82" transform="translate(250.84 1674.76)">4.00 out of 5</text><text class="cls-82" transform="translate(174.42 1689.31)">Based on 1 <tspan class="cls-83" x="55.12" y="0">r</tspan><tspan class="cls-84" x="59.16" y="0">e</tspan><tspan x="65.24" y="0">vi</tspan><tspan class="cls-84" x="73.91" y="0">e</tspan><tspan class="cls-85" x="79.99" y="0">w</tspan></text><text class="cls-82" transform="translate(125.67 1758.77)">Most <tspan class="cls-86" x="27.86" y="0">R</tspan><tspan x="34.76" y="0">ecent</tspan></text><text class="cls-87" transform="translate(158.53 1819.78)">J<tspan class="cls-85" x="6.06" y="0">ANE DOE</tspan></text><text class="cls-82" transform="translate(913.12 1819.78)">19/02/2005</text><text class="cls-88" transform="translate(125.42 1849.14)">Si<tspan class="cls-83" x="9.99" y="0">z</tspan><tspan class="cls-89" x="14.9" y="0">e: M</tspan></text><text class="cls-82" transform="translate(125.43 1868.79)">The <tspan class="cls-90" x="20.74" y="0">f</tspan><tspan x="24.51" y="0">abric is thick and the si</tspan><tspan class="cls-91" x="140.02" y="0">z</tspan><tspan x="144.85" y="0">e is pe</tspan><tspan class="cls-92" x="176.98" y="0">r</tspan><tspan class="cls-84" x="181.1" y="0">f</tspan><tspan x="184.85" y="0">ect </tspan><tspan class="cls-84" x="203.57" y="0">f</tspan><tspan x="207.32" y="0">or m</tspan><tspan class="cls-93" x="230.14" y="0">e</tspan><tspan x="236.18" y="0">,</tspan></text><text class="cls-94" transform="translate(224.08 1819.44)"><tspan class="cls-95">V</tspan><tspan x="6.68" y="0">erified</tspan></text><text class="cls-81" transform="translate(642.08 1663.99)">1</text><text class="cls-81" transform="translate(640.78 1681.18)">0</text><text class="cls-81" transform="translate(640.78 1698.54)">0</text><text class="cls-81" transform="translate(640.78 1716.41)">0</text><line class="cls-96" x1="380.59" y1="1637.62" x2="380.59" y2="1717.81"></line><line class="cls-97" x1="974.89" y1="1776.63" x2="125.43" y2="1776.63"></line><line class="cls-96" x1="720.25" y1="1637.62" x2="720.25" y2="1717.81"></line><polyline class="cls-24" points="206.24 1754.49 209.73 1757.97 213.25 1754.45"></polyline><path class="cls-38" d="M929.88,1665a3.5,3.5,0,0,1,3.5,3.5v18.29a3.5,3.5,0,0,1-3.5,3.5H764.67a3.5,3.5,0,0,1-3.5-3.5v-18.29a3.5,3.5,0,0,1,3.5-3.5H929.88m0-1H764.67a4.49,4.49,0,0,0-4.5,4.5v18.29a4.5,4.5,0,0,0,4.5,4.5H929.88a4.51,4.51,0,0,0,4.5-4.5v-18.29a4.5,4.5,0,0,0-4.5-4.5Z"></path><text class="cls-98" transform="translate(796.64 1681.67)"><tspan class="cls-99">W</tspan><tspan x="14.56" y="0">ri</tspan><tspan class="cls-100" x="24.79" y="0">t</tspan><tspan x="30.76" y="0">e a </tspan><tspan class="cls-101" x="53.73" y="0">r</tspan><tspan class="cls-102" x="59.46" y="0">e</tspan><tspan x="68.02" y="0">vi</tspan><tspan class="cls-51" x="80.47" y="0">e</tspan><tspan x="89.04" y="0">w</tspan></text><circle class="cls-103" cx="137.08" cy="1819.78" r="12.93"></circle><rect class="cls-104" x="1123.06" y="688.27" width="58.21" height="58.21" rx="10"></rect><text class="cls-105" transform="translate(1143.49 726.87)">S</text><rect class="cls-104" x="1197.1" y="688.27" width="58.21" height="58.21" rx="10"></rect><text class="cls-105" transform="translate(1214.03 726.87)">M</text><rect class="cls-104" x="1271.14" y="688.27" width="58.21" height="58.21" rx="10"></rect><text class="cls-105" transform="translate(1293.08 726.87)">L</text><rect class="cls-104" x="1345.19" y="688.27" width="58.21" height="58.21" rx="10"></rect><text class="cls-105" transform="translate(1358.21 726.87)">XL</text><rect class="cls-104" x="1419.23" y="688.27" width="58.21" height="58.21" rx="10"></rect><text class="cls-105" transform="translate(1424.42 726.87)">2XL</text><rect class="cls-104" x="1493.27" y="688.27" width="58.21" height="58.21" rx="10"></rect><text class="cls-105" transform="translate(1498.47 726.87)">3XL</text><text class="cls-106" transform="translate(1124.29 660.59)">RM 30</text><rect class="cls-107" x="1231.21" y="930.58" width="575.82" height="101.11" rx="8.7"></rect><text class="cls-108" transform="translate(1426.66 981.25)">CH<tspan class="cls-109" x="48" y="0">E</tspan><tspan x="65.76" y="0">CK O</tspan><tspan class="cls-110" x="143.37" y="0">U</tspan><tspan x="166.86" y="0">T</tspan></text><text class="cls-111" transform="translate(1391.62 1007.96)">FREE SHIPPING WITH ORDER <tspan class="cls-112" x="177.69" y="0">O</tspan><tspan x="188.01" y="0">VER RM150</tspan></text><text class="cls-113" transform="translate(1123.06 787.91)">ON<tspan class="cls-114" x="43.3" y="0">L</tspan><tspan x="54.8" y="0">Y 3 PI</tspan><tspan class="cls-115" x="122.22" y="0">E</tspan><tspan x="136.95" y="0">C</tspan><tspan class="cls-116" x="156.92" y="0">E</tspan><tspan x="171.67" y="0">S LE</tspan><tspan class="cls-117" x="222.65" y="0">F</tspan><tspan x="236.87" y="0">T!</tspan></text><text class="cls-105" transform="translate(1133.69 858.47)">Quantity</text><text class="cls-118" transform="translate(1149.27 903.17)">1</text><text class="cls-118" transform="translate(1739.65 903.17)"><tspan xml:space="preserve">-   +</tspan></text><rect class="cls-104" x="1123.06" y="876.61" width="683.97" height="35.57" rx="4.95"></rect><polygon class="cls-38" points="416.78 127.2 410.94 135.34 422.63 135.34 416.78 127.2"></polygon><path class="cls-38" d="M1697.16,127.81l-7.24-7.24a9.68,9.68,0,0,0,2.25-3.65,9.81,9.81,0,0,0-18.57-6.31,9.81,9.81,0,0,0,6.13,12.44,9.6,9.6,0,0,0,3.15.53,9.73,9.73,0,0,0,4.32-1l7.6,7.6Zm-16.36-7.91a6.48,6.48,0,0,1,2.09-12.61,6.56,6.56,0,0,1,2.08.34,6.48,6.48,0,0,1-4.17,12.27Z"></path><path class="cls-38" d="M1746.2,109.43l-1.28-5.27h-7.14v3.33h4.52l3.88,16h18.24v-14Zm14.89,10.7H1748.8l-1.79-7.37h14.08Z"></path><circle class="cls-38" cx="1749.31" cy="127.59" r="3.33"></circle><circle class="cls-38" cx="1760.97" cy="127.59" r="3.33"></circle><path class="cls-38" d="M1806.54,112.18h21.09a1.1,1.1,0,0,0,1.1-1.1h0a1.09,1.09,0,0,0-1.1-1.09h-21.09a1.09,1.09,0,0,0-1.1,1.09h0A1.1,1.1,0,0,0,1806.54,112.18Z"></path><path class="cls-38" d="M1806.54,120.37h21.09a1.1,1.1,0,0,0,1.1-1.1h0a1.09,1.09,0,0,0-1.1-1.09h-21.09a1.09,1.09,0,0,0-1.1,1.09h0A1.1,1.1,0,0,0,1806.54,120.37Z"></path><path class="cls-38" d="M1806.54,128.56h21.09a1.1,1.1,0,0,0,1.1-1.1h0a1.09,1.09,0,0,0-1.1-1.09h-21.09a1.09,1.09,0,0,0-1.1,1.09h0A1.1,1.1,0,0,0,1806.54,128.56Z"></path></g><g id="Layer_4" data-name="Layer 4"><g class="cls-119"><use transform="translate(1157.69 28.03) scale(1.46)" xlink:href="#image"></use></g><g class="cls-120"><use transform="translate(600.67 -247.73) scale(3.2)" xlink:href="#image"></use></g><g class="cls-121"><use transform="translate(1562.56 -109.57) scale(1.87)" xlink:href="#image"></use></g><rect class="cls-2" x="3488.91" y="171.92" width="325.02" height="400.49" rx="18.41"></rect><path class="cls-38" d="M1186.84,962.18v17.59H1160.7l-4.28-17.59h30.42m-31.6-13.63h-13v6.08h8.25l7.09,29.14h33.28V958.18h-33.25l-2.35-9.63Z"></path><path class="cls-38" d="M1165.67,988.26a3,3,0,1,1-3,3,3,3,0,0,1,3-3m0-2a5,5,0,1,0,5,5,5,5,0,0,0-5-5Z"></path><path class="cls-38" d="M1183.08,988.26a3,3,0,1,1-3,3,3,3,0,0,1,3-3m0-2a5,5,0,1,0,5,5,5,5,0,0,0-5-5Z"></path><text class="cls-111" transform="translate(1137.82 1014.04)"><tspan class="cls-122">A</tspan><tspan x="8.93" y="0">dd </tspan><tspan class="cls-123" x="28.14" y="0">t</tspan><tspan class="cls-124" x="33.13" y="0">o Ca</tspan><tspan class="cls-125" x="60.31" y="0">r</tspan><tspan class="cls-126" x="65.27" y="0">t</tspan></text></g></svg>