<svg xmlns="http://www.w3.org/2000/svg" xmlns:xlink="http://www.w3.org/1999/xlink" viewBox="0 0 1920 4373.4"><defs><clipPath id="clip-path"><rect class="cls-1" y="60.69" width="1924.19" height="889.7"></rect></clipPath><clipPath id="clip-path-2"><rect class="cls-1" x="109.87" y="2081.62" width="1700.26" height="474.25" rx="11.73"></rect></clipPath><clipPath id="clip-path-3"><rect class="cls-1" x="109.87" y="3187.78" width="1700.26" height="741.93" rx="11.73"></rect></clipPath><clipPath id="clip-path-4"><rect class="cls-1" x="110.37" y="2588.14" width="833.82" height="474.25" rx="11.73"></rect></clipPath><clipPath id="clip-path-5"><rect class="cls-1" x="975.81" y="2588.14" width="833.82" height="474.25" rx="11.73"></rect></clipPath><clipPath id="clip-path-6"><rect class="cls-1" x="104.23" y="1191.78" width="412" height="474.25" rx="11.73"></rect></clipPath><clipPath id="clip-path-7"><rect class="cls-1" x="529.24" y="1191.78" width="412" height="474.25" rx="11.73"></rect></clipPath><clipPath id="clip-path-8"><rect class="cls-1" x="1395.06" y="1191.78" width="412" height="474.25" rx="11.73"></rect></clipPath><clipPath id="clip-path-9"><rect class="cls-1" x="957.67" y="1191.78" width="412" height="474.25" rx="11.73"></rect></clipPath><clipPath id="clip-path-10"><rect class="cls-1" x="2145.3" y="171.9" width="875.28" height="505.59" rx="27.63"></rect></clipPath><clipPath id="clip-path-11"><rect class="cls-1" x="3159.06" y="171.9" width="325.28" height="400.49" rx="18.41"></rect></clipPath><clipPath id="clip-path-12"><rect class="cls-1" x="3517.98" y="171.9" width="325.02" height="400.49" rx="18.41"></rect></clipPath><clipPath id="clip-path-13"><rect class="cls-1" x="2036" y="2532.18" width="1920" height="1207.7"></rect></clipPath><clipPath id="clip-path-14"><rect class="cls-1" x="2036" y="4254.05" width="1920" height="1207.7"></rect></clipPath><image id="image" width="6702" height="2084"></image><image id="image-2" width="1264" height="1058"></image><image id="image-3" width="4672" height="6223"></image></defs><title>Tradveller_Merch Landing Page</title><g id="Layer_1" data-name="Layer 1"><g id="Layer_5" data-name="Layer 5"><rect class="cls-2" y="950.39" width="1920" height="3423.01"></rect></g><rect width="1920" height="65.68"></rect><g class="cls-3"><image width="4000" height="6000" transform="translate(-14.55 -1145.25) scale(0.48 0.48)"></image></g><path d="M737.61,2012.82V1971.1H723.89v-7.28h35.42v7.28H745.17v41.72Z"></path><path d="M766.8,2012.82V1961H774v22.61l-1.26.84a10.63,10.63,0,0,1,2.73-4.52,16.71,16.71,0,0,1,4.83-3.36,14.61,14.61,0,0,1,12.74.35,10.07,10.07,0,0,1,4.2,5,22,22,0,0,1,1.4,8.47v22.4h-7.21v-21.91a14,14,0,0,0-.84-5.22,5.73,5.73,0,0,0-2.59-3,8.11,8.11,0,0,0-4.34-.8,10.84,10.84,0,0,0-3.85.66,9.56,9.56,0,0,0-3,1.86,8.59,8.59,0,0,0-2,2.76,8,8,0,0,0-.74,3.4v22.26H766.8Z"></path><path d="M825.6,2013.52a20.41,20.41,0,0,1-10-2.42,17.73,17.73,0,0,1-6.86-6.61,18.58,18.58,0,0,1-2.49-9.66,21.58,21.58,0,0,1,1.4-7.91,19.07,19.07,0,0,1,3.89-6.2,17.07,17.07,0,0,1,6-4.06,19.59,19.59,0,0,1,7.52-1.43,16.21,16.21,0,0,1,6.65,1.36,16.41,16.41,0,0,1,8.86,9.38,19.1,19.1,0,0,1,1.15,7.11l-.07,3.08h-30l-1.61-5.74h25.41l-1.05,1.19v-1.68a8.07,8.07,0,0,0-1.54-4.13,9.34,9.34,0,0,0-3.36-2.87,9.44,9.44,0,0,0-4.41-1,13.07,13.07,0,0,0-6.37,1.43,9.34,9.34,0,0,0-3.92,4.2,15.81,15.81,0,0,0-1.33,6.83A13.35,13.35,0,0,0,815,2001a11,11,0,0,0,4.55,4.38,14.4,14.4,0,0,0,6.79,1.54,14.1,14.1,0,0,0,5.08-.91,18.09,18.09,0,0,0,5.07-3.29l3.64,5.11a16.55,16.55,0,0,1-4.09,2.94,25.68,25.68,0,0,1-5.11,2A20.08,20.08,0,0,1,825.6,2013.52Z"></path><path d="M890.77,2013.52a23.77,23.77,0,0,1-9.38-1.82,21.6,21.6,0,0,1-7.42-5.22,23.71,23.71,0,0,1-4.86-8,28.79,28.79,0,0,1-1.72-10.15,25.41,25.41,0,0,1,1.86-9.77,25,25,0,0,1,5.14-7.94,23.17,23.17,0,0,1,17-7.21,22.9,22.9,0,0,1,7,1.08,23.36,23.36,0,0,1,6.16,3,18.3,18.3,0,0,1,4.51,4.38l-5,5.25a22.46,22.46,0,0,0-6.16-4.62,14.45,14.45,0,0,0-6.44-1.54,15.78,15.78,0,0,0-11.58,4.9,16.84,16.84,0,0,0-3.47,5.49,18.82,18.82,0,0,0-1.26,7,20.33,20.33,0,0,0,1.23,7.24,15.91,15.91,0,0,0,3.46,5.57,15,15,0,0,0,5.36,3.53,18.57,18.57,0,0,0,6.89,1.23,17,17,0,0,0,8.75-2.45,19.1,19.1,0,0,0,3.57-2.8l3.78,6.16a15.74,15.74,0,0,1-4.37,3.43,25.75,25.75,0,0,1-6.16,2.41A27,27,0,0,1,890.77,2013.52Z"></path><path d="M933.12,2013.52a18.61,18.61,0,0,1-9.62-2.49,18,18,0,0,1-6.69-6.79,21,21,0,0,1,0-19.67,18.09,18.09,0,0,1,6.69-6.79,19.78,19.78,0,0,1,19.18,0,18.14,18.14,0,0,1,6.68,6.79,21,21,0,0,1,0,19.67,18.07,18.07,0,0,1-6.68,6.79A18.52,18.52,0,0,1,933.12,2013.52Zm0-6.58a10.72,10.72,0,0,0,5.88-1.65,11.35,11.35,0,0,0,4.06-4.48,13.08,13.08,0,0,0,1.4-6.4,13.27,13.27,0,0,0-1.4-6.48,11.11,11.11,0,0,0-4.06-4.44,11.51,11.51,0,0,0-11.79,0,11.37,11.37,0,0,0-4.1,4.48,15.35,15.35,0,0,0,0,12.81,11.3,11.3,0,0,0,4.1,4.48A10.87,10.87,0,0,0,933.12,2006.94Z"></path><path d="M959.79,2012.82V1961H967v51.8Z"></path><path d="M977.36,2012.82V1961h7.21v51.8Z"></path><path d="M1011.24,2013.52a20.47,20.47,0,0,1-10-2.42,17.87,17.87,0,0,1-6.86-6.61,18.67,18.67,0,0,1-2.48-9.66,21.58,21.58,0,0,1,1.4-7.91,19.05,19.05,0,0,1,3.88-6.2,17.16,17.16,0,0,1,6-4.06,19.61,19.61,0,0,1,7.53-1.43,16.21,16.21,0,0,1,6.65,1.36,16.41,16.41,0,0,1,8.86,9.38,19.1,19.1,0,0,1,1.15,7.11l-.07,3.08h-30l-1.61-5.74H1021l-1.05,1.19v-1.68a8.07,8.07,0,0,0-1.54-4.13,9.55,9.55,0,0,0-7.77-3.92,13.07,13.07,0,0,0-6.37,1.43,9.29,9.29,0,0,0-3.92,4.2,15.66,15.66,0,0,0-1.33,6.83,13.35,13.35,0,0,0,1.61,6.68,11,11,0,0,0,4.55,4.38,14.37,14.37,0,0,0,6.79,1.54,14,14,0,0,0,5.07-.91,18,18,0,0,0,5.08-3.29l3.64,5.11a16.43,16.43,0,0,1-4.1,2.94,25.44,25.44,0,0,1-5.11,2A20,20,0,0,1,1011.24,2013.52Z"></path><path d="M1050.72,2013.52a16.88,16.88,0,0,1-9.14-2.52,18.15,18.15,0,0,1-6.37-6.86,21.4,21.4,0,0,1,0-19.46,18.15,18.15,0,0,1,6.37-6.86,16.88,16.88,0,0,1,9.14-2.52,19.77,19.77,0,0,1,8.92,2,14.48,14.48,0,0,1,6.13,5.43l-4,4.9a12.85,12.85,0,0,0-2.87-2.94,15.42,15.42,0,0,0-3.71-2.1,10.21,10.21,0,0,0-3.78-.77,11.11,11.11,0,0,0-6,1.64,11.72,11.72,0,0,0-4.16,4.52,13.35,13.35,0,0,0-1.54,6.44,12.75,12.75,0,0,0,1.61,6.4,12.53,12.53,0,0,0,4.27,4.52,10.77,10.77,0,0,0,5.88,1.68,10.93,10.93,0,0,0,3.67-.63,13,13,0,0,0,3.47-1.89,17.91,17.91,0,0,0,3.15-3.08l4,4.9a16.55,16.55,0,0,1-6.41,5.18A19.5,19.5,0,0,1,1050.72,2013.52Z"></path><path d="M1069.48,1983.07v-7h23.38v7Zm7.63,29.75v-46.13h7.21v46.13Z"></path><path d="M1104.13,1968a5,5,0,0,1-3.57-1.19,5,5,0,0,1,0-6.65,4.87,4.87,0,0,1,3.54-1.26,5,5,0,0,1,3.57,1.19,5,5,0,0,1,0,6.65A4.84,4.84,0,0,1,1104.13,1968Zm-3.5,44.87v-36.75h7.21v36.75Z"></path><path d="M1135.42,2013.52a18.65,18.65,0,0,1-9.63-2.49,18.07,18.07,0,0,1-6.68-6.79,21,21,0,0,1,0-19.67,18.14,18.14,0,0,1,6.68-6.79,19.78,19.78,0,0,1,19.18,0,18.17,18.17,0,0,1,6.69,6.79,21,21,0,0,1,0,19.67A18.09,18.09,0,0,1,1145,2011,18.49,18.49,0,0,1,1135.42,2013.52Zm0-6.58a10.72,10.72,0,0,0,5.88-1.65,11.43,11.43,0,0,0,4.06-4.48,13.19,13.19,0,0,0,1.4-6.4,13.38,13.38,0,0,0-1.4-6.48,11.18,11.18,0,0,0-4.06-4.44,11.52,11.52,0,0,0-11.8,0,11.34,11.34,0,0,0-4.09,4.48,15.35,15.35,0,0,0,0,12.81,11.28,11.28,0,0,0,4.09,4.48A10.88,10.88,0,0,0,1135.42,2006.94Z"></path><path d="M1162,2012.82v-36.75h7.21v7.56l-1.26.84a10.43,10.43,0,0,1,2.73-4.52,16.44,16.44,0,0,1,4.83-3.36,13.56,13.56,0,0,1,5.74-1.29,13.71,13.71,0,0,1,7,1.64,10.17,10.17,0,0,1,4.2,5,22.21,22.21,0,0,1,1.4,8.47v22.4h-7.21v-21.91a14,14,0,0,0-.84-5.22,5.78,5.78,0,0,0-2.59-3,8.15,8.15,0,0,0-4.34-.8,10.8,10.8,0,0,0-3.85.66,9.61,9.61,0,0,0-3,1.86,8.74,8.74,0,0,0-2,2.76,8,8,0,0,0-.73,3.4v22.26H1162Z"></path><g class="cls-4"><use transform="translate(110.99 916.55) scale(0.36)" xlink:href="#image-3"></use></g><g class="cls-5"><image width="5127" height="3418" transform="translate(101.62 3097.71) scale(0.33)"></image></g><g class="cls-6"><image width="2633" height="3942" transform="translate(99.01 2286.29) scale(0.33)"></image></g><g class="cls-7"><image width="5054" height="4000" transform="translate(967.24 2390.64) scale(0.17)"></image></g><circle class="cls-2" cx="931.67" cy="903.2" r="5.92"></circle><circle class="cls-8" cx="960" cy="903.2" r="5.92"></circle><circle class="cls-8" cx="988.33" cy="903.2" r="5.92"></circle></g><g id="Layer_2" data-name="Layer 2"><text class="cls-9" transform="translate(162.93 2966.51)">Must H<tspan class="cls-10" x="124.88" y="0">a</tspan><tspan class="cls-11" x="145.07" y="0">v</tspan><tspan x="164.71" y="0">e:</tspan></text><text class="cls-12" transform="translate(164.42 3007.04)"><tspan class="cls-13">T</tspan><tspan class="cls-14" x="16.1" y="0">r</tspan><tspan x="27.63" y="0">ad</tspan><tspan class="cls-15" x="63.48" y="0">v</tspan><tspan x="79.41" y="0">eller Whi</tspan><tspan class="cls-14" x="205.26" y="0">t</tspan><tspan x="217.18" y="0">e </tspan><tspan class="cls-16" x="240.47" y="0">T</tspan><tspan class="cls-17" x="255.79" y="0">-</tspan><tspan x="269.66" y="0">Shi</tspan><tspan class="cls-18" x="315.54" y="0">r</tspan><tspan x="327.49" y="0">t</tspan></text><path class="cls-2" d="M191,2217.49a20.43,20.43,0,0,1-8.19-1.62,19.89,19.89,0,0,1-6.54-4.53,20.52,20.52,0,0,1-4.32-6.84,25,25,0,0,1,0-17.22,20.52,20.52,0,0,1,4.32-6.84,19.89,19.89,0,0,1,6.54-4.53,21.51,21.51,0,0,1,16.38,0,19.68,19.68,0,0,1,6.54,4.56,20.86,20.86,0,0,1,4.32,6.87,24.65,24.65,0,0,1,0,17.1,20.86,20.86,0,0,1-4.32,6.87,19.68,19.68,0,0,1-6.54,4.56A20.43,20.43,0,0,1,191,2217.49Zm0-6.3a13.59,13.59,0,0,0,5.61-1.14,13,13,0,0,0,4.41-3.21A15.2,15.2,0,0,0,204,2202a18.19,18.19,0,0,0,0-12.18,15.2,15.2,0,0,0-2.91-4.86,13,13,0,0,0-4.41-3.21,13.72,13.72,0,0,0-15.66,3.18,14.18,14.18,0,0,0-2.91,4.83,17.79,17.79,0,0,0-1,6.15,16.81,16.81,0,0,0,1.8,7.89,13.82,13.82,0,0,0,4.95,5.43A13.3,13.3,0,0,0,191,2211.19Z"></path><path class="cls-2" d="M236.7,2217.25a17.63,17.63,0,0,1-8.7-2.13,15.63,15.63,0,0,1-6-5.88,16.52,16.52,0,0,1-2.19-8.49v-25.92h6.48v25.38a10.56,10.56,0,0,0,1.44,5.49,11,11,0,0,0,3.81,3.87,9.81,9.81,0,0,0,5.19,1.44,10.45,10.45,0,0,0,5.43-1.44,10.87,10.87,0,0,0,3.87-3.87,10.56,10.56,0,0,0,1.44-5.49v-25.38h6.18v25.92a16.52,16.52,0,0,1-2.19,8.49,15.63,15.63,0,0,1-6,5.88A17.63,17.63,0,0,1,236.7,2217.25Z"></path><path class="cls-2" d="M264.78,2216.89v-42h17.88a12.91,12.91,0,0,1,6.63,1.77,13.39,13.39,0,0,1,4.83,4.8,13.08,13.08,0,0,1,1.8,6.81,12,12,0,0,1-1.8,6.36,13.7,13.7,0,0,1-4.8,4.71,12.86,12.86,0,0,1-6.66,1.77h-11.4v15.78Zm6.48-22h12a5.73,5.73,0,0,0,3.12-.87,6,6,0,0,0,2.16-2.4,7.35,7.35,0,0,0,.78-3.39,6.65,6.65,0,0,0-3.75-6.18,8.68,8.68,0,0,0-4-.9H271.26Zm18.48,22-10.68-19,6.66-1.5L297.6,2217Z"></path><path class="cls-2" d="M190.5,2289.49a20.3,20.3,0,0,1-8-1.56,18.45,18.45,0,0,1-6.36-4.47,20.42,20.42,0,0,1-4.17-6.87,24.82,24.82,0,0,1-1.47-8.7,21.81,21.81,0,0,1,1.59-8.37,21.59,21.59,0,0,1,4.41-6.81,19.86,19.86,0,0,1,14.58-6.18,19.94,19.94,0,0,1,11.25,3.51,15.74,15.74,0,0,1,3.87,3.75l-4.32,4.5a19.4,19.4,0,0,0-5.28-4A12.44,12.44,0,0,0,191,2253a13.57,13.57,0,0,0-9.93,4.2,14.42,14.42,0,0,0-3,4.71,16.09,16.09,0,0,0-1.08,6,17.51,17.51,0,0,0,1.05,6.21,13.67,13.67,0,0,0,3,4.77,12.86,12.86,0,0,0,4.59,3,16,16,0,0,0,5.91,1,14.53,14.53,0,0,0,7.5-2.1,16.2,16.2,0,0,0,3.06-2.4l3.24,5.28a13.46,13.46,0,0,1-3.75,2.94,22.17,22.17,0,0,1-5.28,2.07A23.35,23.35,0,0,1,190.5,2289.49Z"></path><path class="cls-2" d="M231.78,2289.49a20.43,20.43,0,0,1-8.19-1.62,19.89,19.89,0,0,1-6.54-4.53,20.52,20.52,0,0,1-4.32-6.84,25,25,0,0,1,0-17.22,20.52,20.52,0,0,1,4.32-6.84,19.89,19.89,0,0,1,6.54-4.53,21.51,21.51,0,0,1,16.38,0,19.68,19.68,0,0,1,6.54,4.56,20.86,20.86,0,0,1,4.32,6.87,24.65,24.65,0,0,1,0,17.1,20.86,20.86,0,0,1-4.32,6.87,19.68,19.68,0,0,1-6.54,4.56A20.43,20.43,0,0,1,231.78,2289.49Zm0-6.3a13.59,13.59,0,0,0,5.61-1.14,13,13,0,0,0,4.41-3.21,15.2,15.2,0,0,0,2.91-4.86,18.19,18.19,0,0,0,0-12.18,15.2,15.2,0,0,0-2.91-4.86,13,13,0,0,0-4.41-3.21,13.72,13.72,0,0,0-15.66,3.18,14.18,14.18,0,0,0-2.91,4.83,17.79,17.79,0,0,0-1,6.15,16.81,16.81,0,0,0,1.8,7.89,13.82,13.82,0,0,0,5,5.43A13.3,13.3,0,0,0,231.78,2283.19Z"></path><path class="cls-2" d="M261.12,2288.89v-42h6.48v35.76h19.68v6.24Z"></path><path class="cls-2" d="M297.06,2288.89v-42h6.48v35.76h19.68v6.24Z"></path><path class="cls-2" d="M333,2288.89v-42h26.46v6.24h-20v29.52h20v6.24Zm2.94-18.42v-6.24h20.22v6.24Z"></path><path class="cls-2" d="M386.88,2289.49a20.3,20.3,0,0,1-8-1.56,18.45,18.45,0,0,1-6.36-4.47,20.42,20.42,0,0,1-4.17-6.87,24.82,24.82,0,0,1-1.47-8.7,21.81,21.81,0,0,1,1.59-8.37,21.59,21.59,0,0,1,4.41-6.81,19.86,19.86,0,0,1,14.58-6.18,19.94,19.94,0,0,1,11.25,3.51,15.74,15.74,0,0,1,3.87,3.75l-4.32,4.5a19.4,19.4,0,0,0-5.28-4,12.44,12.44,0,0,0-5.52-1.32,13.57,13.57,0,0,0-9.93,4.2,14.42,14.42,0,0,0-3,4.71,16.09,16.09,0,0,0-1.08,6,17.51,17.51,0,0,0,1.05,6.21,13.67,13.67,0,0,0,3,4.77,12.86,12.86,0,0,0,4.59,3,16,16,0,0,0,5.91,1,14.53,14.53,0,0,0,7.5-2.1,16.2,16.2,0,0,0,3.06-2.4l3.24,5.28a13.46,13.46,0,0,1-3.75,2.94,22.17,22.17,0,0,1-5.28,2.07A23.35,23.35,0,0,1,386.88,2289.49Z"></path><path class="cls-2" d="M418.56,2288.89v-35.76H406.8v-6.24h30.36v6.24H425v35.76Z"></path><path class="cls-2" d="M443.58,2288.89v-6h6.78v-30h-6.78v-6h20v6h-6.78v30h6.78v6Z"></path><path class="cls-2" d="M490.5,2289.49a20.43,20.43,0,0,1-8.19-1.62,19.89,19.89,0,0,1-6.54-4.53,20.52,20.52,0,0,1-4.32-6.84,25,25,0,0,1,0-17.22,20.52,20.52,0,0,1,4.32-6.84,19.89,19.89,0,0,1,6.54-4.53,21.51,21.51,0,0,1,16.38,0,19.68,19.68,0,0,1,6.54,4.56,20.86,20.86,0,0,1,4.32,6.87,24.65,24.65,0,0,1,0,17.1,20.86,20.86,0,0,1-4.32,6.87,19.68,19.68,0,0,1-6.54,4.56A20.43,20.43,0,0,1,490.5,2289.49Zm0-6.3a13.59,13.59,0,0,0,5.61-1.14,13,13,0,0,0,4.41-3.21,15.2,15.2,0,0,0,2.91-4.86,18.19,18.19,0,0,0,0-12.18,15.2,15.2,0,0,0-2.91-4.86,13,13,0,0,0-4.41-3.21,13.72,13.72,0,0,0-15.66,3.18,14.18,14.18,0,0,0-2.91,4.83,17.79,17.79,0,0,0-1,6.15,16.81,16.81,0,0,0,1.8,7.89,13.82,13.82,0,0,0,4.95,5.43A13.3,13.3,0,0,0,490.5,2283.19Z"></path><path class="cls-2" d="M519.84,2288.89v-42h5.82l25.68,34.38-1,.54q-.42-2.46-.69-5.7t-.39-7.14q-.12-3.9-.12-8.28v-13.8h6.48v42h-5.94l-25.26-33.12.66-.84q.42,4.56.66,7.47t.36,4.65q.12,1.74.15,2.73t0,1.65v17.46Z"></path><path class="cls-2" d="M181.44,3324.57v-35.76H169.68v-6.24H200v6.24H187.92v35.76Z"></path><path class="cls-2" d="M208,3324.57v-42H225.9a12.91,12.91,0,0,1,6.63,1.77,13.39,13.39,0,0,1,4.83,4.8,13.08,13.08,0,0,1,1.8,6.81,12,12,0,0,1-1.8,6.36,13.7,13.7,0,0,1-4.8,4.71,12.86,12.86,0,0,1-6.66,1.77H214.5v15.78Zm6.48-22h12a5.73,5.73,0,0,0,3.12-.87,6,6,0,0,0,2.16-2.4,7.35,7.35,0,0,0,.78-3.39,6.65,6.65,0,0,0-3.75-6.18,8.68,8.68,0,0,0-4-.9H214.5Zm18.48,22-10.68-19,6.66-1.5,11.88,20.52Z"></path><path class="cls-2" d="M245.34,3324.57l16.26-42h6.6l16.14,42h-6.9l-9.6-25.32q-.18-.42-.69-2t-1.17-3.6q-.66-2-1.2-3.63t-.72-2.13l1.38-.06q-.36,1-.87,2.58l-1.08,3.3q-.57,1.74-1.11,3.27l-.9,2.55-9.54,25.08Zm7.2-10.44,2.4-6.24H274l2.76,6.24Z"></path><path class="cls-2" d="M291.72,3324.57v-42h16.44a21.11,21.11,0,0,1,8.13,1.5,17.21,17.21,0,0,1,6.21,4.32,19.52,19.52,0,0,1,4,6.66,25,25,0,0,1,1.38,8.52,25.3,25.3,0,0,1-1.38,8.55,19.4,19.4,0,0,1-3.93,6.66,17,17,0,0,1-6.21,4.29,21.33,21.33,0,0,1-8.16,1.5Zm6.48-5.58-.18-.66h9.84a14.85,14.85,0,0,0,5.67-1,11.4,11.4,0,0,0,4.2-2.91,12.68,12.68,0,0,0,2.61-4.65,19.87,19.87,0,0,0,.9-6.18,19.59,19.59,0,0,0-.9-6.15,12.78,12.78,0,0,0-2.64-4.65,11.57,11.57,0,0,0-4.2-2.94,14.62,14.62,0,0,0-5.64-1h-10l.36-.54Z"></path><path class="cls-2" d="M336.6,3324.57v-42h26.46v6.24h-20v29.52h20v6.24Zm2.94-18.42v-6.24h20.22v6.24Z"></path><path class="cls-2" d="M169.08,3396.57l16.26-42h6.6l16.14,42h-6.9l-9.6-25.32q-.18-.42-.69-2t-1.17-3.6q-.66-2-1.2-3.63t-.72-2.13l1.38-.06q-.36,1-.87,2.58l-1.08,3.3q-.57,1.74-1.11,3.27l-.9,2.55-9.54,25.08Zm7.2-10.44,2.4-6.24h19.08l2.76,6.24Z"></path><path class="cls-2" d="M215.46,3396.57v-42h5.82L247,3389l-1,.54q-.42-2.46-.69-5.7t-.39-7.14q-.12-3.9-.12-8.28v-13.8h6.48v42h-5.94l-25.26-33.12.66-.84q.42,4.56.66,7.47t.36,4.65q.12,1.74.15,2.73t0,1.65v17.46Z"></path><path class="cls-2" d="M263,3396.57v-42h16.44a21.11,21.11,0,0,1,8.13,1.5,17.21,17.21,0,0,1,6.21,4.32,19.52,19.52,0,0,1,4,6.66,25,25,0,0,1,1.38,8.52,25.3,25.3,0,0,1-1.38,8.55,19.4,19.4,0,0,1-3.93,6.66,17,17,0,0,1-6.21,4.29,21.33,21.33,0,0,1-8.16,1.5Zm6.48-5.58-.18-.66h9.84a14.85,14.85,0,0,0,5.67-1,11.4,11.4,0,0,0,4.2-2.91,12.68,12.68,0,0,0,2.61-4.65,19.87,19.87,0,0,0,.9-6.18,19.59,19.59,0,0,0-.9-6.15,12.78,12.78,0,0,0-2.64-4.65,11.57,11.57,0,0,0-4.2-2.94,14.62,14.62,0,0,0-5.64-1h-10l.36-.54Z"></path><path class="cls-2" d="M332.7,3396.57v-35.76H320.94v-6.24H351.3v6.24H339.18v35.76Z"></path><path class="cls-2" d="M359.28,3396.57v-42h17.88a12.91,12.91,0,0,1,6.63,1.77,13.39,13.39,0,0,1,4.83,4.8,13.08,13.08,0,0,1,1.8,6.81,12,12,0,0,1-1.8,6.36,13.7,13.7,0,0,1-4.8,4.71,12.86,12.86,0,0,1-6.66,1.77h-11.4v15.78Zm6.48-22h12a5.73,5.73,0,0,0,3.12-.87,6,6,0,0,0,2.16-2.4,7.35,7.35,0,0,0,.78-3.39,6.65,6.65,0,0,0-3.75-6.18,8.68,8.68,0,0,0-4-.9H365.76Zm18.48,22-10.68-19,6.66-1.5,11.88,20.52Z"></path><path class="cls-2" d="M396.6,3396.57l16.26-42h6.6l16.14,42h-6.9l-9.6-25.32q-.18-.42-.69-2t-1.17-3.6q-.66-2-1.2-3.63t-.72-2.13l1.38-.06q-.36,1-.87,2.58l-1.08,3.3q-.57,1.74-1.11,3.27l-.9,2.55-9.54,25.08Zm7.2-10.44,2.4-6.24h19.08l2.76,6.24Z"></path><path class="cls-2" d="M450.84,3396.57l-16.8-42h7.38l10,25.5q.72,1.86,1.29,3.36t1,2.73l.78,2.31.72,2.16-1.56.06q.42-1.44.9-3t1.11-3.42q.63-1.86,1.53-4.2l9.3-25.5h7.56l-16.92,42Z"></path><path class="cls-2" d="M481.38,3396.57v-42h26.46v6.24h-20v29.52h20v6.24Zm2.94-18.42v-6.24h20.22v6.24Z"></path><path class="cls-2" d="M518.22,3396.57v-42h6.48v35.76h19.68v6.24Z"></path><text class="cls-9" transform="translate(1032.2 2966.51)">Must H<tspan class="cls-10" x="124.88" y="0">a</tspan><tspan class="cls-11" x="145.07" y="0">v</tspan><tspan x="164.71" y="0">e:</tspan></text><text class="cls-12" transform="translate(1032.2 3007.04)"><tspan class="cls-13">T</tspan><tspan class="cls-14" x="16.1" y="0">r</tspan><tspan x="27.63" y="0">ad</tspan><tspan class="cls-15" x="63.48" y="0">v</tspan><tspan x="79.41" y="0">eller Black Jac</tspan><tspan class="cls-19" x="284.06" y="0">k</tspan><tspan x="300.75" y="0">e</tspan><tspan class="cls-20" x="318.02" y="0">t</tspan><tspan x="329.91" y="0">s</tspan></text><g class="cls-21"><image width="4512" height="3010" transform="translate(-53.56 1186.21) scale(0.16)"></image></g><text class="cls-22" transform="translate(110.16 1713.76)"><tspan class="cls-23">T</tspan><tspan class="cls-24" x="14.85" y="0">r</tspan><tspan x="25.56" y="0">ad</tspan><tspan class="cls-25" x="58.71" y="0">v</tspan><tspan x="73.29" y="0">eller </tspan><tspan class="cls-26" x="137.25" y="0">T</tspan><tspan class="cls-27" x="151.37" y="0">-</tspan><tspan x="164.29" y="0">Shi</tspan><tspan class="cls-28" x="207.01" y="0">r</tspan><tspan x="218.06" y="0">t</tspan></text><text class="cls-29" transform="translate(111.87 1750.36)">RM 60</text><circle cx="484.4" cy="1725.69" r="31.42"></circle><path class="cls-2" d="M477.21,1717.59l-1.29-5.28h-7.13v3.33h4.52l3.88,16h18.24v-14Zm14.89,10.69H479.81l-1.79-7.36H492.1Z"></path><circle class="cls-2" cx="480.32" cy="1735.74" r="3.33"></circle><circle class="cls-2" cx="491.98" cy="1735.74" r="3.33"></circle><polygon class="cls-30" points="122.93 1767.19 126.38 1777.79 137.52 1777.79 128.5 1784.33 131.95 1794.93 122.93 1788.38 113.92 1794.93 117.36 1784.33 108.35 1777.79 119.49 1777.79 122.93 1767.19"></polygon><polygon class="cls-30" points="157.8 1767.19 161.25 1777.79 172.39 1777.79 163.37 1784.33 166.81 1794.93 157.8 1788.38 148.79 1794.93 152.23 1784.33 143.22 1777.79 154.36 1777.79 157.8 1767.19"></polygon><polygon class="cls-30" points="192.67 1767.19 196.11 1777.79 207.25 1777.79 198.24 1784.33 201.68 1794.93 192.67 1788.38 183.66 1794.93 187.1 1784.33 178.09 1777.79 189.23 1777.79 192.67 1767.19"></polygon><polygon class="cls-30" points="227.54 1767.19 230.98 1777.79 242.12 1777.79 233.11 1784.33 236.55 1794.93 227.54 1788.38 218.53 1794.93 221.97 1784.33 212.95 1777.79 224.09 1777.79 227.54 1767.19"></polygon><polygon class="cls-30" points="262.41 1767.19 265.85 1777.79 276.99 1777.79 267.98 1784.33 271.42 1794.93 262.41 1788.38 253.39 1794.93 256.84 1784.33 247.82 1777.79 258.96 1777.79 262.41 1767.19"></polygon><g class="cls-31"><image width="5182" height="3455" transform="translate(255.12 1189.92) scale(0.14)"></image></g><text class="cls-22" transform="translate(535.96 1713.76)"><tspan class="cls-23">T</tspan><tspan class="cls-24" x="14.85" y="0">r</tspan><tspan x="25.56" y="0">ad</tspan><tspan class="cls-25" x="58.71" y="0">v</tspan><tspan x="73.29" y="0">eller Jac</tspan><tspan class="cls-32" x="184.83" y="0">k</tspan><tspan x="199.91" y="0">e</tspan><tspan class="cls-33" x="215.93" y="0">t</tspan><tspan class="cls-34" x="226.98" y="0">s</tspan></text><text class="cls-29" transform="translate(538.32 1750.36)">RM 120</text><circle cx="909.83" cy="1725.69" r="31.42"></circle><path class="cls-2" d="M902.63,1717.59l-1.28-5.28h-7.14v3.33h4.52l3.89,16h18.23v-14Zm14.89,10.69H905.23l-1.79-7.36h14.08Z"></path><circle class="cls-2" cx="905.75" cy="1735.74" r="3.33"></circle><circle class="cls-2" cx="917.4" cy="1735.74" r="3.33"></circle><polygon class="cls-30" points="543.83 1767.19 547.27 1777.79 558.41 1777.79 549.39 1784.33 552.84 1794.93 543.83 1788.38 534.81 1794.93 538.25 1784.33 529.24 1777.79 540.38 1777.79 543.83 1767.19"></polygon><polygon class="cls-30" points="578.69 1767.19 582.14 1777.79 593.28 1777.79 584.26 1784.33 587.71 1794.93 578.69 1788.38 569.68 1794.93 573.12 1784.33 564.11 1777.79 575.25 1777.79 578.69 1767.19"></polygon><polygon class="cls-30" points="613.56 1767.19 617 1777.79 628.15 1777.79 619.13 1784.33 622.58 1794.93 613.56 1788.38 604.55 1794.93 607.99 1784.33 598.98 1777.79 610.12 1777.79 613.56 1767.19"></polygon><polygon class="cls-30" points="648.43 1767.19 651.87 1777.79 663.01 1777.79 654 1784.33 657.44 1794.93 648.43 1788.38 639.42 1794.93 642.86 1784.33 633.85 1777.79 644.99 1777.79 648.43 1767.19"></polygon><polygon class="cls-30" points="683.3 1767.19 686.74 1777.79 697.88 1777.79 688.87 1784.33 692.31 1794.93 683.3 1788.38 674.28 1794.93 677.73 1784.33 668.71 1777.79 679.86 1777.79 683.3 1767.19"></polygon><g class="cls-35"><image width="736" height="1104" transform="translate(1370.52 1059.24) scale(0.6)"></image></g><text class="cls-22" transform="translate(1401.26 1713.76)"><tspan class="cls-23">T</tspan><tspan class="cls-24" x="14.85" y="0">r</tspan><tspan x="25.56" y="0">ad</tspan><tspan class="cls-25" x="58.71" y="0">v</tspan><tspan x="73.29" y="0">eller </tspan><tspan class="cls-36" x="137.25" y="0">A</tspan><tspan x="156.96" y="0">ccessories</tspan></text><text class="cls-29" transform="translate(1402.98 1750.36)">RM 30</text><circle cx="1775.65" cy="1725.69" r="31.42"></circle><path class="cls-2" d="M1768.46,1717.59l-1.29-5.28H1760v3.33h4.52l3.88,16h18.24v-14Zm14.89,10.69h-12.29l-1.79-7.36h14.08Z"></path><circle class="cls-2" cx="1771.57" cy="1735.74" r="3.33"></circle><circle class="cls-2" cx="1783.23" cy="1735.74" r="3.33"></circle><polygon class="cls-30" points="1414.18 1767.19 1417.63 1777.79 1428.77 1777.79 1419.75 1784.33 1423.2 1794.93 1414.18 1788.38 1405.17 1794.93 1408.61 1784.33 1399.6 1777.79 1410.74 1777.79 1414.18 1767.19"></polygon><polygon class="cls-30" points="1449.05 1767.19 1452.49 1777.79 1463.64 1777.79 1454.62 1784.33 1458.07 1794.93 1449.05 1788.38 1440.04 1794.93 1443.48 1784.33 1434.47 1777.79 1445.61 1777.79 1449.05 1767.19"></polygon><polygon class="cls-30" points="1483.92 1767.19 1487.36 1777.79 1498.5 1777.79 1489.49 1784.33 1492.93 1794.93 1483.92 1788.38 1474.91 1794.93 1478.35 1784.33 1469.34 1777.79 1480.48 1777.79 1483.92 1767.19"></polygon><polygon class="cls-30" points="1518.79 1767.19 1522.23 1777.79 1533.37 1777.79 1524.36 1784.33 1527.8 1794.93 1518.79 1788.38 1509.77 1794.93 1513.22 1784.33 1504.2 1777.79 1515.35 1777.79 1518.79 1767.19"></polygon><polygon class="cls-30" points="1553.66 1767.19 1557.1 1777.79 1568.24 1777.79 1559.23 1784.33 1562.67 1794.93 1553.66 1788.38 1544.64 1794.93 1548.09 1784.33 1539.07 1777.79 1550.21 1777.79 1553.66 1767.19"></polygon><text class="cls-37" transform="translate(859.93 649.36)">INT<tspan class="cls-38" x="45.79" y="0">R</tspan><tspan x="63.72" y="0">ODUCING</tspan></text><text class="cls-37" transform="translate(737.59 795.73)"><tspan class="cls-39">W</tspan><tspan x="26.56" y="0">e </tspan><tspan class="cls-40" x="48.45" y="0">T</tspan><tspan class="cls-41" x="63.15" y="0">r</tspan><tspan x="73.78" y="0">ade &amp; </tspan><tspan class="cls-42" x="152.49" y="0">W</tspan><tspan x="179.05" y="0">e </tspan><tspan class="cls-43" x="200.94" y="0">T</tspan><tspan class="cls-44" x="215.64" y="0">ra</tspan><tspan class="cls-45" x="241.21" y="0">v</tspan><tspan class="cls-46" x="255.51" y="0">el — with Style</tspan></text><path class="cls-2" d="M708.39,742.33V694.67H692v-9.86h43.87v9.86H719v47.66Z"></path><path class="cls-2" d="M746.35,742.33V684.81h25.07a18.61,18.61,0,0,1,9.36,2.43,18.27,18.27,0,0,1,6.78,6.57,17.72,17.72,0,0,1,2.51,9.33,17.06,17.06,0,0,1-2.51,9,18.79,18.79,0,0,1-6.74,6.57,18.35,18.35,0,0,1-9.4,2.47H756.79v21.11Zm10.44-30.48H771.5a7.72,7.72,0,0,0,4.11-1.11,7.52,7.52,0,0,0,2.79-3,9.35,9.35,0,0,0,1-4.32,8.58,8.58,0,0,0-1.24-4.68,8.71,8.71,0,0,0-3.45-3.12,10.88,10.88,0,0,0-5.09-1.15H756.79Zm23,30.48-14.63-26,10.93-2.06,16.27,28.11Z"></path><path class="cls-2" d="M797.38,742.33l22.43-57.52h10L852,742.33H841l-12.41-32.87c-.22-.6-.57-1.61-1-3s-1-3-1.52-4.68l-1.52-4.68c-.47-1.43-.78-2.5-.95-3.21l2.06-.08c-.33,1.1-.71,2.34-1.15,3.74s-.91,2.83-1.4,4.31-1,2.91-1.48,4.28-.93,2.6-1.31,3.69L808,742.33Zm10.19-13.23,3.62-9.2H837.4l4,9.2Z"></path><path class="cls-2" d="M861.15,742.33V684.81h23.09a29.77,29.77,0,0,1,11.3,2.06,24.41,24.41,0,0,1,8.67,5.91,27.07,27.07,0,0,1,5.58,9.13,32.83,32.83,0,0,1,2,11.66,33.19,33.19,0,0,1-2,11.71,26.73,26.73,0,0,1-5.54,9.12,24.07,24.07,0,0,1-8.67,5.88,30.09,30.09,0,0,1-11.34,2.05Zm10.6-8.3-.74-1.56h12.82a18.86,18.86,0,0,0,7.23-1.31,14.56,14.56,0,0,0,5.38-3.74,17,17,0,0,0,3.37-6,24.67,24.67,0,0,0,1.19-7.89,24.26,24.26,0,0,0-1.19-7.84,17,17,0,0,0-3.41-6A14.91,14.91,0,0,0,891,696a18.54,18.54,0,0,0-7.19-1.32H870.76l1-1.39Z"></path><path class="cls-2" d="M937.57,742.33l-23-57.52h11.59l12.81,33q1,2.55,1.73,4.57c.49,1.34.93,2.57,1.31,3.69s.74,2.21,1.07,3.25.66,2.14,1,3.29h-2.22c.38-1.48.79-2.95,1.23-4.4s.95-3,1.52-4.68,1.28-3.58,2.1-5.72l12-33h11.66l-23.09,57.52Z"></path><path class="cls-2" d="M979.56,742.33V684.81h37.55v9.7h-27v38.13h27.36v9.69Zm4.93-24.65v-9.53h28.43v9.53Z"></path><path class="cls-2" d="M1030.83,742.33V684.81h10.6v47.66H1068v9.86Z"></path><path class="cls-2" d="M1080.38,742.33V684.81H1091v47.66h26.54v9.86Z"></path><path class="cls-2" d="M1129.93,742.33V684.81h37.56v9.7h-27v38.13h27.36v9.69Zm4.93-24.65v-9.53h28.43v9.53Z"></path><path class="cls-2" d="M1181.21,742.33V684.81h25.06a18.62,18.62,0,0,1,9.37,2.43,18.27,18.27,0,0,1,6.78,6.57,17.71,17.71,0,0,1,2.5,9.33,17.05,17.05,0,0,1-2.5,9,18.87,18.87,0,0,1-6.74,6.57,18.39,18.39,0,0,1-9.41,2.47h-14.63v21.11Zm10.43-30.48h14.71a7.67,7.67,0,0,0,4.11-1.11,7.38,7.38,0,0,0,2.79-3,9.35,9.35,0,0,0,1-4.32,8.32,8.32,0,0,0-4.68-7.8,10.89,10.89,0,0,0-5.1-1.15h-12.82Zm23,30.48-14.62-26,10.92-2.06,16.27,28.11Z"></path><use transform="translate(60.7 70.67) scale(0.04)" xlink:href="#image"></use><path class="cls-2" d="M1697.19,122.84,1690,115.6a9.68,9.68,0,0,0,2.25-3.65,9.84,9.84,0,1,0-5,5.65l7.6,7.59Zm-16.35-7.91a6.47,6.47,0,0,1-4-8.22,6.49,6.49,0,0,1,6.14-4.39,6.56,6.56,0,0,1,2.08.34,6.48,6.48,0,0,1-4.17,12.27Z"></path><path class="cls-2" d="M1746.23,104.47,1745,99.19h-7.14v3.33h4.52l3.89,16h18.24v-14Zm14.9,10.69h-12.29l-1.8-7.36h14.09Z"></path><circle class="cls-2" cx="1749.35" cy="122.62" r="3.33"></circle><circle class="cls-2" cx="1761.01" cy="122.62" r="3.33"></circle><text class="cls-47" transform="translate(380.43 116.09)"><tspan class="cls-48">T</tspan><tspan class="cls-49" x="9.47" y="0">-</tspan><tspan class="cls-50" x="18.2" y="0">SHI</tspan><tspan class="cls-51" x="50.12" y="0">R</tspan><tspan x="62.2" y="0">T</tspan></text><text class="cls-47" transform="translate(508.15 116.09)"><tspan class="cls-52">J</tspan><tspan class="cls-53" x="10.71" y="0">A</tspan><tspan x="23.66" y="0">CKET</tspan></text><text class="cls-54" transform="translate(642.17 116.09)">C<tspan class="cls-55" x="13.94" y="0">AP</tspan></text><text class="cls-47" transform="translate(744.84 116.09)"><tspan class="cls-53">A</tspan><tspan x="12.95" y="0">CC</tspan><tspan class="cls-56" x="41.04" y="0">E</tspan><tspan class="cls-50" x="51.5" y="0">SSORI</tspan><tspan class="cls-57" x="109.04" y="0">E</tspan><tspan x="119.5" y="0">S</tspan></text><text class="cls-47" transform="translate(932.36 116.09)">OUR <tspan class="cls-58" x="45.62" y="0">S</tspan><tspan class="cls-59" x="57.47" y="0">T</tspan><tspan x="67.58" y="0">O</tspan><tspan class="cls-60" x="82.86" y="0">R</tspan><tspan x="94.76" y="0">Y</tspan></text><text class="cls-61" transform="translate(796.84 36.7)">FREE SHIPPIN WHEN <tspan class="cls-62" x="192.42" y="0">Y</tspan><tspan x="203.72" y="0">OUR ORDER IS A</tspan><tspan class="cls-63" x="355.88" y="0">B</tspan><tspan class="cls-64" x="368.04" y="0">O</tspan><tspan x="383.47" y="0">VE RM150 AND A</tspan><tspan class="cls-63" x="537.37" y="0">B</tspan><tspan class="cls-64" x="549.54" y="0">O</tspan><tspan x="564.96" y="0">VE</tspan></text><rect class="cls-2" x="701.77" y="13.17" width="79.66" height="33.7" rx="5"></rect><text class="cls-65" transform="translate(710.88 35.34)">P<tspan class="cls-66" x="9.93" y="0">R</tspan><tspan x="20.63" y="0">OMO</tspan></text><g class="cls-67"><image width="4160" height="6240" transform="translate(862.23 1006.02) scale(0.14)"></image></g><text class="cls-22" transform="translate(963.72 1713.76)"><tspan class="cls-23">T</tspan><tspan class="cls-24" x="14.85" y="0">r</tspan><tspan x="25.56" y="0">ad</tspan><tspan class="cls-68" x="58.71" y="0">v</tspan><tspan class="cls-34" x="73.29" y="0">eller Cap</tspan></text><text class="cls-29" transform="translate(965.44 1750.36)">RM 50</text><polygon class="cls-30" points="976.79 1767.19 980.24 1777.79 991.38 1777.79 982.36 1784.33 985.81 1794.93 976.79 1788.38 967.78 1794.93 971.22 1784.33 962.21 1777.79 973.35 1777.79 976.79 1767.19"></polygon><polygon class="cls-30" points="1011.66 1767.19 1015.1 1777.79 1026.24 1777.79 1017.23 1784.33 1020.67 1794.93 1011.66 1788.38 1002.65 1794.93 1006.09 1784.33 997.08 1777.79 1008.22 1777.79 1011.66 1767.19"></polygon><polygon class="cls-30" points="1046.53 1767.19 1049.97 1777.79 1061.11 1777.79 1052.1 1784.33 1055.54 1794.93 1046.53 1788.38 1037.52 1794.93 1040.96 1784.33 1031.94 1777.79 1043.09 1777.79 1046.53 1767.19"></polygon><polygon class="cls-30" points="1081.4 1767.19 1084.84 1777.79 1095.98 1777.79 1086.97 1784.33 1090.41 1794.93 1081.4 1788.38 1072.38 1794.93 1075.83 1784.33 1066.81 1777.79 1077.95 1777.79 1081.4 1767.19"></polygon><polygon class="cls-30" points="1116.27 1767.19 1119.71 1777.79 1130.85 1777.79 1121.84 1784.33 1125.28 1794.93 1116.27 1788.38 1107.25 1794.93 1110.69 1784.33 1101.68 1777.79 1112.82 1777.79 1116.27 1767.19"></polygon><circle cx="1338.26" cy="1725.69" r="31.42"></circle><path class="cls-2" d="M1331.07,1717.59l-1.29-5.28h-7.13v3.33h4.51l3.89,16h18.24v-14Zm14.89,10.69h-12.29l-1.79-7.36H1346Z"></path><circle class="cls-2" cx="1334.18" cy="1735.74" r="3.33"></circle><circle class="cls-2" cx="1345.84" cy="1735.74" r="3.33"></circle><rect class="cls-2" x="172.22" y="2433.38" width="200.03" height="50.82" rx="6.98"></rect><text class="cls-69" transform="translate(209.51 2468.2)">Shop n<tspan class="cls-70" x="89.1" y="0">o</tspan><tspan x="105.77" y="0">w</tspan></text><rect class="cls-2" x="172.22" y="3783.24" width="200.03" height="50.82" rx="6.98"></rect><text class="cls-69" transform="translate(209.51 3818.07)">Shop n<tspan class="cls-70" x="89.1" y="0">o</tspan><tspan x="105.77" y="0">w</tspan></text><path d="M764.32,1119.86a23.85,23.85,0,0,1-9.56-1.89,23.31,23.31,0,0,1-7.63-5.28,24.08,24.08,0,0,1-5-8,29.23,29.23,0,0,1,0-20.09,23.88,23.88,0,0,1,5-8,23.19,23.19,0,0,1,7.63-5.29,25.1,25.1,0,0,1,19.11,0,23,23,0,0,1,7.63,5.32,24.36,24.36,0,0,1,5,8,28.69,28.69,0,0,1,0,20,24.31,24.31,0,0,1-5,8,22.88,22.88,0,0,1-7.63,5.32A23.8,23.8,0,0,1,764.32,1119.86Zm0-7.35a15.77,15.77,0,0,0,6.54-1.33,15,15,0,0,0,5.15-3.74,17.72,17.72,0,0,0,3.39-5.67,21.14,21.14,0,0,0,0-14.21,17.72,17.72,0,0,0-3.39-5.67,15.2,15.2,0,0,0-5.15-3.75,16,16,0,0,0-18.27,3.71,16.53,16.53,0,0,0-3.39,5.64,20.59,20.59,0,0,0-1.19,7.17,19.63,19.63,0,0,0,2.1,9.21,16.13,16.13,0,0,0,5.77,6.33A15.51,15.51,0,0,0,764.32,1112.51Z"></path><path d="M809.61,1119.86a12.62,12.62,0,0,1-6.83-1.82,12,12,0,0,1-4.48-5.11,18,18,0,0,1-1.57-7.84v-22.68h7.21v20.72a11.78,11.78,0,0,0,2.27,7.63,7.71,7.71,0,0,0,6.34,2.8,10.08,10.08,0,0,0,3.71-.66,8.65,8.65,0,0,0,2.9-1.86,8.49,8.49,0,0,0,1.93-2.87,9.48,9.48,0,0,0,.7-3.64v-22.12H829v36.75h-7.21v-7.7l1.26-.84a12.23,12.23,0,0,1-2.84,4.69,14.85,14.85,0,0,1-4.72,3.33A14.3,14.3,0,0,1,809.61,1119.86Z"></path><path d="M839.08,1119.16v-36.75h7.28V1094l-.7-2.8a13,13,0,0,1,2.62-4.83,14.42,14.42,0,0,1,4.27-3.43,10.7,10.7,0,0,1,5-1.26,11.9,11.9,0,0,1,2.27.21,8.54,8.54,0,0,1,1.72.49l-1.89,7.84a12.33,12.33,0,0,0-1.86-.59,8.1,8.1,0,0,0-2-.25,9.11,9.11,0,0,0-3.61.74,9.52,9.52,0,0,0-3,2,9.88,9.88,0,0,0-2.06,3,8.91,8.91,0,0,0-.77,3.74v20.3Z"></path><path d="M888.71,1119.16v-49h19.95a13.58,13.58,0,0,1,7.24,2,15,15,0,0,1,5.22,5.42,15.83,15.83,0,0,1,0,15.26,15.56,15.56,0,0,1-5.22,5.5,13.28,13.28,0,0,1-7.24,2.06H896.27v18.76Zm7.56-26h12.25A5.84,5.84,0,0,0,912,1092a8.16,8.16,0,0,0,2.48-2.87,8.33,8.33,0,0,0,1-4,8.15,8.15,0,0,0-1-3.92,7.92,7.92,0,0,0-2.48-2.8,6,6,0,0,0-3.43-1H896.27Z"></path><path d="M931.27,1119.16v-36.75h7.28V1094l-.7-2.8a13,13,0,0,1,2.62-4.83,14.42,14.42,0,0,1,4.27-3.43,10.7,10.7,0,0,1,5-1.26,11.9,11.9,0,0,1,2.27.21,8.54,8.54,0,0,1,1.72.49l-1.89,7.84a12.33,12.33,0,0,0-1.86-.59,8.1,8.1,0,0,0-2-.25,9.11,9.11,0,0,0-3.61.74,9.52,9.52,0,0,0-3,2,9.88,9.88,0,0,0-2.06,3,8.91,8.91,0,0,0-.77,3.74v20.3Z"></path><path d="M974.46,1119.86a18.74,18.74,0,0,1-9.63-2.48,18.14,18.14,0,0,1-6.68-6.79,21,21,0,0,1,0-19.67,18.07,18.07,0,0,1,6.68-6.79,19.71,19.71,0,0,1,19.18,0,18.17,18.17,0,0,1,6.69,6.79,21,21,0,0,1,0,19.67,18.24,18.24,0,0,1-6.69,6.79A18.58,18.58,0,0,1,974.46,1119.86Zm0-6.58a10.8,10.8,0,0,0,5.88-1.64,11.5,11.5,0,0,0,4.06-4.48,13.23,13.23,0,0,0,1.4-6.41,13.36,13.36,0,0,0-1.4-6.47,11.27,11.27,0,0,0-4.06-4.45,11.49,11.49,0,0,0-11.8,0,11.28,11.28,0,0,0-4.09,4.48,15.35,15.35,0,0,0,0,12.81,11.34,11.34,0,0,0,4.09,4.48A11,11,0,0,0,974.46,1113.28Z"></path><path d="M1016.32,1119.86a16.63,16.63,0,0,1-9-2.48,17.83,17.83,0,0,1-6.26-6.79,22.26,22.26,0,0,1,0-19.67,17.54,17.54,0,0,1,6.2-6.79,16.2,16.2,0,0,1,8.89-2.49,16,16,0,0,1,5.28.88,16.51,16.51,0,0,1,4.59,2.38,12.79,12.79,0,0,1,3.18,3.29,6.58,6.58,0,0,1,1.16,3.6l-2.1.14v-24.57h7.21v51.8h-7.21v-8.75h1.4a5.93,5.93,0,0,1-1.12,3.33,13.14,13.14,0,0,1-3,3,15.19,15.19,0,0,1-4.27,2.24A14.89,14.89,0,0,1,1016.32,1119.86Zm1-6.23a10.24,10.24,0,0,0,5.81-1.68,11.47,11.47,0,0,0,3.95-4.58,15.91,15.91,0,0,0,0-13.23,11.43,11.43,0,0,0-3.95-4.59,10.89,10.89,0,0,0-11.62,0,11.53,11.53,0,0,0-4,4.59,16,16,0,0,0,0,13.23,11.57,11.57,0,0,0,4,4.58A10.21,10.21,0,0,0,1017.3,1113.63Z"></path><path d="M1059.37,1119.86a12.62,12.62,0,0,1-6.83-1.82,11.89,11.89,0,0,1-4.48-5.11,18,18,0,0,1-1.57-7.84v-22.68h7.21v20.72a11.72,11.72,0,0,0,2.27,7.63,7.71,7.71,0,0,0,6.34,2.8,10.08,10.08,0,0,0,3.71-.66,8.75,8.75,0,0,0,2.9-1.86,8.49,8.49,0,0,0,1.93-2.87,9.48,9.48,0,0,0,.7-3.64v-22.12h7.21v36.75h-7.21v-7.7l1.26-.84a12.23,12.23,0,0,1-2.84,4.69,14.85,14.85,0,0,1-4.72,3.33A14.3,14.3,0,0,1,1059.37,1119.86Z"></path><path d="M1104.45,1119.86a16.85,16.85,0,0,1-9.14-2.52,18,18,0,0,1-6.37-6.86,21.4,21.4,0,0,1,0-19.46,18.07,18.07,0,0,1,6.37-6.86,16.85,16.85,0,0,1,9.14-2.52,19.81,19.81,0,0,1,8.92,2,14.59,14.59,0,0,1,6.13,5.42l-4,4.9a13.49,13.49,0,0,0-2.87-2.94,16.12,16.12,0,0,0-3.71-2.1,10.41,10.41,0,0,0-3.78-.77,11,11,0,0,0-6,1.65,11.69,11.69,0,0,0-4.16,4.51,13.38,13.38,0,0,0-1.54,6.44,12.69,12.69,0,0,0,1.61,6.41,12.5,12.5,0,0,0,4.27,4.51,10.77,10.77,0,0,0,5.88,1.68,10.93,10.93,0,0,0,3.67-.63,13,13,0,0,0,3.47-1.89,17.56,17.56,0,0,0,3.15-3.08l4,4.9a16.54,16.54,0,0,1-6.41,5.18A19.42,19.42,0,0,1,1104.45,1119.86Z"></path><path d="M1123.21,1089.41v-7h23.37v7Zm7.62,29.75V1073H1138v46.13Z"></path><path d="M1166.81,1119.86a20.63,20.63,0,0,1-8.33-1.61,15.52,15.52,0,0,1-6.16-4.76l4.9-4.2a12.88,12.88,0,0,0,4.59,3.54,14,14,0,0,0,5.63,1.08,8.45,8.45,0,0,0,2.35-.31,5.6,5.6,0,0,0,1.89-.95,4.28,4.28,0,0,0,1.22-1.5,4.43,4.43,0,0,0,.42-1.93,3.66,3.66,0,0,0-1.33-2.94,11.18,11.18,0,0,0-2.2-1.08,35.27,35.27,0,0,0-3.89-1.23,32.71,32.71,0,0,1-6.65-2.38,12.65,12.65,0,0,1-4-3,8.92,8.92,0,0,1-1.54-2.9,11.87,11.87,0,0,1-.49-3.47,9,9,0,0,1,1.75-5.46,11.9,11.9,0,0,1,4.73-3.74,15.83,15.83,0,0,1,6.68-1.37,19.72,19.72,0,0,1,5.15.7,18.44,18.44,0,0,1,4.72,2,14.15,14.15,0,0,1,3.64,3.15l-4.13,4.55a17.18,17.18,0,0,0-2.9-2.34,15,15,0,0,0-3.19-1.58,9.08,9.08,0,0,0-2.94-.56,12.07,12.07,0,0,0-2.66.28,5.86,5.86,0,0,0-2,.84,3.74,3.74,0,0,0-1.23,1.4,4.17,4.17,0,0,0-.42,1.89,4.82,4.82,0,0,0,.46,1.72,3.86,3.86,0,0,0,1.08,1.36,11.47,11.47,0,0,0,2.31,1.19,26.75,26.75,0,0,0,3.92,1.19,32.49,32.49,0,0,1,5.78,2,12.06,12.06,0,0,1,3.6,2.48,7.21,7.21,0,0,1,2,3.08,12.67,12.67,0,0,1,.56,3.92,9.44,9.44,0,0,1-1.78,5.64,12,12,0,0,1-4.8,3.88A15.6,15.6,0,0,1,1166.81,1119.86Z"></path><path class="cls-2" d="M1806.58,107.21h21.09a1.09,1.09,0,0,0,1.09-1.09h0a1.09,1.09,0,0,0-1.09-1.1h-21.09a1.1,1.1,0,0,0-1.1,1.1h0A1.09,1.09,0,0,0,1806.58,107.21Z"></path><path class="cls-2" d="M1806.58,115.4h21.09a1.09,1.09,0,0,0,1.09-1.09h0a1.09,1.09,0,0,0-1.09-1.1h-21.09a1.1,1.1,0,0,0-1.1,1.1h0A1.09,1.09,0,0,0,1806.58,115.4Z"></path><path class="cls-2" d="M1806.58,123.59h21.09a1.09,1.09,0,0,0,1.09-1.1h0a1.09,1.09,0,0,0-1.09-1.09h-21.09a1.09,1.09,0,0,0-1.1,1.09h0A1.1,1.1,0,0,0,1806.58,123.59Z"></path><rect y="4044.3" width="1921" height="329.1"></rect><text class="cls-71" transform="translate(1627.58 4140.53)"><tspan class="cls-72">F</tspan><tspan x="14.43" y="0">oll</tspan><tspan class="cls-73" x="48.37" y="0">o</tspan><tspan x="65.93" y="0">w us</tspan></text><text class="cls-71" transform="translate(1316.63 4140.53)">N<tspan class="cls-74" x="22.83" y="0">a</tspan><tspan x="38.12" y="0">viga</tspan><tspan class="cls-75" x="95.52" y="0">t</tspan><tspan class="cls-76" x="106.79" y="0">e </tspan><tspan class="cls-74" x="128.8" y="0">P</tspan><tspan x="145.94" y="0">ages</tspan></text><use transform="translate(107.64 4068.98) scale(0.06)" xlink:href="#image"></use><path class="cls-2" d="M1637.67,4193.54V4183h-1.79v-3.13h1.79v-.53a6.21,6.21,0,0,1,1.73-4.58,5.55,5.55,0,0,1,3.78-1.37,8.06,8.06,0,0,1,2.26.28l-.17,3.27a4.31,4.31,0,0,0-1.37-.2c-1.39,0-2,1.09-2,2.43v.7h2.74V4183H1642v10.54Z"></path><path class="cls-2" d="M1645.93,4225.94a1.19,1.19,0,1,0,1.19,1.18A1.18,1.18,0,0,0,1645.93,4225.94Z"></path><path class="cls-2" d="M1640.66,4227.32a5.07,5.07,0,1,0,5.07,5.07A5.07,5.07,0,0,0,1640.66,4227.32Zm0,8.36a3.29,3.29,0,1,1,3.29-3.29A3.29,3.29,0,0,1,1640.66,4235.68Z"></path><path class="cls-2" d="M1650.48,4228.32a7.44,7.44,0,0,0-.46-2.4,5,5,0,0,0-2.89-2.88,6.94,6.94,0,0,0-2.4-.46c-1-.05-1.39-.06-4.07-.06s-3,0-4.07.06a6.94,6.94,0,0,0-2.4.46,4.95,4.95,0,0,0-2.88,2.88,6.94,6.94,0,0,0-.46,2.4c0,1.05-.06,1.39-.06,4.07s0,3,.06,4.07a6.94,6.94,0,0,0,.46,2.4,5,5,0,0,0,2.88,2.89,7.44,7.44,0,0,0,2.4.46c1.05,0,1.39.06,4.07.06s3,0,4.07-.06a7.44,7.44,0,0,0,2.4-.46,5.06,5.06,0,0,0,2.89-2.89,7.44,7.44,0,0,0,.46-2.4c0-1.05.06-1.39.06-4.07S1650.52,4229.37,1650.48,4228.32Zm-1.78,8.06a5.44,5.44,0,0,1-.34,1.83,3,3,0,0,1-.74,1.14,3,3,0,0,1-1.13.74,5.58,5.58,0,0,1-1.84.34c-1,0-1.35.06-4,.06s-3,0-4-.06a5.5,5.5,0,0,1-1.83-.34,3.08,3.08,0,0,1-1.14-.74,3.12,3.12,0,0,1-.74-1.14,5.71,5.71,0,0,1-.34-1.83c0-1,0-1.35,0-4s0-3,0-4a5.78,5.78,0,0,1,.34-1.83,3.27,3.27,0,0,1,1.88-1.88,5.78,5.78,0,0,1,1.83-.34c1,0,1.36-.05,4-.05s2.95,0,4,.05a5.86,5.86,0,0,1,1.84.34,3.17,3.17,0,0,1,1.13.74,3.08,3.08,0,0,1,.74,1.14,5.5,5.5,0,0,1,.34,1.83c0,1,.06,1.35.06,4S1648.75,4235.34,1648.7,4236.38Z"></path><text class="cls-77" transform="translate(141.24 4241.7)">@2022</text><text class="cls-77" transform="translate(141.24 4264.73)"><tspan class="cls-78">A</tspan><tspan x="10.5" y="0">ll righ</tspan><tspan class="cls-79" x="50.16" y="0">t</tspan><tspan x="56.07" y="0">s </tspan><tspan class="cls-80" x="66.77" y="0">r</tspan><tspan x="72.42" y="0">ese</tspan><tspan class="cls-81" x="97.06" y="0">r</tspan><tspan class="cls-82" x="103.05" y="0">v</tspan><tspan class="cls-83" x="110.74" y="0">ed</tspan></text><text class="cls-84" transform="translate(1668.98 4191.66)"><tspan class="cls-85">T</tspan><tspan class="cls-86" x="8.39" y="0">r</tspan><tspan x="14.4" y="0">ad</tspan><tspan class="cls-87" x="33.2" y="0">v</tspan><tspan x="41.27" y="0">eller </tspan><tspan class="cls-85" x="77.29" y="0">T</tspan><tspan class="cls-88" x="85.68" y="0">r</tspan><tspan x="91.62" y="0">end</tspan></text><text class="cls-84" transform="translate(1668.98 4238.64)"><tspan class="cls-85">T</tspan><tspan class="cls-86" x="8.39" y="0">r</tspan><tspan x="14.4" y="0">ad</tspan><tspan class="cls-87" x="33.2" y="0">v</tspan><tspan x="41.27" y="0">eller </tspan><tspan class="cls-85" x="77.29" y="0">T</tspan><tspan class="cls-88" x="85.68" y="0">r</tspan><tspan x="91.62" y="0">end</tspan></text><text class="cls-84" transform="translate(1320.22 4191.66)">HOME</text><text class="cls-84" transform="translate(1320.22 4238.64)">OUR <tspan class="cls-89" x="38.73" y="0">S</tspan><tspan class="cls-90" x="48.92" y="0">T</tspan><tspan x="57.39" y="0">O</tspan><tspan class="cls-91" x="70.39" y="0">R</tspan><tspan x="80.35" y="0">Y</tspan></text><text class="cls-84" transform="translate(1320.22 4285.79)">OUR P<tspan class="cls-92" x="48.18" y="0">R</tspan><tspan x="58.29" y="0">ODU</tspan><tspan class="cls-93" x="95.14" y="0">C</tspan><tspan class="cls-90" x="107.01" y="0">T</tspan><tspan x="115.48" y="0">S</tspan></text><g class="cls-94"><use transform="translate(1186.76 28.01) scale(1.46)" xlink:href="#image-2"></use></g><g class="cls-95"><use transform="translate(629.74 -247.75) scale(3.2)" xlink:href="#image-2"></use></g><g class="cls-96"><use transform="translate(1591.63 -109.59) scale(1.87)" xlink:href="#image-2"></use></g><g class="cls-97"><use transform="translate(110.99 916.55) scale(0.36)" xlink:href="#image-3"></use></g><g class="cls-98"><use transform="translate(110.99 916.55) scale(0.36)" xlink:href="#image-3"></use></g><rect class="cls-99" x="1754.98" y="83.51" width="24.87" height="14.98" rx="2.84"></rect><text class="cls-100" transform="translate(1758.04 94.68)">99+</text></g></svg>