<svg xmlns="http://www.w3.org/2000/svg" xmlns:xlink="http://www.w3.org/1999/xlink" viewBox="0 0 1920 1597.49"><defs><image id="image" width="6702" height="2084"></image></defs><title>Tradveller_Merch Landing Page</title><g id="Layer_2" data-name="Layer 2"><rect width="1920" height="65.68"></rect><rect class="cls-1" y="60.69" width="1920" height="1205.11"></rect><text class="cls-2" transform="translate(745.4 591.45)"><tspan class="cls-3">P</tspan><tspan x="33.73" y="0">age Not </tspan><tspan class="cls-4" x="260.85" y="0">F</tspan><tspan x="290.12" y="0">ound</tspan></text><path class="cls-5" d="M860.11,499.81V405.2L868,406,828.4,454.52l-1.84-3H901v19H814.81l-9-17.45,58.2-71h17.11V499.81Z"></path><path class="cls-5" d="M960.42,501.49q-14.26,0-24.33-7.3t-15.51-20.8q-5.46-13.5-5.45-32.29t5.45-32.29q5.45-13.5,15.51-20.8t24.33-7.3q14.25,0,24.4,7.3t15.6,20.8q5.46,13.5,5.46,32.29t-5.46,32.29q-5.45,13.51-15.6,20.8T960.42,501.49Zm0-19.12q11.73,0,18.11-10.82t6.38-30.45q0-20-6.38-30.78T960.42,399.5q-11.74,0-18.2,10.82t-6.46,30.78q0,19.63,6.46,30.45T960.42,482.37Z"></path><path class="cls-5" d="M1072,499.81V405.2l7.88.84-39.59,48.48-1.84-3h74.48v19h-86.22L1017.62,453l58.21-71h17.11V499.81Z"></path><use transform="translate(60.7 70.67) scale(0.04)" xlink:href="#image"></use><path class="cls-5" d="M1697.19,122.84,1690,115.6a9.68,9.68,0,0,0,2.25-3.65,9.84,9.84,0,1,0-5,5.65l7.6,7.59Zm-16.35-7.91a6.47,6.47,0,0,1-4-8.22,6.49,6.49,0,0,1,6.14-4.39,6.56,6.56,0,0,1,2.08.34,6.48,6.48,0,0,1-4.17,12.27Z"></path><path class="cls-5" d="M1746.23,104.47,1745,99.19h-7.14v3.33h4.52l3.89,16h18.24v-14Zm14.9,10.69h-12.29l-1.8-7.36h14.09Z"></path><circle class="cls-5" cx="1749.35" cy="122.62" r="3.33"></circle><circle class="cls-5" cx="1761.01" cy="122.62" r="3.33"></circle><text class="cls-6" transform="translate(380.44 116.09)"><tspan class="cls-7">T</tspan><tspan class="cls-8" x="9.47" y="0">-</tspan><tspan class="cls-9" x="18.2" y="0">SHI</tspan><tspan class="cls-10" x="50.12" y="0">R</tspan><tspan x="62.2" y="0">T</tspan></text><text class="cls-6" transform="translate(508.15 116.09)"><tspan class="cls-11">J</tspan><tspan class="cls-12" x="10.71" y="0">A</tspan><tspan x="23.66" y="0">CKET</tspan></text><text class="cls-13" transform="translate(642.17 116.09)">C<tspan class="cls-14" x="13.94" y="0">AP</tspan></text><text class="cls-6" transform="translate(744.84 116.09)"><tspan class="cls-12">A</tspan><tspan x="12.95" y="0">CC</tspan><tspan class="cls-15" x="41.04" y="0">E</tspan><tspan class="cls-9" x="51.5" y="0">SSORI</tspan><tspan class="cls-16" x="109.04" y="0">E</tspan><tspan x="119.5" y="0">S</tspan></text><text class="cls-6" transform="translate(932.36 116.09)">OUR <tspan class="cls-17" x="45.62" y="0">S</tspan><tspan class="cls-18" x="57.47" y="0">T</tspan><tspan x="67.58" y="0">O</tspan><tspan class="cls-19" x="82.86" y="0">R</tspan><tspan x="94.76" y="0">Y</tspan></text><text class="cls-20" transform="translate(796.84 36.7)">FREE SHIPPIN WHEN <tspan class="cls-21" x="192.42" y="0">Y</tspan><tspan x="203.72" y="0">OUR ORDER IS A</tspan><tspan class="cls-22" x="355.88" y="0">B</tspan><tspan class="cls-23" x="368.04" y="0">O</tspan><tspan x="383.47" y="0">VE RM150 AND A</tspan><tspan class="cls-22" x="537.37" y="0">B</tspan><tspan class="cls-23" x="549.54" y="0">O</tspan><tspan x="564.96" y="0">VE</tspan></text><rect class="cls-5" x="701.77" y="13.17" width="79.66" height="33.7" rx="5"></rect><text class="cls-24" transform="translate(710.87 35.34)">P<tspan class="cls-25" x="9.93" y="0">R</tspan><tspan x="20.63" y="0">OMO</tspan></text><path class="cls-5" d="M1806.58,107.21h21.09a1.09,1.09,0,0,0,1.09-1.09h0a1.09,1.09,0,0,0-1.09-1.1h-21.09a1.1,1.1,0,0,0-1.1,1.1h0A1.09,1.09,0,0,0,1806.58,107.21Z"></path><path class="cls-5" d="M1806.58,115.4h21.09a1.09,1.09,0,0,0,1.09-1.09h0a1.09,1.09,0,0,0-1.09-1.1h-21.09a1.1,1.1,0,0,0-1.1,1.1h0A1.09,1.09,0,0,0,1806.58,115.4Z"></path><path class="cls-5" d="M1806.58,123.59h21.09a1.09,1.09,0,0,0,1.09-1.1h0a1.09,1.09,0,0,0-1.09-1.09h-21.09a1.09,1.09,0,0,0-1.1,1.09h0A1.1,1.1,0,0,0,1806.58,123.59Z"></path><rect y="1268.39" width="1921" height="329.1"></rect><text class="cls-26" transform="translate(1627.57 1364.62)"><tspan class="cls-27">F</tspan><tspan x="14.43" y="0">oll</tspan><tspan class="cls-28" x="48.37" y="0">o</tspan><tspan x="65.93" y="0">w us</tspan></text><text class="cls-26" transform="translate(1316.63 1364.62)">N<tspan class="cls-29" x="22.83" y="0">a</tspan><tspan x="38.12" y="0">viga</tspan><tspan class="cls-30" x="95.52" y="0">t</tspan><tspan class="cls-31" x="106.79" y="0">e </tspan><tspan class="cls-29" x="128.8" y="0">P</tspan><tspan x="145.94" y="0">ages</tspan></text><use transform="translate(107.64 1293.06) scale(0.06)" xlink:href="#image"></use><path class="cls-5" d="M1637.67,1417.62v-10.53h-1.79V1404h1.79v-.53a6.25,6.25,0,0,1,1.73-4.59,5.6,5.6,0,0,1,3.78-1.37,8.45,8.45,0,0,1,2.26.28l-.17,3.27a4.65,4.65,0,0,0-1.37-.19c-1.39,0-2,1.09-2,2.43v.7h2.74v3.13H1642v10.53Z"></path><path class="cls-5" d="M1645.93,1450a1.19,1.19,0,1,0,1.19,1.19A1.18,1.18,0,0,0,1645.93,1450Z"></path><path class="cls-5" d="M1640.66,1451.41a5.07,5.07,0,1,0,5.07,5.07A5.07,5.07,0,0,0,1640.66,1451.41Zm0,8.36a3.29,3.29,0,1,1,3.29-3.29A3.29,3.29,0,0,1,1640.66,1459.77Z"></path><path class="cls-5" d="M1650.48,1452.41a7.44,7.44,0,0,0-.46-2.4,5.06,5.06,0,0,0-2.89-2.89,7.44,7.44,0,0,0-2.4-.46c-1,0-1.39-.06-4.07-.06s-3,0-4.07.06a7.44,7.44,0,0,0-2.4.46,5,5,0,0,0-2.88,2.89,6.94,6.94,0,0,0-.46,2.4c0,1-.06,1.39-.06,4.07s0,3,.06,4.07a6.94,6.94,0,0,0,.46,2.4,5,5,0,0,0,2.88,2.89,7.21,7.21,0,0,0,2.4.45c1.05,0,1.39.06,4.07.06s3,0,4.07-.06a7.21,7.21,0,0,0,2.4-.45A5.06,5.06,0,0,0,1650,1463a7.44,7.44,0,0,0,.46-2.4c0-1,.06-1.39.06-4.07S1650.52,1453.46,1650.48,1452.41Zm-1.78,8.06a5.44,5.44,0,0,1-.34,1.83,3.08,3.08,0,0,1-.74,1.14,3.17,3.17,0,0,1-1.13.74,5.86,5.86,0,0,1-1.84.34c-1,0-1.35,0-4,0s-3,0-4,0a5.78,5.78,0,0,1-1.83-.34,3.27,3.27,0,0,1-1.88-1.88,5.71,5.71,0,0,1-.34-1.83c0-1,0-1.35,0-4s0-3,0-4a5.71,5.71,0,0,1,.34-1.83,3.12,3.12,0,0,1,.74-1.14,3.08,3.08,0,0,1,1.14-.74,5.78,5.78,0,0,1,1.83-.34c1,0,1.36-.06,4-.06s2.95,0,4,.06a5.86,5.86,0,0,1,1.84.34,3,3,0,0,1,1.13.74,3,3,0,0,1,.74,1.14,5.44,5.44,0,0,1,.34,1.83c0,1,.06,1.35.06,4S1648.75,1459.43,1648.7,1460.47Z"></path><text class="cls-32" transform="translate(141.24 1465.79)">@2022</text><text class="cls-32" transform="translate(141.24 1488.82)"><tspan class="cls-33">A</tspan><tspan x="10.5" y="0">ll righ</tspan><tspan class="cls-34" x="50.16" y="0">t</tspan><tspan x="56.07" y="0">s </tspan><tspan class="cls-35" x="66.77" y="0">r</tspan><tspan x="72.42" y="0">ese</tspan><tspan class="cls-36" x="97.06" y="0">r</tspan><tspan class="cls-37" x="103.05" y="0">v</tspan><tspan class="cls-38" x="110.74" y="0">ed</tspan></text><text class="cls-39" transform="translate(1668.98 1415.74)"><tspan class="cls-40">T</tspan><tspan class="cls-41" x="8.39" y="0">r</tspan><tspan x="14.4" y="0">ad</tspan><tspan class="cls-42" x="33.2" y="0">v</tspan><tspan x="41.27" y="0">eller </tspan><tspan class="cls-40" x="77.29" y="0">T</tspan><tspan class="cls-43" x="85.68" y="0">r</tspan><tspan x="91.62" y="0">end</tspan></text><text class="cls-39" transform="translate(1668.98 1462.72)"><tspan class="cls-40">T</tspan><tspan class="cls-41" x="8.39" y="0">r</tspan><tspan x="14.4" y="0">ad</tspan><tspan class="cls-42" x="33.2" y="0">v</tspan><tspan x="41.27" y="0">eller </tspan><tspan class="cls-40" x="77.29" y="0">T</tspan><tspan class="cls-43" x="85.68" y="0">r</tspan><tspan x="91.62" y="0">end</tspan></text><text class="cls-39" transform="translate(1320.21 1415.74)">HOME</text><text class="cls-39" transform="translate(1320.21 1462.72)">OUR <tspan class="cls-44" x="38.73" y="0">S</tspan><tspan class="cls-45" x="48.92" y="0">T</tspan><tspan x="57.39" y="0">O</tspan><tspan class="cls-46" x="70.39" y="0">R</tspan><tspan x="80.35" y="0">Y</tspan></text><text class="cls-39" transform="translate(1320.21 1509.87)">OUR P<tspan class="cls-47" x="48.18" y="0">R</tspan><tspan x="58.29" y="0">ODU</tspan><tspan class="cls-48" x="95.14" y="0">C</tspan><tspan class="cls-45" x="107.01" y="0">T</tspan><tspan x="115.48" y="0">S</tspan></text><polygon class="cls-5" points="985.47 127.2 979.62 135.34 991.31 135.34 985.47 127.2"></polygon><text class="cls-49" transform="translate(772.96 634.61)">Sor<tspan class="cls-50" x="26.62" y="0">r</tspan><tspan class="cls-51" x="33.04" y="0">y</tspan><tspan x="40.68" y="0">, the page </tspan><tspan class="cls-52" x="118.3" y="0">y</tspan><tspan x="126.36" y="0">ou a</tspan><tspan class="cls-53" x="157.96" y="0">r</tspan><tspan x="164.02" y="0">e looking </tspan><tspan class="cls-54" x="237.55" y="0">f</tspan><tspan x="243.17" y="0">or does not </tspan><tspan class="cls-41" x="333.55" y="0">e</tspan><tspan x="342.7" y="0">xist. </tspan><tspan x="-99.66" y="18">It m</tspan><tspan class="cls-41" x="-70.62" y="18">a</tspan><tspan x="-62.03" y="18">y h</tspan><tspan class="cls-55" x="-40.8" y="18">a</tspan><tspan class="cls-52" x="-32.21" y="18">v</tspan><tspan x="-23.97" y="18">e been m</tspan><tspan class="cls-56" x="44.86" y="18">ov</tspan><tspan x="63.09" y="18">ed, dele</tspan><tspan class="cls-54" x="122.94" y="18">t</tspan><tspan x="129.27" y="18">ed, or </tspan><tspan class="cls-52" x="175.84" y="18">y</tspan><tspan x="183.89" y="18">ou m</tspan><tspan class="cls-41" x="221.39" y="18">a</tspan><tspan x="229.99" y="18">y h</tspan><tspan class="cls-55" x="251.21" y="18">a</tspan><tspan class="cls-52" x="259.81" y="18">v</tspan><tspan x="268.04" y="18">e en</tspan><tspan class="cls-54" x="299.42" y="18">t</tspan><tspan x="305.75" y="18">e</tspan><tspan class="cls-53" x="314.93" y="18">r</tspan><tspan x="320.99" y="18">ed an incor</tspan><tspan class="cls-53" x="405.17" y="18">r</tspan><tspan x="411.23" y="18">ect URL.</tspan></text><rect class="cls-57" x="794.17" y="694.37" width="331.66" height="66.87" rx="5.37"></rect><text class="cls-58" transform="translate(832.95 733.52)">RE<tspan class="cls-59" x="26.16" y="0">T</tspan><tspan x="38.16" y="0">URN </tspan><tspan class="cls-60" x="89.66" y="0">T</tspan><tspan x="101.28" y="0">O HOME</tspan><tspan class="cls-61" x="187.08" y="0">P</tspan><tspan class="cls-62" x="199.02" y="0">A</tspan><tspan x="213.82" y="0">GE</tspan></text></g></svg>