<svg xmlns="http://www.w3.org/2000/svg" xmlns:xlink="http://www.w3.org/1999/xlink" viewBox="0 0 1920 1080"><defs><clipPath id="clip-path"><rect class="cls-1" x="-883.83" y="171.9" width="325.28" height="400.49" rx="18.41"></rect></clipPath><clipPath id="clip-path-2"><rect class="cls-1" x="109.34" y="171.92" width="875.28" height="505.59" rx="27.63"></rect></clipPath><clipPath id="clip-path-3"><rect class="cls-1" x="1123.1" y="171.92" width="325.28" height="400.49" rx="18.41"></rect></clipPath><clipPath id="clip-path-4"><rect class="cls-2" x="1482.01" y="171.92" width="325.02" height="400.49" rx="18.41"></rect></clipPath><clipPath id="clip-path-5"><rect class="cls-1" x="1470.42" y="171.5" width="383.75" height="456.29" rx="21.35"></rect></clipPath><clipPath id="clip-path-6"><rect class="cls-1" x="1322.55" y="599.33" width="188.52" height="217.01" rx="5.37"></rect></clipPath><clipPath id="clip-path-7"><rect class="cls-1" x="1520.76" y="599.33" width="188.52" height="217.01" rx="5.37"></rect></clipPath><clipPath id="clip-path-8"><rect class="cls-1" x="1315.8" y="224.72" width="117.34" height="160.51" rx="7"></rect></clipPath><image id="image" width="1264" height="1058"></image></defs><title>Tradveller_Merch Landing Page</title><g id="Layer_2" data-name="Layer 2"><g class="cls-3"><use transform="translate(-3413.15 -247.75) scale(3.2)" xlink:href="#image"></use></g></g><g id="Layer_4" data-name="Layer 4"><rect class="cls-4" width="1920" height="1080"></rect><rect width="1920" height="65.68"></rect><text class="cls-5" transform="translate(796.84 36.7)">WE TRADE &amp; WE TR<tspan class="cls-6" x="173.18" y="0">A</tspan><tspan class="cls-7" x="186.03" y="0">VEL</tspan></text><g class="cls-8"><use transform="translate(-849.21 28.03) scale(1.46)" xlink:href="#image"></use></g><text class="cls-9" transform="translate(107.64 742.33)">TRA<tspan class="cls-10" x="85.2" y="0">D</tspan><tspan x="115.96" y="0">VELLER</tspan><tspan x="0" y="48">GRAPHIC </tspan><tspan class="cls-10" x="206.16" y="48">O</tspan><tspan x="240.24" y="48">VE</tspan><tspan class="cls-11" x="293.6" y="48">R</tspan><tspan x="322.56" y="48">SIZE T</tspan></text><g class="cls-12"><use transform="translate(-1406.22 -247.73) scale(3.2)" xlink:href="#image"></use></g><g class="cls-13"><use transform="translate(-444.33 -109.57) scale(1.87)" xlink:href="#image"></use></g><rect class="cls-2" x="1482.01" y="171.92" width="325.02" height="400.49" rx="18.41"></rect><rect class="cls-14" x="1133.69" y="688.27" width="58.21" height="58.21" rx="10"></rect><text class="cls-15" transform="translate(1154.12 726.87)">S</text><rect class="cls-14" x="1207.73" y="688.27" width="58.21" height="58.21" rx="10"></rect><text class="cls-15" transform="translate(1224.66 726.87)">M</text><rect class="cls-14" x="1281.78" y="688.27" width="58.21" height="58.21" rx="10"></rect><text class="cls-15" transform="translate(1303.71 726.87)">L</text><rect class="cls-14" x="1355.82" y="688.27" width="58.21" height="58.21" rx="10"></rect><text class="cls-15" transform="translate(1368.84 726.87)">XL</text><rect class="cls-14" x="1429.86" y="688.27" width="58.21" height="58.21" rx="10"></rect><text class="cls-15" transform="translate(1435.05 726.87)">2XL</text><rect class="cls-14" x="1503.9" y="688.27" width="58.21" height="58.21" rx="10"></rect><text class="cls-15" transform="translate(1509.1 726.87)">3XL</text><line class="cls-16" x1="109.34" y1="839.14" x2="960.5" y2="839.14"></line><text class="cls-17" transform="translate(115.16 898.42)">Specification</text><text class="cls-17" transform="translate(115.16 947.95)">Ma<tspan class="cls-18" x="26.53" y="0">t</tspan><tspan x="34.02" y="0">erials</tspan></text><text class="cls-17" transform="translate(115.16 998.57)">Shipping In<tspan class="cls-18" x="104.04" y="0">f</tspan><tspan x="110.7" y="0">o</tspan></text><polyline class="cls-19" points="905.25 888.67 911.62 895.04 918.07 888.59"></polyline><polyline class="cls-19" points="905.25 938.37 911.62 944.74 918.07 938.28"></polyline><polyline class="cls-19" points="905.25 988.06 911.62 994.43 918.07 987.98"></polyline><text class="cls-20" transform="translate(1134.92 660.59)">RM 30</text><rect class="cls-21" x="1125.14" y="930.58" width="681.9" height="101.11" rx="9.47"></rect><text class="cls-22" transform="translate(1373.63 983.25)">CH<tspan class="cls-23" x="48" y="0">E</tspan><tspan x="65.76" y="0">CK O</tspan><tspan class="cls-24" x="143.37" y="0">U</tspan><tspan x="166.86" y="0">T</tspan></text><text class="cls-25" transform="translate(1338.59 1009.96)">FREE SHIPPING WITH ORDER <tspan class="cls-26" x="177.69" y="0">O</tspan><tspan x="188.01" y="0">VER RM150</tspan></text><text class="cls-27" transform="translate(1133.69 787.91)">ON<tspan class="cls-28" x="43.3" y="0">L</tspan><tspan x="54.8" y="0">Y 3 PI</tspan><tspan class="cls-29" x="122.22" y="0">E</tspan><tspan x="136.95" y="0">C</tspan><tspan class="cls-30" x="156.92" y="0">E</tspan><tspan x="171.67" y="0">S LE</tspan><tspan class="cls-31" x="222.65" y="0">F</tspan><tspan x="236.87" y="0">T!</tspan></text><text class="cls-15" transform="translate(1133.69 858.47)">Quantity</text><text class="cls-32" transform="translate(1149.27 903.17)">1</text><rect class="cls-14" x="1125.14" y="876.61" width="681.9" height="35.57" rx="4.94"></rect><image width="6702" height="2084" transform="translate(60.7 70.67) scale(0.04)"></image><text class="cls-33" transform="translate(380.43 116.09)"><tspan class="cls-34">T</tspan><tspan class="cls-35" x="9.47" y="0">-</tspan><tspan class="cls-36" x="18.2" y="0">SHI</tspan><tspan class="cls-37" x="50.12" y="0">R</tspan><tspan x="62.2" y="0">T</tspan></text><text class="cls-33" transform="translate(508.15 116.09)"><tspan class="cls-38">J</tspan><tspan class="cls-39" x="10.71" y="0">A</tspan><tspan x="23.66" y="0">CKET</tspan></text><text class="cls-40" transform="translate(642.17 116.09)">C<tspan class="cls-41" x="13.94" y="0">AP</tspan></text><text class="cls-33" transform="translate(744.84 116.09)"><tspan class="cls-39">A</tspan><tspan x="12.95" y="0">CC</tspan><tspan class="cls-42" x="41.04" y="0">E</tspan><tspan class="cls-36" x="51.5" y="0">SSORI</tspan><tspan class="cls-43" x="109.04" y="0">E</tspan><tspan x="119.5" y="0">S</tspan></text><text class="cls-33" transform="translate(932.36 116.09)">OUR <tspan class="cls-44" x="45.62" y="0">S</tspan><tspan class="cls-45" x="57.47" y="0">T</tspan><tspan x="67.58" y="0">O</tspan><tspan class="cls-46" x="82.86" y="0">R</tspan><tspan x="94.76" y="0">Y</tspan></text><rect class="cls-47" x="1893.45" y="1060.6" width="26.55" height="19.4"></rect><g class="cls-48"><use transform="translate(591.32 -234.87) scale(2.32)" xlink:href="#image"></use></g><rect class="cls-49" y="-0.46" width="1920.07" height="1080"></rect><polygon class="cls-47" points="1920.07 1080.46 1261.49 1080.46 1261.49 212.19 1261.49 0.46 1920.07 0.46 1920.07 1080.46"></polygon><rect class="cls-47" x="1457.32" y="224.72" width="414.98" height="127.4"></rect><text class="cls-50" transform="translate(1465.07 240.19)">TRA<tspan class="cls-51" x="30.36" y="0">D</tspan><tspan class="cls-52" x="42.18" y="0">VELLER GRAPHIC T</tspan></text><text class="cls-50" transform="translate(1406.04 150.08)"><tspan class="cls-53">Y</tspan><tspan class="cls-54" x="8.91" y="0">ou a</tspan><tspan class="cls-51" x="40.27" y="0">r</tspan><tspan x="46.21" y="0">e eligible </tspan><tspan class="cls-55" x="118.12" y="0">f</tspan><tspan x="123.67" y="0">or </tspan><tspan class="cls-55" x="143.25" y="0">f</tspan><tspan class="cls-51" x="148.8" y="0">r</tspan><tspan x="154.74" y="0">ee shipping within Mal</tspan><tspan class="cls-56" x="322.99" y="0">a</tspan><tspan class="cls-57" x="331.51" y="0">y</tspan><tspan x="339.48" y="0">sia!</tspan></text><text class="cls-58" transform="translate(1321.63 582.32)">POPU<tspan class="cls-59" x="44.41" y="0">L</tspan><tspan x="52.83" y="0">AR ADD ON</tspan></text><rect class="cls-21" x="1609.83" y="983.95" width="108.77" height="34.47"></rect><text class="cls-50" transform="translate(1786.31 240.19)">RM30.00</text><text class="cls-60" transform="translate(1614.99 1006.66)">RM30.00</text><text class="cls-61" transform="translate(1786.93 266.41)">RM50.00</text><text class="cls-50" transform="translate(1472.86 274.75)">M</text><rect class="cls-62" x="1466.6" y="300.38" width="121.79" height="38.04" rx="11.39"></rect><text class="cls-63" transform="translate(1477.53 326.06)"><tspan xml:space="preserve">-      2      +</tspan></text><text class="cls-64" transform="translate(1609.43 324)"><tspan class="cls-65">R</tspan><tspan x="9.1" y="0">em</tspan><tspan class="cls-66" x="30.23" y="0">ov</tspan><tspan x="46.34" y="0">e</tspan></text><text class="cls-67" transform="translate(1674.96 416.34)">ENTER P<tspan class="cls-68" x="58.58" y="0">R</tspan><tspan x="68.01" y="0">OMO CODE</tspan></text><text class="cls-69" transform="translate(1656.5 444.83)">Sign up our n<tspan class="cls-70" x="79.58" y="0">e</tspan><tspan class="cls-71" x="86.84" y="0">w</tspan><tspan class="cls-72" x="96.73" y="0">set</tspan><tspan class="cls-73" x="115.44" y="0">t</tspan><tspan x="120.43" y="0">er </tspan><tspan class="cls-73" x="135.37" y="0">f</tspan><tspan class="cls-74" x="139.81" y="0">or 5% off</tspan></text><line class="cls-75" x1="1610.98" y1="327.4" x2="1663.96" y2="327.4"></line><line class="cls-76" x1="1786.6" y1="261.31" x2="1857.7" y2="261.31"></line><line class="cls-77" x1="1920.07" y1="539.54" x2="1261.49" y2="539.54"></line><g class="cls-78"><image width="5182" height="3455" transform="translate(1197.12 598.48) scale(0.06)"></image></g><g class="cls-79"><image width="4160" height="6240" transform="translate(1477.09 514.32) scale(0.07)"></image></g><text class="cls-80" transform="translate(1325.62 838.17)"><tspan class="cls-81">T</tspan><tspan class="cls-82" x="6.79" y="0">r</tspan><tspan x="11.69" y="0">ad</tspan><tspan class="cls-83" x="26.86" y="0">v</tspan><tspan class="cls-84" x="33.54" y="0">eller Jac</tspan><tspan class="cls-85" x="84.58" y="0">k</tspan><tspan x="91.48" y="0">e</tspan><tspan class="cls-86" x="98.8" y="0">t</tspan><tspan x="103.86" y="0">s</tspan></text><text class="cls-87" transform="translate(1326.7 854.92)">RM 120</text><circle cx="1496.7" cy="843.63" r="14.37"></circle><path class="cls-47" d="M1493.4,839.93l-.58-2.42h-3.27V839h2.07l1.78,7.3h8.34v-6.41Zm6.82,4.89h-5.63l-.82-3.37h6.45Z"></path><circle class="cls-47" cx="1494.83" cy="848.23" r="1.52"></circle><circle class="cls-47" cx="1500.16" cy="848.23" r="1.52"></circle><path d="M1328.39,45.47l-1.12-4.62H1321v2.91h4l3.4,14h16V45.47Zm13,9.36h-10.76l-1.57-6.45h12.33Z"></path><circle cx="1332.27" cy="61.33" r="2.39"></circle><circle cx="1340.63" cy="61.33" r="2.39"></circle><circle cx="1694.91" cy="844.82" r="14.37"></circle><path class="cls-47" d="M1691.62,841.11l-.59-2.41h-3.26v1.52h2.06l1.78,7.31H1700v-6.42Zm6.81,4.89h-5.62l-.82-3.37h6.44Z"></path><circle class="cls-47" cx="1693.04" cy="849.42" r="1.52"></circle><circle class="cls-47" cx="1698.38" cy="849.42" r="1.52"></circle><text class="cls-80" transform="translate(1523.53 838.17)"><tspan class="cls-81">T</tspan><tspan class="cls-82" x="6.79" y="0">r</tspan><tspan x="11.69" y="0">ad</tspan><tspan class="cls-83" x="26.86" y="0">v</tspan><tspan class="cls-84" x="33.54" y="0">eller Cap</tspan></text><text class="cls-87" transform="translate(1524.32 854.92)">RM 50</text><polygon class="cls-88" points="1329.22 862.62 1330.8 867.47 1335.89 867.47 1331.77 870.47 1333.35 875.32 1329.22 872.32 1325.1 875.32 1326.67 870.47 1322.55 867.47 1327.64 867.47 1329.22 862.62"></polygon><polygon class="cls-88" points="1345.18 862.62 1346.75 867.47 1351.85 867.47 1347.72 870.47 1349.3 875.32 1345.18 872.32 1341.05 875.32 1342.63 870.47 1338.5 867.47 1343.6 867.47 1345.18 862.62"></polygon><polygon class="cls-88" points="1361.13 862.62 1362.71 867.47 1367.8 867.47 1363.68 870.47 1365.26 875.32 1361.13 872.32 1357.01 875.32 1358.58 870.47 1354.46 867.47 1359.56 867.47 1361.13 862.62"></polygon><polygon class="cls-88" points="1377.09 862.62 1378.66 867.47 1383.76 867.47 1379.63 870.47 1381.21 875.32 1377.09 872.32 1372.96 875.32 1374.54 870.47 1370.41 867.47 1375.51 867.47 1377.09 862.62"></polygon><polygon class="cls-88" points="1393.04 862.62 1394.62 867.47 1399.71 867.47 1395.59 870.47 1397.17 875.32 1393.04 872.32 1388.92 875.32 1390.49 870.47 1386.37 867.47 1391.47 867.47 1393.04 862.62"></polygon><polygon class="cls-88" points="1529.51 862.62 1531.09 867.47 1536.18 867.47 1532.06 870.47 1533.63 875.32 1529.51 872.32 1525.38 875.32 1526.96 870.47 1522.84 867.47 1527.93 867.47 1529.51 862.62"></polygon><polygon class="cls-88" points="1545.46 862.62 1547.04 867.47 1552.14 867.47 1548.01 870.47 1549.59 875.32 1545.46 872.32 1541.34 875.32 1542.91 870.47 1538.79 867.47 1543.89 867.47 1545.46 862.62"></polygon><polygon class="cls-88" points="1561.42 862.62 1562.99 867.47 1568.09 867.47 1563.97 870.47 1565.54 875.32 1561.42 872.32 1557.3 875.32 1558.87 870.47 1554.75 867.47 1559.84 867.47 1561.42 862.62"></polygon><polygon class="cls-88" points="1577.38 862.62 1578.95 867.47 1584.05 867.47 1579.92 870.47 1581.5 875.32 1577.38 872.32 1573.25 875.32 1574.83 870.47 1570.7 867.47 1575.8 867.47 1577.38 862.62"></polygon><polygon class="cls-88" points="1593.33 862.62 1594.9 867.47 1600 867.47 1595.88 870.47 1597.45 875.32 1593.33 872.32 1589.2 875.32 1590.78 870.47 1586.66 867.47 1591.75 867.47 1593.33 862.62"></polygon><rect class="cls-62" x="1647.59" y="394.08" width="210.11" height="35.57" rx="8.29"></rect><rect class="cls-21" x="1314.78" y="967.75" width="552" height="66.87" rx="6.93"></rect><text class="cls-89" transform="translate(1481.88 1006.9)">CH<tspan class="cls-90" x="32" y="0">E</tspan><tspan x="43.84" y="0">CK O</tspan><tspan class="cls-91" x="95.58" y="0">U</tspan><tspan x="111.24" y="0">T</tspan></text><text class="cls-89" transform="translate(1659.79 1006.9)">RM30.00</text><rect class="cls-92" x="1343.76" y="996.66" width="19.14" height="12.22"></rect><circle class="cls-47" cx="1353.33" cy="1002.76" r="1.32"></circle><path class="cls-92" d="M1347.22,996c0-11.66,11.81-11.66,11.81,0"></path><rect class="cls-47" x="1629.08" y="998.08" width="3.72" height="3.72"></rect><g class="cls-93"><use transform="translate(644.68 126.65) scale(0.65)" xlink:href="#image"></use></g><rect class="cls-1" x="1261.49" y="-0.46" width="658.59" height="1080"></rect><rect x="1313.85" y="170.57" width="553.09" height="10.4" rx="5.2"></rect><text class="cls-94" transform="translate(1851.52 61.87)">X</text><text class="cls-94" transform="translate(1357.73 60.85)">2 i<tspan class="cls-95" x="23.08" y="0">t</tspan><tspan x="31.52" y="0">ems</tspan></text><line class="cls-96" x1="1261.49" y1="109.23" x2="1920.07" y2="109.23"></line></g></svg>