<svg xmlns="http://www.w3.org/2000/svg" xmlns:xlink="http://www.w3.org/1999/xlink" viewBox="0 0 1920 1082.32"><defs><clipPath id="clip-path"><rect class="cls-1" x="1470.35" y="171.96" width="383.75" height="456.29" rx="21.35"></rect></clipPath><clipPath id="clip-path-2"><rect class="cls-1" x="1322.47" y="599.79" width="188.52" height="217.01" rx="5.37"></rect></clipPath><clipPath id="clip-path-3"><rect class="cls-1" x="1520.69" y="599.79" width="188.52" height="217.01" rx="5.37"></rect></clipPath><clipPath id="clip-path-4"><rect class="cls-1" x="1315.73" y="225.18" width="117.34" height="160.51" rx="7"></rect></clipPath><clipPath id="clip-path-5"><rect class="cls-1" x="1470.35" y="-993.58" width="383.75" height="456.29" rx="21.35"></rect></clipPath><clipPath id="clip-path-6"><rect class="cls-1" x="-837.84" y="-993.62" width="325.28" height="400.49" rx="18.41"></rect></clipPath><clipPath id="clip-path-7"><rect class="cls-1" x="-490.51" y="-994.04" width="383.75" height="456.29" rx="21.35"></rect></clipPath><image id="image" width="1264" height="1058"></image></defs><title>Tradveller_Merch Landing Page</title><g id="Layer_2" data-name="Layer 2"><rect class="cls-2" width="1262.41" height="1082.23"></rect><image width="675" height="919" transform="translate(141.23 31.44) scale(1.12)"></image><path d="M1317.55,45.38l-1.28-5.27h-7.14v3.33h4.52l3.89,16h18.24v-14Zm14.89,10.69h-12.29l-1.79-7.36h14.08Z"></path><circle cx="1322.61" cy="63.8" r="2.48"></circle><circle cx="1331.31" cy="63.8" r="2.48"></circle><g class="cls-3"><use transform="translate(591.25 -234.41) scale(2.32)" xlink:href="#image"></use></g><polygon class="cls-4" points="1920 1080 1261.41 1080 1261.41 211.72 1261.41 0 1920 0 1920 1080"></polygon><rect class="cls-4" x="1457.24" y="225.18" width="414.98" height="127.4"></rect><text class="cls-5" transform="translate(1465 240.66)">TRA<tspan class="cls-6" x="30.36" y="0">D</tspan><tspan class="cls-7" x="42.18" y="0">VELLER GRAPHIC T</tspan></text><text class="cls-5" transform="translate(1405.97 150.54)"><tspan class="cls-8">Y</tspan><tspan class="cls-9" x="8.91" y="0">ou a</tspan><tspan class="cls-6" x="40.27" y="0">r</tspan><tspan x="46.21" y="0">e eligible </tspan><tspan class="cls-10" x="118.12" y="0">f</tspan><tspan x="123.67" y="0">or </tspan><tspan class="cls-10" x="143.25" y="0">f</tspan><tspan class="cls-6" x="148.8" y="0">r</tspan><tspan x="154.74" y="0">ee shipping within Mal</tspan><tspan class="cls-11" x="322.99" y="0">a</tspan><tspan class="cls-12" x="331.51" y="0">y</tspan><tspan x="339.48" y="0">sia!</tspan></text><text class="cls-13" transform="translate(1321.55 582.79)">POPU<tspan class="cls-14" x="44.41" y="0">L</tspan><tspan x="52.83" y="0">AR ADD ON</tspan></text><rect class="cls-15" x="1609.76" y="984.41" width="108.77" height="34.47"></rect><text class="cls-5" transform="translate(1786.23 240.66)">RM30.00</text><text class="cls-16" transform="translate(1614.91 1007.12)">RM30.00</text><text class="cls-17" transform="translate(1786.85 266.87)">RM50.00</text><text class="cls-5" transform="translate(1472.79 275.21)">M</text><rect class="cls-18" x="1466.52" y="300.84" width="121.79" height="38.04" rx="11.39"></rect><text class="cls-19" transform="translate(1477.46 326.52)"><tspan xml:space="preserve">-      2      +</tspan></text><text class="cls-20" transform="translate(1609.35 324.47)"><tspan class="cls-21">R</tspan><tspan x="9.1" y="0">em</tspan><tspan class="cls-22" x="30.23" y="0">ov</tspan><tspan x="46.34" y="0">e</tspan></text><text class="cls-23" transform="translate(1674.89 416.81)">ENTER P<tspan class="cls-24" x="58.58" y="0">R</tspan><tspan x="68.01" y="0">OMO CODE</tspan></text><text class="cls-25" transform="translate(1656.42 445.29)">Sign up our n<tspan class="cls-26" x="79.58" y="0">e</tspan><tspan class="cls-27" x="86.84" y="0">w</tspan><tspan class="cls-28" x="96.73" y="0">set</tspan><tspan class="cls-29" x="115.44" y="0">t</tspan><tspan x="120.43" y="0">er </tspan><tspan class="cls-29" x="135.37" y="0">f</tspan><tspan class="cls-30" x="139.81" y="0">or 5% off</tspan></text><line class="cls-31" x1="1610.9" y1="327.86" x2="1663.88" y2="327.86"></line><line class="cls-32" x1="1786.52" y1="261.78" x2="1857.63" y2="261.78"></line><line class="cls-33" x1="1920" y1="540" x2="1261.41" y2="540"></line><g class="cls-34"><image width="5182" height="3455" transform="translate(1197.04 598.94) scale(0.06)"></image></g><g class="cls-35"><image width="4160" height="6240" transform="translate(1477.01 514.79) scale(0.07)"></image></g><text class="cls-36" transform="translate(1325.55 838.64)"><tspan class="cls-37">T</tspan><tspan class="cls-38" x="6.79" y="0">r</tspan><tspan x="11.69" y="0">ad</tspan><tspan class="cls-39" x="26.86" y="0">v</tspan><tspan class="cls-40" x="33.54" y="0">eller Jac</tspan><tspan class="cls-41" x="84.58" y="0">k</tspan><tspan x="91.48" y="0">e</tspan><tspan class="cls-42" x="98.8" y="0">t</tspan><tspan x="103.86" y="0">s</tspan></text><text class="cls-43" transform="translate(1326.63 855.39)">RM 120</text><circle cx="1496.62" cy="844.1" r="14.37"></circle><path class="cls-4" d="M1493.33,840.39l-.59-2.41h-3.26v1.52h2.06l1.78,7.31h8.35v-6.42Zm6.81,4.89h-5.62l-.82-3.37h6.44Z"></path><circle class="cls-4" cx="1494.75" cy="848.7" r="1.52"></circle><circle class="cls-4" cx="1500.09" cy="848.7" r="1.52"></circle><path d="M1328.32,45.93l-1.12-4.62H1321v2.92h4l3.4,14h16V45.93Zm13,9.36H1330.6L1329,48.84h12.33Z"></path><circle cx="1332.2" cy="61.79" r="2.39"></circle><circle cx="1340.55" cy="61.79" r="2.39"></circle><circle cx="1694.84" cy="845.28" r="14.37"></circle><path class="cls-4" d="M1691.54,841.57l-.58-2.41h-3.27v1.52h2.07l1.78,7.31h8.34v-6.42Zm6.82,4.9h-5.63l-.82-3.37h6.45Z"></path><circle class="cls-4" cx="1692.97" cy="849.88" r="1.52"></circle><circle class="cls-4" cx="1698.3" cy="849.88" r="1.52"></circle><text class="cls-36" transform="translate(1523.45 838.64)"><tspan class="cls-37">T</tspan><tspan class="cls-38" x="6.79" y="0">r</tspan><tspan x="11.69" y="0">ad</tspan><tspan class="cls-39" x="26.86" y="0">v</tspan><tspan class="cls-40" x="33.54" y="0">eller Cap</tspan></text><text class="cls-43" transform="translate(1524.24 855.39)">RM 50</text><polygon class="cls-44" points="1329.15 863.09 1330.72 867.93 1335.82 867.93 1331.69 870.93 1333.27 875.78 1329.15 872.78 1325.02 875.78 1326.6 870.93 1322.47 867.93 1327.57 867.93 1329.15 863.09"></polygon><polygon class="cls-44" points="1345.1 863.09 1346.68 867.93 1351.78 867.93 1347.65 870.93 1349.23 875.78 1345.1 872.78 1340.98 875.78 1342.55 870.93 1338.43 867.93 1343.53 867.93 1345.1 863.09"></polygon><polygon class="cls-44" points="1361.06 863.09 1362.63 867.93 1367.73 867.93 1363.61 870.93 1365.18 875.78 1361.06 872.78 1356.93 875.78 1358.51 870.93 1354.38 867.93 1359.48 867.93 1361.06 863.09"></polygon><polygon class="cls-44" points="1377.01 863.09 1378.59 867.93 1383.68 867.93 1379.56 870.93 1381.14 875.78 1377.01 872.78 1372.89 875.78 1374.46 870.93 1370.34 867.93 1375.44 867.93 1377.01 863.09"></polygon><polygon class="cls-44" points="1392.97 863.09 1394.54 867.93 1399.64 867.93 1395.52 870.93 1397.09 875.78 1392.97 872.78 1388.84 875.78 1390.42 870.93 1386.29 867.93 1391.39 867.93 1392.97 863.09"></polygon><polygon class="cls-44" points="1529.43 863.09 1531.01 867.93 1536.11 867.93 1531.98 870.93 1533.56 875.78 1529.43 872.78 1525.31 875.78 1526.89 870.93 1522.76 867.93 1527.86 867.93 1529.43 863.09"></polygon><polygon class="cls-44" points="1545.39 863.09 1546.96 867.93 1552.06 867.93 1547.94 870.93 1549.52 875.78 1545.39 872.78 1541.27 875.78 1542.84 870.93 1538.72 867.93 1543.82 867.93 1545.39 863.09"></polygon><polygon class="cls-44" points="1561.35 863.09 1562.92 867.93 1568.02 867.93 1563.89 870.93 1565.47 875.78 1561.35 872.78 1557.22 875.78 1558.8 870.93 1554.67 867.93 1559.77 867.93 1561.35 863.09"></polygon><polygon class="cls-44" points="1577.3 863.09 1578.88 867.93 1583.97 867.93 1579.85 870.93 1581.42 875.78 1577.3 872.78 1573.18 875.78 1574.75 870.93 1570.63 867.93 1575.72 867.93 1577.3 863.09"></polygon><polygon class="cls-44" points="1593.26 863.09 1594.83 867.93 1599.93 867.93 1595.8 870.93 1597.38 875.78 1593.26 872.78 1589.13 875.78 1590.71 870.93 1586.58 867.93 1591.68 867.93 1593.26 863.09"></polygon><rect class="cls-18" x="1647.52" y="394.54" width="210.11" height="35.57" rx="8.29"></rect><rect class="cls-15" x="1314.71" y="968.21" width="552" height="66.87" rx="6.93"></rect><text class="cls-45" transform="translate(1481.81 1007.36)">CH<tspan class="cls-46" x="32" y="0">E</tspan><tspan x="43.84" y="0">CK O</tspan><tspan class="cls-47" x="95.58" y="0">U</tspan><tspan x="111.24" y="0">T</tspan></text><text class="cls-45" transform="translate(1659.71 1007.36)">RM30.00</text><rect class="cls-48" x="1343.68" y="997.12" width="19.14" height="12.22"></rect><circle class="cls-4" cx="1353.25" cy="1003.23" r="1.32"></circle><path class="cls-48" d="M1347.15,996.5c0-11.66,11.8-11.66,11.8,0"></path><rect class="cls-4" x="1629" y="998.54" width="3.72" height="3.72"></rect><g class="cls-49"><use transform="translate(644.6 127.11) scale(0.65)" xlink:href="#image"></use></g><rect class="cls-1" x="1261.41" width="658.59" height="1080"></rect><rect x="1313.78" y="171.03" width="553.09" height="10.4" rx="5.2"></rect><text class="cls-50" transform="translate(1851.45 62.33)">X</text><text class="cls-50" transform="translate(1357.66 61.31)">2 i<tspan class="cls-51" x="23.08" y="0">t</tspan><tspan x="31.52" y="0">ems</tspan></text><line class="cls-52" x1="1261.41" y1="109.69" x2="1920" y2="109.69"></line><g class="cls-53"><use transform="translate(591.25 -1399.94) scale(2.32)" xlink:href="#image"></use></g></g><g id="Layer_4" data-name="Layer 4"><g class="cls-54"><use transform="translate(-3367.16 -1413.27) scale(3.2)" xlink:href="#image"></use></g><g class="cls-55"><use transform="translate(-1369.62 -1400.41) scale(2.32)" xlink:href="#image"></use></g></g></svg>